GentiumPlusMaster-ExtraBoldItalic.ufo
<glyph name="ExclamationMrk" format="2">
  <advance width="500"/>
  <unicode hex="0021"/>
  <outline>
    <contour>
      <point x="530" y="1401" type="line"/>
      <point x="486" y="1436" type="line"/>
      <point x="433" y="1417"/>
      <point x="283" y="1347"/>
      <point x="223" y="1314" type="curve"/>
      <point x="178" y="391" type="line"/>
      <point x="203" y="370" type="line"/>
      <point x="235" y="380"/>
      <point x="290" y="401"/>
      <point x="316" y="419" type="curve"/>
    </contour>
    <contour>
      <point x="373" y="172" type="curve" smooth="yes"/>
      <point x="373" y="237"/>
      <point x="330" y="286"/>
      <point x="241" y="286" type="curve" smooth="yes"/>
      <point x="117" y="286"/>
      <point x="41" y="175"/>
      <point x="41" y="88" type="curve" smooth="yes"/>
      <point x="41" y="18"/>
      <point x="82" y="-31"/>
      <point x="175" y="-31" type="curve" smooth="yes"/>
      <point x="305" y="-31"/>
      <point x="373" y="80"/>
    </contour>
  </outline>
</glyph>
<glyph name="PercentSgn" format="2">
  <advance width="1411"/>
  <unicode hex="0025"/>
  <outline>
    <contour>
      <point x="712" y="995" type="curve" smooth="yes"/>
      <point x="712" y="1147"/>
      <point x="604" y="1239"/>
      <point x="467" y="1239" type="curve" smooth="yes"/>
      <point x="211" y="1239"/>
      <point x="69" y="1012"/>
      <point x="69" y="800" type="curve" smooth="yes"/>
      <point x="69" y="671"/>
      <point x="175" y="555"/>
      <point x="325" y="555" type="curve" smooth="yes"/>
      <point x="578" y="555"/>
      <point x="712" y="784"/>
    </contour>
    <contour>
      <point x="1301" y="1207" type="line"/>
      <point x="1281" y="1235" type="line"/>
      <point x="1253" y="1229"/>
      <point x="1163" y="1214"/>
      <point x="1137" y="1203" type="curve"/>
      <point x="106" y="0" type="line"/>
      <point x="125" y="-30" type="line"/>
      <point x="160" y="-21"/>
      <point x="242" y="-12"/>
      <point x="273" y="3" type="curve"/>
    </contour>
    <contour>
      <point x="1338" y="408" type="curve" smooth="yes"/>
      <point x="1338" y="560"/>
      <point x="1230" y="652"/>
      <point x="1093" y="652" type="curve" smooth="yes"/>
      <point x="837" y="652"/>
      <point x="695" y="425"/>
      <point x="695" y="213" type="curve" smooth="yes"/>
      <point x="695" y="84"/>
      <point x="801" y="-32"/>
      <point x="951" y="-32" type="curve" smooth="yes"/>
      <point x="1204" y="-32"/>
      <point x="1338" y="197"/>
    </contour>
    <contour>
      <point x="504" y="1013" type="curve" smooth="yes"/>
      <point x="504" y="861"/>
      <point x="458" y="629"/>
      <point x="362" y="629" type="curve" smooth="yes"/>
      <point x="307" y="629"/>
      <point x="286" y="673"/>
      <point x="286" y="777" type="curve" smooth="yes"/>
      <point x="286" y="878"/>
      <point x="313" y="1166"/>
      <point x="432" y="1166" type="curve" smooth="yes"/>
      <point x="473" y="1166"/>
      <point x="504" y="1126"/>
    </contour>
    <contour>
      <point x="1130" y="426" type="curve" smooth="yes"/>
      <point x="1130" y="274"/>
      <point x="1084" y="42"/>
      <point x="988" y="42" type="curve" smooth="yes"/>
      <point x="933" y="42"/>
      <point x="912" y="86"/>
      <point x="912" y="190" type="curve" smooth="yes"/>
      <point x="912" y="291"/>
      <point x="939" y="579"/>
      <point x="1058" y="579" type="curve" smooth="yes"/>
      <point x="1099" y="579"/>
      <point x="1130" y="539"/>
    </contour>
  </outline>
</glyph>
<glyph name="Ampersand" format="2">
  <advance width="1327"/>
  <unicode hex="0026"/>
  <outline>
    <contour>
      <point x="1401" y="748" type="curve"/>
      <point x="1377" y="794" type="line"/>
      <point x="917" y="794" type="line"/>
      <point x="891" y="784"/>
      <point x="834" y="730"/>
      <point x="819" y="713" type="curve"/>
      <point x="844" y="675" type="line"/>
      <point x="916" y="675"/>
      <point x="975" y="614"/>
      <point x="959" y="502" type="curve" smooth="yes"/>
      <point x="936" y="334"/>
      <point x="720" y="124"/>
      <point x="527" y="124" type="curve" smooth="yes"/>
      <point x="425" y="124"/>
      <point x="316" y="186"/>
      <point x="342" y="373" type="curve" smooth="yes"/>
      <point x="363" y="528"/>
      <point x="430" y="649"/>
      <point x="676" y="802" type="curve" smooth="yes"/>
      <point x="836" y="901"/>
      <point x="1019" y="1065"/>
      <point x="1038" y="1204" type="curve" smooth="yes"/>
      <point x="1056" y="1333"/>
      <point x="984" y="1450"/>
      <point x="786" y="1450" type="curve" smooth="yes"/>
      <point x="573" y="1450"/>
      <point x="379" y="1288"/>
      <point x="349" y="1073" type="curve"/>
      <point x="284" y="592"/>
      <point x="830" y="-30"/>
      <point x="955" y="-30" type="curve" smooth="yes"/>
      <point x="982" y="-30"/>
      <point x="1150" y="14"/>
      <point x="1264" y="65" type="curve"/>
      <point x="1258" y="148" type="line"/>
      <point x="1197" y="133"/>
      <point x="1119" y="144"/>
      <point x="1060" y="206" type="curve"/>
      <point x="861" y="410"/>
      <point x="555" y="831"/>
      <point x="596" y="1130" type="curve" smooth="yes"/>
      <point x="611" y="1235"/>
      <point x="647" y="1313"/>
      <point x="708" y="1313" type="curve" smooth="yes"/>
      <point x="755" y="1313"/>
      <point x="796" y="1264"/>
      <point x="783" y="1171" type="curve" smooth="yes"/>
      <point x="771" y="1083"/>
      <point x="719" y="973"/>
      <point x="595" y="905" type="curve" smooth="yes"/>
      <point x="248" y="714"/>
      <point x="92" y="532"/>
      <point x="68" y="352" type="curve"/>
      <point x="33" y="102"/>
      <point x="170" y="-30"/>
      <point x="441" y="-30" type="curve" smooth="yes"/>
      <point x="793" y="-30"/>
      <point x="1120" y="311"/>
      <point x="1152" y="543" type="curve" smooth="yes"/>
      <point x="1157" y="583"/>
      <point x="1158" y="625"/>
      <point x="1137" y="660" type="curve"/>
      <point x="1179" y="658"/>
      <point x="1229" y="632"/>
      <point x="1272" y="609" type="curve"/>
      <point x="1305" y="632"/>
      <point x="1365" y="707"/>
    </contour>
  </outline>
</glyph>
<glyph name="LftParen" format="2">
  <advance width="641"/>
  <unicode hex="0028"/>
  <outline>
    <contour>
      <point x="762" y="1519" type="curve"/>
      <point x="719" y="1604" type="line"/>
      <point x="400" y="1443"/>
      <point x="164" y="1089"/>
      <point x="102" y="651" type="curve" smooth="yes"/>
      <point x="41" y="227"/>
      <point x="179" y="-146"/>
      <point x="449" y="-315" type="curve"/>
      <point x="516" y="-230" type="line"/>
      <point x="353" y="-20"/>
      <point x="327" y="293"/>
      <point x="382" y="682" type="curve" smooth="yes"/>
      <point x="442" y="1110"/>
      <point x="585" y="1367"/>
    </contour>
  </outline>
</glyph>
<glyph name="Asterisk" format="2">
  <advance width="746"/>
  <unicode hex="002A"/>
  <outline>
    <contour>
      <point x="271" y="707" type="line"/>
      <point x="299" y="714"/>
      <point x="417" y="760"/>
      <point x="446" y="775" type="curve"/>
      <point x="431" y="1038" type="line"/>
      <point x="610" y="845" type="line"/>
      <point x="667" y="864" type="line"/>
      <point x="679" y="893"/>
      <point x="714" y="1019"/>
      <point x="720" y="1051" type="curve"/>
      <point x="494" y="1136" type="line"/>
      <point x="766" y="1231" type="line"/>
      <point x="785" y="1291" type="line"/>
      <point x="770" y="1313"/>
      <point x="688" y="1393"/>
      <point x="666" y="1410" type="curve"/>
      <point x="453" y="1230" type="line"/>
      <point x="547" y="1520" type="line"/>
      <point x="509" y="1561" type="line"/>
      <point x="481" y="1554"/>
      <point x="364" y="1508"/>
      <point x="335" y="1493" type="curve"/>
      <point x="349" y="1229" type="line"/>
      <point x="170" y="1423" type="line"/>
      <point x="114" y="1404" type="line"/>
      <point x="102" y="1375"/>
      <point x="67" y="1249"/>
      <point x="60" y="1217" type="curve"/>
      <point x="288" y="1132" type="line"/>
      <point x="15" y="1037" type="line"/>
      <point x="-6" y="977" type="line"/>
      <point x="10" y="955"/>
      <point x="92" y="875"/>
      <point x="115" y="858" type="curve"/>
      <point x="327" y="1037" type="line"/>
      <point x="234" y="748" type="line"/>
    </contour>
  </outline>
</glyph>
<glyph name="PlusSgn" format="2">
  <advance width="835"/>
  <unicode hex="002B"/>
  <outline>
    <contour>
      <point x="550" y="902" type="line"/>
      <point x="522" y="935" type="line"/>
      <point x="492" y="928"/>
      <point x="420" y="904"/>
      <point x="394" y="896" type="curve"/>
      <point x="299" y="222" type="line"/>
      <point x="328" y="190" type="line"/>
      <point x="359" y="196"/>
      <point x="428" y="218"/>
      <point x="456" y="231" type="curve"/>
    </contour>
    <contour>
      <point x="785" y="606" type="curve"/>
      <point x="757" y="640" type="line"/>
      <point x="117" y="640" type="line"/>
      <point x="103" y="614"/>
      <point x="65" y="548"/>
      <point x="55" y="519" type="curve"/>
      <point x="81" y="485" type="line"/>
      <point x="722" y="485" type="line"/>
      <point x="734" y="507"/>
      <point x="774" y="577"/>
    </contour>
  </outline>
</glyph>
<glyph name="Comma" format="2">
  <advance width="500"/>
  <unicode hex="002C"/>
  <outline>
    <contour>
      <point x="399" y="122" type="curve" smooth="yes"/>
      <point x="399" y="204"/>
      <point x="373" y="243"/>
      <point x="326" y="269" type="curve"/>
      <point x="262" y="268"/>
      <point x="76" y="200"/>
      <point x="27" y="159" type="curve"/>
      <point x="30" y="71" type="line"/>
      <point x="107" y="78"/>
      <point x="143" y="19"/>
      <point x="143" y="-30" type="curve" smooth="yes"/>
      <point x="143" y="-112"/>
      <point x="92" y="-232"/>
      <point x="-10" y="-340" type="curve"/>
      <point x="54" y="-395" type="line"/>
      <point x="194" y="-311"/>
      <point x="399" y="-62"/>
    </contour>
  </outline>
</glyph>
<glyph name="HyphenMinus" format="2">
  <advance width="691"/>
  <unicode hex="002D"/>
  <anchor x="365" y="1000" name="U"/>
  <outline>
    <contour>
      <point x="650" y="551" type="curve"/>
      <point x="621" y="585" type="line"/>
      <point x="86" y="585" type="line"/>
      <point x="70" y="559"/>
      <point x="33" y="498"/>
      <point x="23" y="469" type="curve"/>
      <point x="51" y="435" type="line"/>
      <point x="589" y="435" type="line"/>
      <point x="601" y="457"/>
      <point x="639" y="522"/>
    </contour>
  </outline>
</glyph>
<glyph name="DigitOne" format="2">
  <advance width="968"/>
  <unicode hex="0031"/>
  <anchor x="385" y="-100" name="L"/>
  <anchor x="585" y="1320" name="U"/>
  <outline>
    <contour>
      <point x="818" y="93" type="line"/>
      <point x="635" y="118"/>
      <point x="595" y="157"/>
      <point x="599" y="183" type="curve" smooth="yes"/>
      <point x="738" y="1200" type="line"/>
      <point x="700" y="1245" type="line"/>
      <point x="602" y="1204"/>
      <point x="300" y="1097"/>
      <point x="190" y="1075" type="curve"/>
      <point x="205" y="984" type="line"/>
      <point x="374" y="1021"/>
      <point x="430" y="1015"/>
      <point x="442" y="998" type="curve" smooth="yes"/>
      <point x="455" y="980"/>
      <point x="453" y="953"/>
      <point x="446" y="900" type="curve" smooth="yes"/>
      <point x="348" y="183" type="line" smooth="yes"/>
      <point x="344" y="155"/>
      <point x="282" y="118"/>
      <point x="83" y="93" type="curve"/>
      <point x="71" y="0" type="line"/>
      <point x="806" y="0" type="line"/>
    </contour>
  </outline>
</glyph>
<glyph name="DigitTwo" format="2">
  <advance width="968"/>
  <unicode hex="0032"/>
  <anchor x="385" y="-100" name="L"/>
  <anchor x="585" y="1320" name="U"/>
  <outline>
    <contour>
      <point x="921" y="1026" type="curve" smooth="yes"/>
      <point x="921" y="1185"/>
      <point x="776" y="1235"/>
      <point x="623" y="1235" type="curve" smooth="yes"/>
      <point x="378" y="1235"/>
      <point x="168" y="1063"/>
      <point x="149" y="925" type="curve"/>
      <point x="175" y="845" type="line"/>
      <point x="230" y="851"/>
      <point x="370" y="889"/>
      <point x="413" y="914" type="curve"/>
      <point x="407" y="1009"/>
      <point x="441" y="1111"/>
      <point x="539" y="1111" type="curve" smooth="yes"/>
      <point x="610" y="1111"/>
      <point x="648" y="1073"/>
      <point x="648" y="977" type="curve" smooth="yes"/>
      <point x="648" y="809"/>
      <point x="465" y="557"/>
      <point x="-10" y="74" type="curve"/>
      <point x="6" y="0" type="line"/>
      <point x="781" y="0" type="line"/>
      <point x="848" y="377" type="line"/>
      <point x="764" y="399" type="line"/>
      <point x="764" y="399"/>
      <point x="730" y="190"/>
      <point x="641" y="190" type="curve" smooth="yes"/>
      <point x="286" y="190" type="line"/>
      <point x="807" y="697"/>
      <point x="921" y="860"/>
    </contour>
  </outline>
</glyph>
<glyph name="DigitThree" format="2">
  <advance width="968"/>
  <unicode hex="0033"/>
  <anchor x="385" y="-100" name="L"/>
  <anchor x="585" y="1320" name="U"/>
  <outline>
    <contour>
      <point x="873" y="1001" type="curve" smooth="yes"/>
      <point x="873" y="1122"/>
      <point x="807" y="1235"/>
      <point x="576" y="1235" type="curve" smooth="yes"/>
      <point x="346" y="1235"/>
      <point x="162" y="1057"/>
      <point x="145" y="945" type="curve"/>
      <point x="171" y="874" type="line"/>
      <point x="234" y="876"/>
      <point x="357" y="920"/>
      <point x="412" y="953" type="curve"/>
      <point x="405" y="1053"/>
      <point x="456" y="1111"/>
      <point x="520" y="1111" type="curve" smooth="yes"/>
      <point x="577" y="1111"/>
      <point x="605" y="1074"/>
      <point x="605" y="990" type="curve" smooth="yes"/>
      <point x="605" y="834"/>
      <point x="511" y="731"/>
      <point x="327" y="686" type="curve"/>
      <point x="333" y="586" type="line"/>
      <point x="370" y="593"/>
      <point x="380" y="593"/>
      <point x="412" y="593" type="curve" smooth="yes"/>
      <point x="509" y="593"/>
      <point x="576" y="535"/>
      <point x="576" y="401" type="curve" smooth="yes"/>
      <point x="576" y="229"/>
      <point x="473" y="122"/>
      <point x="354" y="122" type="curve" smooth="yes"/>
      <point x="262" y="122"/>
      <point x="164" y="155"/>
      <point x="67" y="246" type="curve"/>
      <point x="8" y="139" type="line"/>
      <point x="98" y="34"/>
      <point x="256" y="-31"/>
      <point x="350" y="-31" type="curve" smooth="yes"/>
      <point x="619" y="-31"/>
      <point x="849" y="178"/>
      <point x="849" y="428" type="curve" smooth="yes"/>
      <point x="849" y="561"/>
      <point x="785" y="682"/>
      <point x="644" y="698" type="curve"/>
      <point x="773" y="752"/>
      <point x="873" y="856"/>
    </contour>
  </outline>
</glyph>
<glyph name="DigitFive" format="2">
  <advance width="968"/>
  <unicode hex="0035"/>
  <anchor x="385" y="-100" name="L"/>
  <anchor x="585" y="1320" name="U"/>
  <outline>
    <contour>
      <point x="948" y="1184" type="curve"/>
      <point x="915" y="1223" type="line"/>
      <point x="915" y="1223"/>
      <point x="872" y="1204"/>
      <point x="805" y="1204" type="curve" smooth="yes"/>
      <point x="286" y="1204" type="line"/>
      <point x="260" y="1063"/>
      <point x="174" y="728"/>
      <point x="123" y="583" type="curve"/>
      <point x="165" y="550" type="line"/>
      <point x="236" y="603"/>
      <point x="311" y="640"/>
      <point x="419" y="640" type="curve" smooth="yes"/>
      <point x="532" y="640"/>
      <point x="604" y="555"/>
      <point x="604" y="424" type="curve" smooth="yes"/>
      <point x="604" y="248"/>
      <point x="493" y="112"/>
      <point x="364" y="112" type="curve" smooth="yes"/>
      <point x="279" y="112"/>
      <point x="192" y="137"/>
      <point x="71" y="231" type="curve"/>
      <point x="10" y="134" type="line"/>
      <point x="104" y="29"/>
      <point x="242" y="-31"/>
      <point x="362" y="-31" type="curve" smooth="yes"/>
      <point x="696" y="-31"/>
      <point x="862" y="238"/>
      <point x="862" y="477" type="curve" smooth="yes"/>
      <point x="862" y="635"/>
      <point x="757" y="800"/>
      <point x="523" y="800" type="curve" smooth="yes"/>
      <point x="442" y="800"/>
      <point x="360" y="780"/>
      <point x="311" y="754" type="curve"/>
      <point x="329" y="813"/>
      <point x="360" y="926"/>
      <point x="376" y="1004" type="curve"/>
      <point x="789" y="1004" type="line"/>
      <point x="820" y="1027"/>
      <point x="918" y="1137"/>
    </contour>
  </outline>
</glyph>
<glyph name="DigitSix" format="2">
  <advance width="968"/>
  <unicode hex="0036"/>
  <anchor x="385" y="-100" name="L"/>
  <anchor x="585" y="1320" name="U"/>
  <outline>
    <contour>
      <point x="900" y="1150" type="curve"/>
      <point x="886" y="1249" type="line"/>
      <point x="341" y="1188"/>
      <point x="53" y="791"/>
      <point x="53" y="360" type="curve" smooth="yes"/>
      <point x="53" y="127"/>
      <point x="223" y="-31"/>
      <point x="425" y="-31" type="curve" smooth="yes"/>
      <point x="721" y="-31"/>
      <point x="897" y="266"/>
      <point x="897" y="483" type="curve" smooth="yes"/>
      <point x="897" y="662"/>
      <point x="779" y="790"/>
      <point x="599" y="790" type="curve" smooth="yes"/>
      <point x="493" y="790"/>
      <point x="357" y="709"/>
      <point x="243" y="568" type="curve"/>
      <point x="245" y="432" type="line"/>
      <point x="336" y="554"/>
      <point x="437" y="639"/>
      <point x="506" y="639" type="curve" smooth="yes"/>
      <point x="565" y="639"/>
      <point x="631" y="607"/>
      <point x="631" y="452" type="curve" smooth="yes"/>
      <point x="631" y="323"/>
      <point x="588" y="106"/>
      <point x="467" y="106" type="curve" smooth="yes"/>
      <point x="386" y="106"/>
      <point x="324" y="174"/>
      <point x="324" y="373" type="curve" smooth="yes"/>
      <point x="324" y="741"/>
      <point x="451" y="1068"/>
    </contour>
  </outline>
</glyph>
<glyph name="DigitSeven" format="2">
  <advance width="968"/>
  <unicode hex="0037"/>
  <anchor x="385" y="-100" name="L"/>
  <anchor x="585" y="1320" name="U"/>
  <outline>
    <contour>
      <point x="1005" y="1167" type="curve"/>
      <point x="979" y="1204" type="line"/>
      <point x="211" y="1204" type="line"/>
      <point x="188" y="1145"/>
      <point x="133" y="930"/>
      <point x="115" y="868" type="curve"/>
      <point x="183" y="840" type="line"/>
      <point x="257" y="995"/>
      <point x="307" y="1005"/>
      <point x="344" y="1005" type="curve" smooth="yes"/>
      <point x="767" y="1005" type="line"/>
      <point x="584" y="665"/>
      <point x="453" y="421"/>
      <point x="181" y="13" type="curve"/>
      <point x="223" y="-30" type="line"/>
      <point x="287" y="-13"/>
      <point x="411" y="21"/>
      <point x="460" y="54" type="curve"/>
      <point x="554" y="267"/>
      <point x="774" y="737"/>
    </contour>
  </outline>
</glyph>
<glyph name="DigitEight" format="2">
  <advance width="968"/>
  <unicode hex="0038"/>
  <anchor x="385" y="-100" name="L"/>
  <anchor x="585" y="1320" name="U"/>
  <outline>
    <contour>
      <point x="933" y="1001" type="curve" smooth="yes"/>
      <point x="933" y="1137"/>
      <point x="839" y="1235"/>
      <point x="615" y="1235" type="curve" smooth="yes"/>
      <point x="375" y="1235"/>
      <point x="169" y="1085"/>
      <point x="169" y="889" type="curve" smooth="yes"/>
      <point x="169" y="544"/>
      <point x="622" y="651"/>
      <point x="622" y="342" type="curve" smooth="yes"/>
      <point x="622" y="223"/>
      <point x="551" y="100"/>
      <point x="444" y="100" type="curve" smooth="yes"/>
      <point x="375" y="100"/>
      <point x="308" y="160"/>
      <point x="308" y="274" type="curve" smooth="yes"/>
      <point x="308" y="418"/>
      <point x="393" y="524"/>
      <point x="496" y="614" type="curve"/>
      <point x="387" y="651" type="line"/>
      <point x="217" y="571"/>
      <point x="33" y="436"/>
      <point x="33" y="250" type="curve" smooth="yes"/>
      <point x="33" y="102"/>
      <point x="147" y="-31"/>
      <point x="411" y="-31" type="curve" smooth="yes"/>
      <point x="659" y="-31"/>
      <point x="896" y="170"/>
      <point x="896" y="397" type="curve" smooth="yes"/>
      <point x="896" y="775"/>
      <point x="417" y="703"/>
      <point x="417" y="940" type="curve" smooth="yes"/>
      <point x="417" y="1022"/>
      <point x="480" y="1111"/>
      <point x="556" y="1111" type="curve" smooth="yes"/>
      <point x="630" y="1111"/>
      <point x="673" y="1063"/>
      <point x="673" y="975" type="curve" smooth="yes"/>
      <point x="673" y="848"/>
      <point x="592" y="770"/>
      <point x="520" y="709" type="curve"/>
      <point x="627" y="666" type="line"/>
      <point x="750" y="741"/>
      <point x="933" y="840"/>
    </contour>
  </outline>
</glyph>
<glyph name="DigitNine" format="2">
  <advance width="968"/>
  <unicode hex="0039"/>
  <anchor x="385" y="-100" name="L"/>
  <anchor x="585" y="1320" name="U"/>
  <outline>
    <contour>
      <point x="942" y="862" type="curve" smooth="yes"/>
      <point x="942" y="1116"/>
      <point x="804" y="1235"/>
      <point x="589" y="1235" type="curve" smooth="yes"/>
      <point x="313" y="1235"/>
      <point x="98" y="970"/>
      <point x="98" y="725" type="curve" smooth="yes"/>
      <point x="98" y="563"/>
      <point x="181" y="414"/>
      <point x="381" y="414" type="curve" smooth="yes"/>
      <point x="548" y="414"/>
      <point x="680" y="550"/>
      <point x="754" y="669" type="curve"/>
      <point x="756" y="814" type="line"/>
      <point x="695" y="701"/>
      <point x="595" y="575"/>
      <point x="474" y="575" type="curve" smooth="yes"/>
      <point x="422" y="575"/>
      <point x="363" y="626"/>
      <point x="363" y="770" type="curve" smooth="yes"/>
      <point x="363" y="918"/>
      <point x="405" y="1100"/>
      <point x="547" y="1100" type="curve" smooth="yes"/>
      <point x="619" y="1100"/>
      <point x="667" y="1051"/>
      <point x="667" y="856" type="curve" smooth="yes"/>
      <point x="666" y="394"/>
      <point x="536" y="159"/>
      <point x="87" y="56" type="curve"/>
      <point x="100" y="-43" type="line"/>
      <point x="657" y="18"/>
      <point x="942" y="406"/>
    </contour>
  </outline>
</glyph>
<glyph name="Colon" format="2">
  <advance width="500"/>
  <unicode hex="003A"/>
  <outline>
    <contour>
      <point x="265" y="649" type="curve" smooth="yes"/>
      <point x="395" y="649"/>
      <point x="463" y="760"/>
      <point x="463" y="852" type="curve" smooth="yes"/>
      <point x="463" y="917"/>
      <point x="420" y="966"/>
      <point x="331" y="966" type="curve" smooth="yes"/>
      <point x="207" y="966"/>
      <point x="131" y="855"/>
      <point x="131" y="768" type="curve" smooth="yes"/>
      <point x="131" y="698"/>
      <point x="172" y="649"/>
    </contour>
    <contour>
      <point x="175" y="-31" type="curve" smooth="yes"/>
      <point x="305" y="-31"/>
      <point x="373" y="80"/>
      <point x="373" y="172" type="curve" smooth="yes"/>
      <point x="373" y="237"/>
      <point x="330" y="286"/>
      <point x="241" y="286" type="curve" smooth="yes"/>
      <point x="117" y="286"/>
      <point x="41" y="175"/>
      <point x="41" y="88" type="curve" smooth="yes"/>
      <point x="41" y="18"/>
      <point x="82" y="-31"/>
    </contour>
  </outline>
</glyph>
<glyph name="EqSgn" format="2">
  <advance width="900"/>
  <unicode hex="003D"/>
  <outline>
    <contour>
      <point x="809" y="456" type="curve"/>
      <point x="782" y="490" type="line"/>
      <point x="103" y="490" type="line"/>
      <point x="88" y="464"/>
      <point x="50" y="398"/>
      <point x="40" y="369" type="curve"/>
      <point x="66" y="335" type="line"/>
      <point x="746" y="335" type="line"/>
      <point x="758" y="357"/>
      <point x="798" y="427"/>
    </contour>
    <contour>
      <point x="850" y="756" type="curve"/>
      <point x="823" y="790" type="line"/>
      <point x="144" y="790" type="line"/>
      <point x="129" y="764"/>
      <point x="91" y="698"/>
      <point x="81" y="669" type="curve"/>
      <point x="107" y="635" type="line"/>
      <point x="787" y="635" type="line"/>
      <point x="799" y="657"/>
      <point x="839" y="727"/>
    </contour>
  </outline>
</glyph>
<glyph name="QstnMrk" format="2">
  <advance width="900"/>
  <unicode hex="003F"/>
  <outline>
    <contour>
      <point x="919" y="1186" type="curve" smooth="yes"/>
      <point x="919" y="1321"/>
      <point x="811" y="1430"/>
      <point x="621" y="1430" type="curve" smooth="yes"/>
      <point x="337" y="1430"/>
      <point x="142" y="1230"/>
      <point x="142" y="1060" type="curve"/>
      <point x="172" y="1019" type="line"/>
      <point x="230" y="1025"/>
      <point x="370" y="1061"/>
      <point x="428" y="1088" type="curve"/>
      <point x="403" y="1215"/>
      <point x="445" y="1315"/>
      <point x="525" y="1315" type="curve" smooth="yes"/>
      <point x="600" y="1315"/>
      <point x="639" y="1230"/>
      <point x="639" y="1128" type="curve" smooth="yes"/>
      <point x="639" y="899"/>
      <point x="357" y="764"/>
      <point x="346" y="515" type="curve" smooth="yes"/>
      <point x="341" y="389" type="line"/>
      <point x="364" y="368" type="line"/>
      <point x="397" y="378"/>
      <point x="454" y="401"/>
      <point x="479" y="419" type="curve"/>
      <point x="490" y="505" type="line" smooth="yes"/>
      <point x="522" y="758"/>
      <point x="919" y="854"/>
    </contour>
    <contour>
      <point x="543" y="172" type="curve" smooth="yes"/>
      <point x="543" y="237"/>
      <point x="500" y="286"/>
      <point x="411" y="286" type="curve" smooth="yes"/>
      <point x="287" y="286"/>
      <point x="211" y="175"/>
      <point x="211" y="88" type="curve" smooth="yes"/>
      <point x="211" y="18"/>
      <point x="252" y="-31"/>
      <point x="345" y="-31" type="curve" smooth="yes"/>
      <point x="475" y="-31"/>
      <point x="543" y="80"/>
    </contour>
  </outline>
</glyph>
<glyph name="LtnCapH" format="2">
  <advance width="1329"/>
  <unicode hex="0048"/>
  <anchor x="245" y="0" name="H"/>
  <anchor x="599" y="-100" name="L"/>
  <anchor x="789" y="1320" name="U"/>
  <outline>
    <contour>
      <point x="1389" y="1260" type="line"/>
      <point x="877" y="1260" type="line"/>
      <point x="866" y="1177" type="line"/>
      <point x="953" y="1158"/>
      <point x="985" y="1131"/>
      <point x="983" y="1115" type="curve" smooth="yes"/>
      <point x="850" y="144" type="line" smooth="yes"/>
      <point x="848" y="126"/>
      <point x="802" y="101"/>
      <point x="716" y="83" type="curve"/>
      <point x="705" y="0" type="line"/>
      <point x="1217" y="0" type="line"/>
      <point x="1228" y="83" type="line"/>
      <point x="1141" y="101"/>
      <point x="1108" y="128"/>
      <point x="1110" y="144" type="curve" smooth="yes"/>
      <point x="1243" y="1115" type="line" smooth="yes"/>
      <point x="1246" y="1134"/>
      <point x="1291" y="1158"/>
      <point x="1378" y="1177" type="curve"/>
    </contour>
    <contour>
      <point x="948" y="725" type="line"/>
      <point x="448" y="725" type="line"/>
      <point x="430" y="595" type="line"/>
      <point x="930" y="595" type="line"/>
    </contour>
    <contour>
      <point x="673" y="1260" type="line"/>
      <point x="161" y="1260" type="line"/>
      <point x="150" y="1177" type="line"/>
      <point x="236" y="1158"/>
      <point x="269" y="1131"/>
      <point x="267" y="1115" type="curve" smooth="yes"/>
      <point x="134" y="144" type="line" smooth="yes"/>
      <point x="132" y="126"/>
      <point x="86" y="101"/>
      <point x="0" y="83" type="curve"/>
      <point x="-11" y="0" type="line"/>
      <point x="501" y="0" type="line"/>
      <point x="512" y="83" type="line"/>
      <point x="423" y="101"/>
      <point x="392" y="128"/>
      <point x="394" y="144" type="curve" smooth="yes"/>
      <point x="527" y="1115" type="line" smooth="yes"/>
      <point x="530" y="1134"/>
      <point x="575" y="1158"/>
      <point x="662" y="1177" type="curve"/>
    </contour>
  </outline>
</glyph>
<glyph name="LtnCapL" format="2">
  <advance width="1018"/>
  <unicode hex="004C"/>
  <anchor x="480" y="0" name="H"/>
  <anchor x="448" y="-100" name="L"/>
  <anchor x="744" y="870" name="R"/>
  <anchor x="602" y="1320" name="U"/>
  <outline>
    <contour>
      <point x="968" y="324" type="curve"/>
      <point x="895" y="352" type="line"/>
      <point x="820" y="196"/>
      <point x="776" y="130"/>
      <point x="662" y="130" type="curve" smooth="yes"/>
      <point x="566" y="130" type="line" smooth="yes"/>
      <point x="430" y="130"/>
      <point x="397" y="157"/>
      <point x="403" y="204" type="curve" smooth="yes"/>
      <point x="528" y="1115" type="line" smooth="yes"/>
      <point x="531" y="1134"/>
      <point x="576" y="1158"/>
      <point x="663" y="1177" type="curve"/>
      <point x="674" y="1260" type="line"/>
      <point x="162" y="1260" type="line"/>
      <point x="151" y="1177" type="line"/>
      <point x="237" y="1158"/>
      <point x="270" y="1131"/>
      <point x="268" y="1115" type="curve" smooth="yes"/>
      <point x="135" y="144" type="line" smooth="yes"/>
      <point x="133" y="126"/>
      <point x="87" y="101"/>
      <point x="1" y="83" type="curve"/>
      <point x="-10" y="0" type="line"/>
      <point x="886" y="0" type="line"/>
      <point x="900" y="39"/>
      <point x="943" y="209"/>
    </contour>
  </outline>
</glyph>
<glyph name="LtnCapR" format="2">
  <advance width="1167"/>
  <unicode hex="0052"/>
  <anchor x="250" y="0" name="H"/>
  <anchor x="473" y="-100" name="L"/>
  <anchor x="658" y="1320" name="U"/>
  <outline>
    <contour>
      <point x="1088" y="971" type="curve" smooth="yes"/>
      <point x="1088" y="1178"/>
      <point x="925" y="1290"/>
      <point x="629" y="1290" type="curve" smooth="yes"/>
      <point x="447" y="1290"/>
      <point x="252" y="1262"/>
      <point x="131" y="1227" type="curve"/>
      <point x="130" y="1125" type="line"/>
      <point x="251" y="1152"/>
      <point x="443" y="1176"/>
      <point x="578" y="1176" type="curve" smooth="yes"/>
      <point x="683" y="1176"/>
      <point x="815" y="1139"/>
      <point x="815" y="942" type="curve" smooth="yes"/>
      <point x="815" y="791"/>
      <point x="695" y="702"/>
      <point x="565" y="702" type="curve" smooth="yes"/>
      <point x="524" y="702"/>
      <point x="491" y="705"/>
      <point x="450" y="722" type="curve"/>
      <point x="432" y="598" type="line"/>
      <point x="475" y="581"/>
      <point x="543" y="578"/>
      <point x="590" y="578" type="curve" smooth="yes"/>
      <point x="889" y="578"/>
      <point x="1088" y="797"/>
    </contour>
    <contour>
      <point x="1187" y="119" type="curve"/>
      <point x="1159" y="197" type="line"/>
      <point x="1061" y="168"/>
      <point x="1021" y="162"/>
      <point x="986" y="224" type="curve" smooth="yes"/>
      <point x="738" y="663" type="line"/>
      <point x="565" y="612" type="line"/>
      <point x="742" y="117" type="line" smooth="yes"/>
      <point x="783" y="3"/>
      <point x="828" y="-14"/>
      <point x="874" y="-14" type="curve" smooth="yes"/>
      <point x="910" y="-14"/>
      <point x="1083" y="49"/>
    </contour>
    <contour>
      <point x="545" y="1230" type="line"/>
      <point x="279" y="1230" type="line"/>
      <point x="132" y="144" type="line" smooth="yes"/>
      <point x="130" y="126"/>
      <point x="85" y="101"/>
      <point x="1" y="83" type="curve"/>
      <point x="-10" y="0" type="line"/>
      <point x="510" y="0" type="line"/>
      <point x="521" y="83" type="line"/>
      <point x="437" y="101"/>
      <point x="394" y="128"/>
      <point x="398" y="144" type="curve"/>
    </contour>
  </outline>
</glyph>
<glyph name="LtnCapS" format="2">
  <advance width="1000"/>
  <unicode hex="0053"/>
  <anchor x="438" y="0" name="H"/>
  <anchor x="424" y="-100" name="L"/>
  <anchor x="608" y="1320" name="U"/>
  <outline>
    <contour>
      <point x="992" y="1198" type="curve" smooth="yes"/>
      <point x="928" y="1247"/>
      <point x="815" y="1290"/>
      <point x="679" y="1290" type="curve" smooth="yes"/>
      <point x="381" y="1290"/>
      <point x="188" y="1104"/>
      <point x="188" y="928" type="curve" smooth="yes"/>
      <point x="188" y="801"/>
      <point x="233" y="705"/>
      <point x="409" y="621" type="curve" smooth="yes"/>
      <point x="611" y="525"/>
      <point x="689" y="449"/>
      <point x="689" y="330" type="curve" smooth="yes"/>
      <point x="689" y="194"/>
      <point x="593" y="116"/>
      <point x="475" y="116" type="curve" smooth="yes"/>
      <point x="299" y="116"/>
      <point x="220" y="334"/>
      <point x="174" y="334" type="curve" smooth="yes"/>
      <point x="129" y="334"/>
      <point x="17" y="167"/>
      <point x="17" y="125" type="curve" smooth="yes"/>
      <point x="17" y="45"/>
      <point x="250" y="-31"/>
      <point x="398" y="-31" type="curve" smooth="yes"/>
      <point x="702" y="-31"/>
      <point x="940" y="180"/>
      <point x="940" y="430" type="curve" smooth="yes"/>
      <point x="940" y="580"/>
      <point x="843" y="672"/>
      <point x="633" y="780" type="curve" smooth="yes"/>
      <point x="456" y="871"/>
      <point x="427" y="936"/>
      <point x="427" y="995" type="curve" smooth="yes"/>
      <point x="427" y="1083"/>
      <point x="483" y="1166"/>
      <point x="617" y="1166" type="curve" smooth="yes"/>
      <point x="697" y="1166"/>
      <point x="782" y="1112"/>
      <point x="811" y="985" type="curve"/>
      <point x="880" y="979" type="line"/>
      <point x="909" y="995"/>
      <point x="1009" y="1185"/>
    </contour>
  </outline>
</glyph>
<glyph name="LtnCapT" format="2">
  <advance width="1123"/>
  <unicode hex="0054"/>
  <anchor x="499" y="0" name="H"/>
  <anchor x="485" y="-100" name="L"/>
  <anchor x="680" y="1320" name="U"/>
  <outline>
    <contour>
      <point x="1218" y="1225" type="curve"/>
      <point x="1186" y="1260" type="line"/>
      <point x="799" y="1260" type="line"/>
      <point x="754" y="1130" type="line"/>
      <point x="1011" y="1130" type="line" smooth="yes"/>
      <point x="1064" y="1130"/>
      <point x="1053" y="1044"/>
      <point x="1061" y="920" type="curve"/>
      <point x="1140" y="920" type="line"/>
      <point x="1166" y="1004"/>
      <point x="1207" y="1157"/>
    </contour>
    <contour>
      <point x="559" y="1130" type="line"/>
      <point x="569" y="1260" type="line"/>
      <point x="172" y="1260" type="line"/>
      <point x="150" y="1190"/>
      <point x="105" y="1017"/>
      <point x="88" y="939" type="curve"/>
      <point x="161" y="910" type="line"/>
      <point x="239" y="1066"/>
      <point x="273" y="1130"/>
      <point x="311" y="1130" type="curve" smooth="yes"/>
    </contour>
    <contour>
      <point x="794" y="83" type="line"/>
      <point x="683" y="108"/>
      <point x="659" y="137"/>
      <point x="661" y="155" type="curve" smooth="yes"/>
      <point x="795" y="1137" type="line" smooth="yes"/>
      <point x="798" y="1156"/>
      <point x="847" y="1168"/>
      <point x="934" y="1177" type="curve"/>
      <point x="945" y="1260" type="line"/>
      <point x="435" y="1260" type="line"/>
      <point x="424" y="1177" type="line"/>
      <point x="510" y="1168"/>
      <point x="536" y="1153"/>
      <point x="534" y="1137" type="curve" smooth="yes"/>
      <point x="400" y="155" type="line" smooth="yes"/>
      <point x="397" y="136"/>
      <point x="365" y="108"/>
      <point x="247" y="83" type="curve"/>
      <point x="236" y="0" type="line"/>
      <point x="783" y="0" type="line"/>
    </contour>
  </outline>
</glyph>
<glyph name="LtnCapZ" format="2">
  <advance width="1078"/>
  <unicode hex="005A"/>
  <anchor x="493" y="-100" name="L"/>
  <anchor x="657" y="1320" name="U"/>
  <outline>
    <contour>
      <point x="1100" y="1207" type="line"/>
      <point x="1075" y="1260" type="line"/>
      <point x="437" y="1260" type="line" smooth="yes"/>
      <point x="364" y="1260"/>
      <point x="328" y="1260"/>
      <point x="262" y="1276" type="curve"/>
      <point x="174" y="895" type="line"/>
      <point x="261" y="873" type="line"/>
      <point x="307" y="1012"/>
      <point x="388" y="1120"/>
      <point x="428" y="1120" type="curve" smooth="yes"/>
      <point x="771" y="1120" type="line"/>
      <point x="11" y="55" type="line"/>
      <point x="40" y="0" type="line"/>
      <point x="934" y="0" type="line"/>
      <point x="945" y="78"/>
      <point x="980" y="287"/>
      <point x="996" y="373" type="curve"/>
      <point x="910" y="397" type="line"/>
      <point x="840" y="233"/>
      <point x="801" y="140"/>
      <point x="748" y="140" type="curve" smooth="yes"/>
      <point x="345" y="140" type="line"/>
    </contour>
  </outline>
</glyph>
<glyph name="ReverseSolidus" format="2">
  <advance width="869"/>
  <unicode hex="005C"/>
  <outline>
    <contour>
      <point x="742" y="-301" type="line"/>
      <point x="358" y="1530" type="line"/>
      <point x="325" y="1553"/>
      <point x="219" y="1589"/>
      <point x="182" y="1599" type="curve"/>
      <point x="135" y="1567" type="line"/>
      <point x="521" y="-265" type="line"/>
      <point x="541" y="-283"/>
      <point x="668" y="-326"/>
      <point x="697" y="-336" type="curve"/>
    </contour>
  </outline>
</glyph>
<glyph name="LowLine" format="2">
  <advance width="744"/>
  <unicode hex="005F"/>
  <outline>
    <contour>
      <point x="789" y="-166" type="curve"/>
      <point x="761" y="-131" type="line"/>
      <point x="16" y="-131" type="line"/>
      <point x="-1" y="-158"/>
      <point x="-37" y="-223"/>
      <point x="-45" y="-249" type="curve"/>
      <point x="-19" y="-286" type="line"/>
      <point x="730" y="-286" type="line"/>
      <point x="743" y="-261"/>
      <point x="781" y="-194"/>
    </contour>
  </outline>
</glyph>
<glyph name="GraveAccent" format="2">
  <advance width="606"/>
  <unicode hex="0060"/>
  <anchor x="527" y="1370" name="U"/>
  <outline>
    <contour>
      <point x="581" y="1057" type="curve"/>
      <point x="462" y="1469" type="line"/>
      <point x="428" y="1469"/>
      <point x="263" y="1434"/>
      <point x="231" y="1428" type="curve"/>
      <point x="189" y="1372" type="line"/>
      <point x="489" y="1016" type="line"/>
      <point x="513" y="1022"/>
      <point x="554" y="1041"/>
    </contour>
  </outline>
</glyph>
<glyph name="LtnSmE" format="2">
  <advance width="885"/>
  <unicode hex="0065"/>
  <anchor x="398" y="0" name="H"/>
  <anchor x="384" y="-100" name="L"/>
  <anchor x="448" y="0" name="O"/>
  <anchor x="1062" y="870" name="R"/>
  <anchor x="550" y="1000" name="U"/>
  <outline>
    <contour>
      <point x="850" y="760" type="curve" smooth="yes"/>
      <point x="850" y="846"/>
      <point x="776" y="936"/>
      <point x="612" y="936" type="curve" smooth="yes"/>
      <point x="500" y="936"/>
      <point x="372" y="867"/>
      <point x="312" y="816" type="curve" smooth="yes"/>
      <point x="148" y="676"/>
      <point x="43" y="512"/>
      <point x="43" y="303" type="curve" smooth="yes"/>
      <point x="43" y="51"/>
      <point x="227" y="-41"/>
      <point x="345" y="-41" type="curve" smooth="yes"/>
      <point x="471" y="-41"/>
      <point x="608" y="40"/>
      <point x="827" y="230" type="curve"/>
      <point x="823" y="240"/>
      <point x="791" y="303"/>
      <point x="776" y="311" type="curve"/>
      <point x="615" y="182"/>
      <point x="504" y="126"/>
      <point x="447" y="126" type="curve" smooth="yes"/>
      <point x="369" y="126"/>
      <point x="305" y="233"/>
      <point x="305" y="407" type="curve" smooth="yes"/>
      <point x="305" y="554"/>
      <point x="337" y="638"/>
      <point x="401" y="722" type="curve" smooth="yes"/>
      <point x="433" y="764"/>
      <point x="487" y="791"/>
      <point x="508" y="791" type="curve" smooth="yes"/>
      <point x="543" y="791"/>
      <point x="570" y="759"/>
      <point x="570" y="705" type="curve" smooth="yes"/>
      <point x="570" y="606"/>
      <point x="533" y="540"/>
      <point x="183" y="391" type="curve"/>
      <point x="190" y="277" type="line"/>
      <point x="786" y="466"/>
      <point x="850" y="643"/>
    </contour>
  </outline>
</glyph>
<glyph name="LtnSmI" format="2">
  <advance width="589"/>
  <unicode hex="0069"/>
  <anchor x="250" y="0" name="H"/>
  <anchor x="248" y="-100" name="L"/>
  <anchor x="280" y="0" name="O"/>
  <anchor x="771" y="870" name="R"/>
  <anchor x="399" y="1000" name="U"/>
  <outline>
    <contour>
      <point x="587" y="1262" type="curve" smooth="yes"/>
      <point x="587" y="1307"/>
      <point x="553" y="1353"/>
      <point x="472" y="1353" type="curve" smooth="yes"/>
      <point x="348" y="1353"/>
      <point x="279" y="1247"/>
      <point x="279" y="1176" type="curve" smooth="yes"/>
      <point x="279" y="1131"/>
      <point x="313" y="1086"/>
      <point x="394" y="1086" type="curve" smooth="yes"/>
      <point x="520" y="1086"/>
      <point x="587" y="1188"/>
    </contour>
    <contour>
      <point x="565" y="122" type="curve"/>
      <point x="545" y="199" type="line"/>
      <point x="490" y="176"/>
      <point x="467" y="166"/>
      <point x="426" y="166" type="curve" smooth="yes"/>
      <point x="404" y="166"/>
      <point x="396" y="184"/>
      <point x="396" y="225" type="curve" smooth="yes"/>
      <point x="396" y="342"/>
      <point x="490" y="735"/>
      <point x="490" y="852" type="curve" smooth="yes"/>
      <point x="490" y="913"/>
      <point x="466" y="936"/>
      <point x="429" y="936" type="curve" smooth="yes"/>
      <point x="374" y="936"/>
      <point x="162" y="851"/>
      <point x="50" y="800" type="curve"/>
      <point x="69" y="723" type="line"/>
      <point x="69" y="723"/>
      <point x="137" y="747"/>
      <point x="159" y="747" type="curve" smooth="yes"/>
      <point x="184" y="747"/>
      <point x="200" y="741"/>
      <point x="200" y="680" type="curve" smooth="yes"/>
      <point x="200" y="582"/>
      <point x="110" y="195"/>
      <point x="110" y="76" type="curve" smooth="yes"/>
      <point x="110" y="4"/>
      <point x="149" y="-41"/>
      <point x="194" y="-41" type="curve" smooth="yes"/>
      <point x="273" y="-41"/>
      <point x="440" y="48"/>
    </contour>
  </outline>
</glyph>
<glyph name="LtnSmL" format="2">
  <advance width="569"/>
  <unicode hex="006C"/>
  <anchor x="220" y="0" name="H"/>
  <anchor x="202" y="-100" name="L"/>
  <anchor x="666" y="870" name="R"/>
  <anchor x="447" y="1640" name="U"/>
  <outline>
    <contour>
      <point x="544" y="122" type="curve"/>
      <point x="527" y="199" type="line"/>
      <point x="468" y="176"/>
      <point x="439" y="166"/>
      <point x="408" y="166" type="curve" smooth="yes"/>
      <point x="387" y="166"/>
      <point x="373" y="180"/>
      <point x="373" y="225" type="curve" smooth="yes"/>
      <point x="373" y="407"/>
      <point x="537" y="1231"/>
      <point x="537" y="1438" type="curve" smooth="yes"/>
      <point x="537" y="1499"/>
      <point x="513" y="1520"/>
      <point x="476" y="1520" type="curve" smooth="yes"/>
      <point x="421" y="1520"/>
      <point x="195" y="1435"/>
      <point x="82" y="1385" type="curve"/>
      <point x="102" y="1306" type="line"/>
      <point x="102" y="1306"/>
      <point x="174" y="1333"/>
      <point x="196" y="1333" type="curve" smooth="yes"/>
      <point x="221" y="1333"/>
      <point x="247" y="1327"/>
      <point x="247" y="1266" type="curve" smooth="yes"/>
      <point x="247" y="1079"/>
      <point x="85" y="211"/>
      <point x="85" y="78" type="curve" smooth="yes"/>
      <point x="85" y="0"/>
      <point x="120" y="-41"/>
      <point x="157" y="-41" type="curve" smooth="yes"/>
      <point x="245" y="-41"/>
      <point x="413" y="40"/>
    </contour>
  </outline>
</glyph>
<glyph name="LtnSmO" format="2">
  <advance width="924"/>
  <unicode hex="006F"/>
  <anchor x="405" y="0" name="H"/>
  <anchor x="379" y="-100" name="L"/>
  <anchor x="454" y="0" name="O"/>
  <anchor x="945" y="870" name="R"/>
  <anchor x="530" y="1000" name="U"/>
  <outline>
    <contour>
      <point x="886" y="559" type="curve" smooth="yes"/>
      <point x="886" y="780"/>
      <point x="761" y="936"/>
      <point x="552" y="936" type="curve" smooth="yes"/>
      <point x="460" y="936"/>
      <point x="352" y="893"/>
      <point x="282" y="840" type="curve" smooth="yes"/>
      <point x="103" y="704"/>
      <point x="28" y="535"/>
      <point x="28" y="344" type="curve" smooth="yes"/>
      <point x="28" y="125"/>
      <point x="160" y="-41"/>
      <point x="376" y="-41" type="curve" smooth="yes"/>
      <point x="456" y="-41"/>
      <point x="567" y="6"/>
      <point x="637" y="63" type="curve" smooth="yes"/>
      <point x="786" y="186"/>
      <point x="886" y="381"/>
    </contour>
    <contour>
      <point x="623" y="473" type="curve" smooth="yes"/>
      <point x="623" y="309"/>
      <point x="578" y="102"/>
      <point x="444" y="102" type="curve" smooth="yes"/>
      <point x="371" y="102"/>
      <point x="292" y="250"/>
      <point x="292" y="428" type="curve" smooth="yes"/>
      <point x="292" y="598"/>
      <point x="340" y="789"/>
      <point x="483" y="789" type="curve" smooth="yes"/>
      <point x="550" y="789"/>
      <point x="623" y="676"/>
    </contour>
  </outline>
</glyph>
<glyph name="LtnSmQ" format="2">
  <advance width="973"/>
  <unicode hex="0071"/>
  <anchor x="242" y="-100" name="L"/>
  <anchor x="1074" y="870" name="R"/>
  <anchor x="552" y="1000" name="U"/>
  <outline>
    <contour>
      <point x="904" y="808" type="curve"/>
      <point x="859" y="814"/>
      <point x="742" y="936"/>
      <point x="632" y="936" type="curve" smooth="yes"/>
      <point x="548" y="936"/>
      <point x="408" y="891"/>
      <point x="334" y="842" type="curve" smooth="yes"/>
      <point x="146" y="719"/>
      <point x="33" y="516"/>
      <point x="33" y="305" type="curve" smooth="yes"/>
      <point x="33" y="55"/>
      <point x="168" y="-41"/>
      <point x="266" y="-41" type="curve" smooth="yes"/>
      <point x="353" y="-41"/>
      <point x="430" y="6"/>
      <point x="564" y="162" type="curve"/>
      <point x="599" y="389" type="line"/>
      <point x="477" y="221"/>
      <point x="410" y="176"/>
      <point x="378" y="176" type="curve" smooth="yes"/>
      <point x="330" y="176"/>
      <point x="282" y="237"/>
      <point x="282" y="379" type="curve" smooth="yes"/>
      <point x="282" y="537"/>
      <point x="360" y="781"/>
      <point x="522" y="781" type="curve" smooth="yes"/>
      <point x="603" y="781"/>
      <point x="713" y="611"/>
      <point x="748" y="611" type="curve" smooth="yes"/>
      <point x="780" y="611"/>
      <point x="847" y="769"/>
    </contour>
    <contour>
      <point x="970" y="861" type="curve"/>
      <point x="932" y="936" type="line"/>
      <point x="842" y="899"/>
      <point x="656" y="821"/>
      <point x="646" y="760" type="curve" smooth="yes"/>
      <point x="568" y="293"/>
      <point x="469" y="-308"/>
      <point x="448" y="-461" type="curve"/>
      <point x="493" y="-500" type="line"/>
      <point x="526" y="-484"/>
      <point x="720" y="-409"/>
      <point x="756" y="-397" type="curve"/>
      <point x="713" y="-309"/>
      <point x="797" y="189"/>
      <point x="886" y="720" type="curve" smooth="yes"/>
      <point x="900" y="801"/>
      <point x="920" y="823"/>
    </contour>
  </outline>
</glyph>
<glyph name="LtnSmR" format="2">
  <advance width="872"/>
  <unicode hex="0072"/>
  <anchor x="195" y="0" name="H"/>
  <anchor x="237" y="-100" name="L"/>
  <anchor x="533" y="1000" name="U"/>
  <outline>
    <contour>
      <point x="933" y="850" type="curve"/>
      <point x="874" y="874"/>
      <point x="787" y="936"/>
      <point x="740" y="936" type="curve" smooth="yes"/>
      <point x="654" y="936"/>
      <point x="567" y="891"/>
      <point x="438" y="698" type="curve"/>
      <point x="446" y="748"/>
      <point x="453" y="813"/>
      <point x="453" y="841" type="curve" smooth="yes"/>
      <point x="453" y="915"/>
      <point x="441" y="936"/>
      <point x="404" y="936" type="curve" smooth="yes"/>
      <point x="351" y="936"/>
      <point x="134" y="851"/>
      <point x="21" y="800" type="curve"/>
      <point x="40" y="723" type="line"/>
      <point x="60" y="730"/>
      <point x="114" y="747"/>
      <point x="133" y="747" type="curve" smooth="yes"/>
      <point x="155" y="747"/>
      <point x="174" y="741"/>
      <point x="174" y="680" type="curve" smooth="yes"/>
      <point x="174" y="559"/>
      <point x="130" y="284"/>
      <point x="71" y="0" type="curve"/>
      <point x="114" y="-41" type="line"/>
      <point x="147" y="-23"/>
      <point x="322" y="56"/>
      <point x="367" y="75" type="curve"/>
      <point x="363" y="181"/>
      <point x="383" y="283"/>
      <point x="412" y="383" type="curve" smooth="yes"/>
      <point x="468" y="575"/>
      <point x="570" y="694"/>
      <point x="640" y="694" type="curve" smooth="yes"/>
      <point x="679" y="694"/>
      <point x="727" y="615"/>
      <point x="777" y="615" type="curve" smooth="yes"/>
      <point x="803" y="615"/>
      <point x="900" y="807"/>
    </contour>
  </outline>
</glyph>
<glyph name="LtnSmS" format="2">
  <advance width="811"/>
  <unicode hex="0073"/>
  <anchor x="340" y="0" name="H"/>
  <anchor x="336" y="-100" name="L"/>
  <anchor x="487" y="1000" name="U"/>
  <outline>
    <contour>
      <point x="818" y="844" type="curve"/>
      <point x="727" y="859"/>
      <point x="648" y="936"/>
      <point x="503" y="936" type="curve" smooth="yes"/>
      <point x="335" y="936"/>
      <point x="103" y="821"/>
      <point x="103" y="653" type="curve" smooth="yes"/>
      <point x="103" y="567"/>
      <point x="140" y="489"/>
      <point x="281" y="416" type="curve" smooth="yes"/>
      <point x="381" y="364"/>
      <point x="484" y="300"/>
      <point x="484" y="213" type="curve" smooth="yes"/>
      <point x="484" y="141"/>
      <point x="436" y="95"/>
      <point x="352" y="95" type="curve" smooth="yes"/>
      <point x="186" y="95"/>
      <point x="135" y="323"/>
      <point x="98" y="323" type="curve" smooth="yes"/>
      <point x="70" y="323"/>
      <point x="-24" y="157"/>
      <point x="-24" y="118" type="curve" smooth="yes"/>
      <point x="-24" y="61"/>
      <point x="107" y="-41"/>
      <point x="292" y="-41" type="curve" smooth="yes"/>
      <point x="466" y="-41"/>
      <point x="735" y="104"/>
      <point x="735" y="289" type="curve" smooth="yes"/>
      <point x="735" y="430"/>
      <point x="625" y="502"/>
      <point x="516" y="559" type="curve" smooth="yes"/>
      <point x="409" y="615"/>
      <point x="348" y="652"/>
      <point x="348" y="719" type="curve" smooth="yes"/>
      <point x="348" y="775"/>
      <point x="376" y="812"/>
      <point x="450" y="812" type="curve" smooth="yes"/>
      <point x="548" y="812"/>
      <point x="617" y="671"/>
      <point x="661" y="671" type="curve" smooth="yes"/>
      <point x="690" y="671"/>
      <point x="775" y="784"/>
    </contour>
  </outline>
</glyph>
<glyph name="LtnSmT" format="2">
  <advance width="714"/>
  <unicode hex="0074"/>
  <anchor x="295" y="0" name="H"/>
  <anchor x="281" y="-100" name="L"/>
  <anchor x="659" y="870" name="R"/>
  <anchor x="466" y="1230" name="U"/>
  <outline>
    <contour>
      <point x="750" y="867" type="curve"/>
      <point x="720" y="905" type="line"/>
      <point x="165" y="905" type="line"/>
      <point x="39" y="816" type="line"/>
      <point x="64" y="775" type="line"/>
      <point x="465" y="775" type="line" smooth="yes"/>
      <point x="545" y="775"/>
      <point x="592" y="767"/>
      <point x="608" y="730" type="curve"/>
      <point x="633" y="744"/>
      <point x="723" y="830"/>
    </contour>
    <contour>
      <point x="690" y="167" type="curve"/>
      <point x="660" y="254" type="line"/>
      <point x="560" y="209"/>
      <point x="505" y="190"/>
      <point x="458" y="190" type="curve" smooth="yes"/>
      <point x="421" y="190"/>
      <point x="396" y="219"/>
      <point x="396" y="301" type="curve" smooth="yes"/>
      <point x="396" y="328"/>
      <point x="400" y="395"/>
      <point x="408" y="446" type="curve" smooth="yes"/>
      <point x="490" y="963" type="line" smooth="yes"/>
      <point x="516" y="1128"/>
      <point x="541" y="1151"/>
      <point x="541" y="1151" type="curve"/>
      <point x="513" y="1176" type="line"/>
      <point x="292" y="1074" type="line"/>
      <point x="257" y="1047"/>
      <point x="239" y="1049"/>
      <point x="223" y="940" type="curve"/>
      <point x="126" y="332" type="line" smooth="yes"/>
      <point x="114" y="258"/>
      <point x="112" y="211"/>
      <point x="112" y="160" type="curve" smooth="yes"/>
      <point x="112" y="43"/>
      <point x="211" y="-41"/>
      <point x="297" y="-41" type="curve" smooth="yes"/>
      <point x="376" y="-41"/>
      <point x="539" y="46"/>
    </contour>
  </outline>
</glyph>
<glyph name="LtnSmW" format="2">
  <advance width="1420"/>
  <unicode hex="0077"/>
  <anchor x="667" y="-100" name="L"/>
  <anchor x="818" y="1000" name="U"/>
  <outline>
    <contour>
      <point x="1428" y="860" type="curve" smooth="yes"/>
      <point x="1428" y="926"/>
      <point x="1389" y="936"/>
      <point x="1344" y="936" type="curve" smooth="yes"/>
      <point x="1276" y="936"/>
      <point x="1140" y="890"/>
      <point x="1038" y="826" type="curve"/>
      <point x="1066" y="749" type="line"/>
      <point x="1095" y="758"/>
      <point x="1133" y="764"/>
      <point x="1152" y="764" type="curve" smooth="yes"/>
      <point x="1187" y="764"/>
      <point x="1207" y="747"/>
      <point x="1207" y="719" type="curve" smooth="yes"/>
      <point x="1207" y="646"/>
      <point x="1122" y="486"/>
      <point x="1004" y="277" type="curve"/>
      <point x="996" y="359"/>
      <point x="973" y="475"/>
      <point x="953" y="600" type="curve"/>
      <point x="932" y="721"/>
      <point x="881" y="936"/>
      <point x="865" y="936" type="curve" smooth="yes"/>
      <point x="819" y="936"/>
      <point x="702" y="859"/>
      <point x="643" y="804" type="curve"/>
      <point x="639" y="706"/>
      <point x="567" y="495"/>
      <point x="460" y="288" type="curve"/>
      <point x="454" y="388"/>
      <point x="414" y="722"/>
      <point x="397" y="799" type="curve" smooth="yes"/>
      <point x="376" y="895"/>
      <point x="361" y="936"/>
      <point x="324" y="936" type="curve" smooth="yes"/>
      <point x="279" y="936"/>
      <point x="100" y="853"/>
      <point x="-16" y="790" type="curve"/>
      <point x="8" y="713" type="line"/>
      <point x="8" y="713"/>
      <point x="84" y="737"/>
      <point x="107" y="737" type="curve" smooth="yes"/>
      <point x="131" y="737"/>
      <point x="162" y="727"/>
      <point x="178" y="655" type="curve" smooth="yes"/>
      <point x="193" y="591"/>
      <point x="230" y="228"/>
      <point x="253" y="0" type="curve"/>
      <point x="295" y="-41" type="line"/>
      <point x="322" y="-29"/>
      <point x="481" y="58"/>
      <point x="504" y="70" type="curve"/>
      <point x="623" y="284"/>
      <point x="686" y="432"/>
      <point x="716" y="530" type="curve"/>
      <point x="751" y="407"/>
      <point x="778" y="225"/>
      <point x="807" y="0" type="curve"/>
      <point x="850" y="-41" type="line"/>
      <point x="876" y="-29"/>
      <point x="1016" y="46"/>
      <point x="1039" y="58" type="curve"/>
      <point x="1346" y="613"/>
      <point x="1428" y="754"/>
    </contour>
  </outline>
</glyph>
<glyph name="LftCurlyBrac" format="2">
  <advance width="704"/>
  <unicode hex="007B"/>
  <outline>
    <contour>
      <point x="804" y="1513" type="curve"/>
      <point x="773" y="1600" type="line"/>
      <point x="547" y="1510"/>
      <point x="360" y="1395"/>
      <point x="335" y="1215" type="curve" smooth="yes"/>
      <point x="315" y="1071"/>
      <point x="344" y="1005"/>
      <point x="325" y="863" type="curve" smooth="yes"/>
      <point x="311" y="763"/>
      <point x="244" y="694"/>
      <point x="102" y="653" type="curve"/>
      <point x="105" y="560" type="line"/>
      <point x="142" y="566"/>
      <point x="132" y="566"/>
      <point x="167" y="566" type="curve" smooth="yes"/>
      <point x="240" y="566"/>
      <point x="279" y="530"/>
      <point x="264" y="422" type="curve" smooth="yes"/>
      <point x="244" y="276"/>
      <point x="194" y="189"/>
      <point x="176" y="52" type="curve"/>
      <point x="149" y="-141"/>
      <point x="281" y="-225"/>
      <point x="503" y="-315" type="curve"/>
      <point x="557" y="-214" type="line"/>
      <point x="437" y="-136"/>
      <point x="424" y="-74"/>
      <point x="438" y="23" type="curve"/>
      <point x="453" y="136"/>
      <point x="506" y="245"/>
      <point x="525" y="385" type="curve" smooth="yes"/>
      <point x="545" y="532"/>
      <point x="497" y="629"/>
      <point x="376" y="653" type="curve"/>
      <point x="487" y="702"/>
      <point x="584" y="812"/>
      <point x="599" y="923" type="curve" smooth="yes"/>
      <point x="617" y="1058"/>
      <point x="590" y="1137"/>
      <point x="609" y="1272" type="curve" smooth="yes"/>
      <point x="621" y="1360"/>
      <point x="698" y="1448"/>
    </contour>
  </outline>
</glyph>
<glyph name="RtCurlyBrac" format="2">
  <advance width="702"/>
  <unicode hex="007D"/>
  <outline>
    <contour>
      <point x="618" y="631" type="curve"/>
      <point x="615" y="724" type="line"/>
      <point x="578" y="718"/>
      <point x="588" y="718"/>
      <point x="553" y="718" type="curve" smooth="yes"/>
      <point x="480" y="718"/>
      <point x="441" y="754"/>
      <point x="456" y="862" type="curve" smooth="yes"/>
      <point x="476" y="1008"/>
      <point x="525" y="1095"/>
      <point x="544" y="1232" type="curve" smooth="yes"/>
      <point x="571" y="1425"/>
      <point x="439" y="1509"/>
      <point x="217" y="1599" type="curve"/>
      <point x="163" y="1498" type="line"/>
      <point x="283" y="1420"/>
      <point x="296" y="1358"/>
      <point x="282" y="1261" type="curve"/>
      <point x="267" y="1148"/>
      <point x="214" y="1039"/>
      <point x="195" y="899" type="curve" smooth="yes"/>
      <point x="175" y="752"/>
      <point x="224" y="655"/>
      <point x="344" y="631" type="curve"/>
      <point x="233" y="582"/>
      <point x="136" y="472"/>
      <point x="121" y="361" type="curve" smooth="yes"/>
      <point x="102" y="226"/>
      <point x="130" y="147"/>
      <point x="111" y="12" type="curve" smooth="yes"/>
      <point x="99" y="-76"/>
      <point x="22" y="-164"/>
      <point x="-82" y="-229" type="curve"/>
      <point x="-53" y="-316" type="line"/>
      <point x="173" y="-226"/>
      <point x="360" y="-111"/>
      <point x="385" y="69" type="curve" smooth="yes"/>
      <point x="405" y="213"/>
      <point x="376" y="279"/>
      <point x="395" y="421" type="curve" smooth="yes"/>
      <point x="409" y="521"/>
      <point x="476" y="590"/>
    </contour>
  </outline>
</glyph>
<glyph name="Tilde" format="2">
  <advance width="1005"/>
  <unicode hex="007E"/>
  <outline>
    <contour>
      <point x="1000" y="780" type="curve"/>
      <point x="928" y="819" type="line"/>
      <point x="851" y="700"/>
      <point x="801" y="659"/>
      <point x="742" y="659" type="curve" smooth="yes"/>
      <point x="652" y="659"/>
      <point x="545" y="819"/>
      <point x="420" y="819" type="curve" smooth="yes"/>
      <point x="304" y="819"/>
      <point x="154" y="650"/>
      <point x="75" y="499" type="curve"/>
      <point x="144" y="455" type="line"/>
      <point x="219" y="566"/>
      <point x="267" y="617"/>
      <point x="328" y="617" type="curve" smooth="yes"/>
      <point x="425" y="617"/>
      <point x="535" y="457"/>
      <point x="652" y="457" type="curve" smooth="yes"/>
      <point x="769" y="457"/>
      <point x="919" y="629"/>
    </contour>
  </outline>
</glyph>
<glyph name="InvExclamationMrk" format="2">
  <advance width="500"/>
  <unicode hex="00A1"/>
  <outline>
    <contour>
      <point x="291" y="508" type="line"/>
      <point x="266" y="529" type="line"/>
      <point x="235" y="519"/>
      <point x="179" y="498"/>
      <point x="152" y="480" type="curve"/>
      <point x="-62" y="-502" type="line"/>
      <point x="-18" y="-537" type="line"/>
      <point x="35" y="-518"/>
      <point x="185" y="-448"/>
      <point x="246" y="-415" type="curve"/>
    </contour>
    <contour>
      <point x="94" y="732" type="curve" smooth="yes"/>
      <point x="94" y="662"/>
      <point x="135" y="613"/>
      <point x="228" y="613" type="curve" smooth="yes"/>
      <point x="358" y="613"/>
      <point x="426" y="724"/>
      <point x="426" y="816" type="curve" smooth="yes"/>
      <point x="426" y="881"/>
      <point x="383" y="930"/>
      <point x="294" y="930" type="curve" smooth="yes"/>
      <point x="170" y="930"/>
      <point x="94" y="819"/>
    </contour>
  </outline>
</glyph>
<glyph name="CentSgn" format="2">
  <advance width="968"/>
  <unicode hex="00A2"/>
  <outline>
    <contour>
      <point x="984" y="936" type="curve"/>
      <point x="923" y="950"/>
      <point x="808" y="1055"/>
      <point x="681" y="1055" type="curve" smooth="yes"/>
      <point x="549" y="1055"/>
      <point x="464" y="1020"/>
      <point x="391" y="973" type="curve"/>
      <point x="194" y="842"/>
      <point x="84" y="651"/>
      <point x="84" y="471" type="curve" smooth="yes"/>
      <point x="84" y="190"/>
      <point x="286" y="111"/>
      <point x="407" y="111" type="curve" smooth="yes"/>
      <point x="565" y="111"/>
      <point x="659" y="184"/>
      <point x="868" y="375" type="curve"/>
      <point x="862" y="387"/>
      <point x="823" y="441"/>
      <point x="812" y="458" type="curve"/>
      <point x="669" y="339"/>
      <point x="596" y="275"/>
      <point x="497" y="275" type="curve" smooth="yes"/>
      <point x="425" y="275"/>
      <point x="340" y="336"/>
      <point x="340" y="510" type="curve" smooth="yes"/>
      <point x="340" y="694"/>
      <point x="436" y="912"/>
      <point x="579" y="912" type="curve" smooth="yes"/>
      <point x="674" y="912"/>
      <point x="722" y="731"/>
      <point x="761" y="731" type="curve" smooth="yes"/>
      <point x="804" y="731"/>
      <point x="937" y="895"/>
    </contour>
    <contour>
      <point x="671" y="1194" type="line"/>
      <point x="651" y="1217" type="line"/>
      <point x="614" y="1206"/>
      <point x="578" y="1180"/>
      <point x="543" y="1156" type="curve"/>
      <point x="380" y="-27" type="line"/>
      <point x="399" y="-49" type="line"/>
      <point x="430" y="-39"/>
      <point x="484" y="-9"/>
      <point x="508" y="12" type="curve"/>
    </contour>
  </outline>
</glyph>
<glyph name="PoundSgn" format="2">
  <advance width="968"/>
  <unicode hex="00A3"/>
  <outline>
    <contour>
      <point x="961" y="1165" type="curve"/>
      <point x="855" y="1228"/>
      <point x="742" y="1235"/>
      <point x="677" y="1235" type="curve" smooth="yes"/>
      <point x="382" y="1235"/>
      <point x="157" y="955"/>
      <point x="134" y="578" type="curve"/>
      <point x="110" y="211"/>
      <point x="71" y="154"/>
      <point x="-63" y="49" type="curve"/>
      <point x="-34" y="-30" type="line"/>
      <point x="166" y="95"/>
      <point x="609" y="-99"/>
      <point x="789" y="0" type="curve"/>
      <point x="804" y="39"/>
      <point x="855" y="209"/>
      <point x="881" y="324" type="curve"/>
      <point x="808" y="352" type="line"/>
      <point x="733" y="196"/>
      <point x="685" y="154"/>
      <point x="569" y="151" type="curve" smooth="yes"/>
      <point x="432" y="147"/>
      <point x="433" y="166"/>
      <point x="262" y="151" type="curve"/>
      <point x="360" y="275"/>
      <point x="408" y="408"/>
      <point x="416" y="595" type="curve"/>
      <point x="435" y="1083"/>
      <point x="576" y="1106"/>
      <point x="645" y="1106" type="curve" smooth="yes"/>
      <point x="753" y="1106"/>
      <point x="803" y="995"/>
      <point x="798" y="830" type="curve"/>
      <point x="879" y="830" type="line"/>
      <point x="901" y="881"/>
      <point x="950" y="1097"/>
    </contour>
    <contour>
      <point x="718" y="614" type="line"/>
      <point x="689" y="647" type="line"/>
      <point x="49" y="647" type="line"/>
      <point x="38" y="626"/>
      <point x="5" y="571"/>
      <point x="-3" y="551" type="curve"/>
      <point x="21" y="516" type="line"/>
      <point x="662" y="516" type="line"/>
    </contour>
  </outline>
</glyph>
<glyph name="CurrSgn" format="2">
  <advance width="968"/>
  <unicode hex="00A4"/>
  <outline>
    <contour>
      <point x="519" y="837" type="curve"/>
      <point x="645" y="831"/>
      <point x="712" y="716"/>
      <point x="697" y="602" type="curve" smooth="yes"/>
      <point x="681" y="481"/>
      <point x="577" y="367"/>
      <point x="455" y="367" type="curve" smooth="yes"/>
      <point x="328" y="367"/>
      <point x="260" y="490"/>
      <point x="275" y="601" type="curve" smooth="yes"/>
      <point x="291" y="723"/>
      <point x="396" y="837"/>
    </contour>
    <contour>
      <point x="156" y="599" type="curve"/>
      <point x="134" y="410"/>
      <point x="240" y="234"/>
      <point x="437" y="234" type="curve" smooth="yes"/>
      <point x="637" y="234"/>
      <point x="792" y="418"/>
      <point x="817" y="599" type="curve" smooth="yes"/>
      <point x="842" y="781"/>
      <point x="728" y="972"/>
      <point x="538" y="972" type="curve" smooth="yes"/>
      <point x="336" y="972"/>
      <point x="181" y="780"/>
    </contour>
    <contour>
      <point x="288" y="450" type="line"/>
      <point x="245" y="447" type="line"/>
      <point x="30" y="240" type="line"/>
      <point x="37" y="210"/>
      <point x="48" y="178"/>
      <point x="57" y="153" type="curve"/>
      <point x="98" y="150" type="line"/>
      <point x="314" y="357" type="line"/>
    </contour>
    <contour>
      <point x="370" y="808" type="line"/>
      <point x="374" y="856" type="line"/>
      <point x="224" y="1053" type="line"/>
      <point x="195" y="1040"/>
      <point x="164" y="1024"/>
      <point x="140" y="1010" type="curve"/>
      <point x="130" y="963" type="line"/>
      <point x="281" y="765" type="line"/>
    </contour>
    <contour>
      <point x="835" y="193" type="line"/>
      <point x="841" y="241" type="line"/>
      <point x="689" y="440" type="line"/>
      <point x="662" y="427"/>
      <point x="629" y="410"/>
      <point x="605" y="396" type="curve"/>
      <point x="595" y="349" type="line"/>
      <point x="746" y="151" type="line"/>
    </contour>
    <contour>
      <point x="912" y="1053" type="line"/>
      <point x="870" y="1052" type="line"/>
      <point x="653" y="843" type="line"/>
      <point x="661" y="815"/>
      <point x="671" y="781"/>
      <point x="681" y="756" type="curve"/>
      <point x="723" y="753" type="line"/>
      <point x="937" y="961" type="line"/>
    </contour>
  </outline>
</glyph>
<glyph name="BrokenBar" format="2">
  <advance width="525"/>
  <unicode hex="00A6"/>
  <outline>
    <contour>
      <point x="476" y="1567" type="line"/>
      <point x="436" y="1599" type="line"/>
      <point x="397" y="1589"/>
      <point x="330" y="1563"/>
      <point x="291" y="1540" type="curve"/>
      <point x="178" y="747" type="line"/>
      <point x="219" y="715" type="line"/>
      <point x="252" y="725"/>
      <point x="339" y="755"/>
      <point x="366" y="776" type="curve"/>
    </contour>
    <contour>
      <point x="329" y="506" type="line"/>
      <point x="286" y="541" type="line"/>
      <point x="247" y="528"/>
      <point x="180" y="502"/>
      <point x="144" y="479" type="curve"/>
      <point x="33" y="-301" type="line"/>
      <point x="72" y="-336" type="line"/>
      <point x="102" y="-326"/>
      <point x="192" y="-293"/>
      <point x="216" y="-275" type="curve"/>
    </contour>
  </outline>
</glyph>
<glyph name="Diaer" format="2">
  <advance width="1042"/>
  <unicode hex="00A8"/>
  <anchor x="620" y="1353" name="U"/>
  <outline>
    <contour>
      <point x="938" y="1272" type="curve" smooth="yes"/>
      <point x="938" y="1327"/>
      <point x="905" y="1383"/>
      <point x="834" y="1383" type="curve" smooth="yes"/>
      <point x="728" y="1383"/>
      <point x="665" y="1267"/>
      <point x="665" y="1186" type="curve" smooth="yes"/>
      <point x="665" y="1131"/>
      <point x="696" y="1076"/>
      <point x="767" y="1076" type="curve" smooth="yes"/>
      <point x="874" y="1076"/>
      <point x="938" y="1188"/>
    </contour>
    <contour>
      <point x="546" y="1272" type="curve" smooth="yes"/>
      <point x="546" y="1327"/>
      <point x="513" y="1383"/>
      <point x="442" y="1383" type="curve" smooth="yes"/>
      <point x="336" y="1383"/>
      <point x="273" y="1267"/>
      <point x="273" y="1186" type="curve" smooth="yes"/>
      <point x="273" y="1131"/>
      <point x="304" y="1076"/>
      <point x="375" y="1076" type="curve" smooth="yes"/>
      <point x="482" y="1076"/>
      <point x="546" y="1188"/>
    </contour>
  </outline>
</glyph>
<glyph name="CopyrightSgn" format="2">
  <advance width="1360"/>
  <unicode hex="00A9"/>
  <outline>
    <contour>
      <point x="1300" y="752" type="curve" smooth="yes"/>
      <point x="1300" y="1059"/>
      <point x="1105" y="1310"/>
      <point x="780" y="1310" type="curve" smooth="yes"/>
      <point x="363" y="1310"/>
      <point x="74" y="899"/>
      <point x="74" y="526" type="curve" smooth="yes"/>
      <point x="74" y="213"/>
      <point x="267" y="-51"/>
      <point x="592" y="-51" type="curve" smooth="yes"/>
      <point x="1024" y="-51"/>
      <point x="1300" y="371"/>
    </contour>
    <contour>
      <point x="1180" y="719" type="curve" smooth="yes"/>
      <point x="1180" y="395"/>
      <point x="932" y="75"/>
      <point x="608" y="75" type="curve" smooth="yes"/>
      <point x="360" y="75"/>
      <point x="192" y="274"/>
      <point x="192" y="545" type="curve" smooth="yes"/>
      <point x="192" y="866"/>
      <point x="444" y="1184"/>
      <point x="766" y="1184" type="curve" smooth="yes"/>
      <point x="1012" y="1184"/>
      <point x="1180" y="989"/>
    </contour>
    <contour>
      <point x="1054" y="942" type="curve"/>
      <point x="1007" y="954"/>
      <point x="938" y="1045"/>
      <point x="809" y="1044" type="curve" smooth="yes"/>
      <point x="688" y="1043"/>
      <point x="583" y="994"/>
      <point x="521" y="945" type="curve"/>
      <point x="349" y="814"/>
      <point x="306" y="651"/>
      <point x="306" y="526" type="curve" smooth="yes"/>
      <point x="306" y="291"/>
      <point x="478" y="223"/>
      <point x="600" y="223" type="curve" smooth="yes"/>
      <point x="720" y="223"/>
      <point x="826" y="277"/>
      <point x="996" y="438" type="curve"/>
      <point x="990" y="448"/>
      <point x="958" y="490"/>
      <point x="948" y="504" type="curve"/>
      <point x="838" y="402"/>
      <point x="758" y="365"/>
      <point x="692" y="365" type="curve" smooth="yes"/>
      <point x="599" y="365"/>
      <point x="511" y="408"/>
      <point x="511" y="559" type="curve" smooth="yes"/>
      <point x="511" y="715"/>
      <point x="587" y="943"/>
      <point x="725" y="943" type="curve" smooth="yes"/>
      <point x="795" y="943"/>
      <point x="838" y="822"/>
      <point x="875" y="822" type="curve" smooth="yes"/>
      <point x="905" y="822"/>
      <point x="1013" y="909"/>
    </contour>
  </outline>
</glyph>
<glyph name="FemOrdIndicator" format="2">
  <advance width="626"/>
  <unicode hex="00AA"/>
  <outline>
    <contour>
      <point x="623" y="808" type="curve"/>
      <point x="605" y="848" type="line"/>
      <point x="576" y="836"/>
      <point x="568" y="834"/>
      <point x="554" y="834" type="curve" smooth="yes"/>
      <point x="537" y="834"/>
      <point x="529" y="869"/>
      <point x="529" y="903" type="curve" smooth="yes"/>
      <point x="529" y="935"/>
      <point x="536" y="1040"/>
      <point x="559" y="1143" type="curve" smooth="yes"/>
      <point x="569" y="1190"/>
      <point x="583" y="1198"/>
      <point x="608" y="1217" type="curve"/>
      <point x="587" y="1257" type="line"/>
      <point x="537" y="1234"/>
      <point x="430" y="1186"/>
      <point x="422" y="1153" type="curve"/>
      <point x="414" y="1110"/>
      <point x="380" y="896"/>
      <point x="380" y="855" type="curve" smooth="yes"/>
      <point x="380" y="771"/>
      <point x="436" y="733"/>
      <point x="462" y="733" type="curve" smooth="yes"/>
      <point x="493" y="733"/>
      <point x="562" y="769"/>
    </contour>
    <contour>
      <point x="571" y="1186" type="curve"/>
      <point x="547" y="1190"/>
      <point x="481" y="1257"/>
      <point x="421" y="1257" type="curve" smooth="yes"/>
      <point x="348" y="1257"/>
      <point x="301" y="1232"/>
      <point x="262" y="1206" type="curve" smooth="yes"/>
      <point x="160" y="1136"/>
      <point x="91" y="1032"/>
      <point x="91" y="917" type="curve" smooth="yes"/>
      <point x="91" y="784"/>
      <point x="174" y="733"/>
      <point x="241" y="733" type="curve" smooth="yes"/>
      <point x="283" y="733"/>
      <point x="327" y="764"/>
      <point x="382" y="833" type="curve"/>
      <point x="397" y="959" type="line"/>
      <point x="332" y="870"/>
      <point x="303" y="844"/>
      <point x="276" y="844" type="curve" smooth="yes"/>
      <point x="253" y="844"/>
      <point x="235" y="884"/>
      <point x="235" y="958" type="curve" smooth="yes"/>
      <point x="235" y="1042"/>
      <point x="268" y="1180"/>
      <point x="366" y="1180" type="curve" smooth="yes"/>
      <point x="426" y="1180"/>
      <point x="499" y="1070"/>
      <point x="519" y="1070" type="curve" smooth="yes"/>
      <point x="535" y="1070"/>
      <point x="540" y="1165"/>
    </contour>
    <contour>
      <point x="609" y="645" type="curve"/>
      <point x="580" y="679" type="line"/>
      <point x="72" y="679" type="line"/>
      <point x="64" y="659"/>
      <point x="46" y="637"/>
      <point x="39" y="616" type="curve"/>
      <point x="66" y="586" type="line"/>
      <point x="576" y="586" type="line"/>
      <point x="582" y="604"/>
      <point x="603" y="624"/>
    </contour>
  </outline>
</glyph>
<glyph name="LftPtngDblAngQuotMrk" format="2">
  <advance width="998"/>
  <unicode hex="00AB"/>
  <outline>
    <contour>
      <point x="762" y="-3" type="line"/>
      <point x="827" y="47" type="line"/>
      <point x="707" y="467" type="line"/>
      <point x="940" y="883" type="line"/>
      <point x="890" y="933" type="line"/>
      <point x="450" y="503" type="line"/>
      <point x="438" y="430" type="line"/>
    </contour>
    <contour>
      <point x="371" y="-3" type="line"/>
      <point x="437" y="47" type="line"/>
      <point x="316" y="467" type="line"/>
      <point x="550" y="883" type="line"/>
      <point x="499" y="933" type="line"/>
      <point x="60" y="503" type="line"/>
      <point x="48" y="430" type="line"/>
    </contour>
  </outline>
</glyph>
<glyph name="Hyphen_Soft" format="1">
  <advance width="691"/>
  <unicode hex="00AD"/>
  <outline>
    <component base="HyphenMinus"/>
    <contour>
      <point x="365" y="1000" type="move" name="U"/>
    </contour>
  </outline>
</glyph>
<glyph name="Macron" format="2">
  <advance width="939"/>
  <unicode hex="00AF"/>
  <outline>
    <contour>
      <point x="1004" y="1288" type="curve"/>
      <point x="975" y="1323" type="line"/>
      <point x="218" y="1323" type="line"/>
      <point x="203" y="1296"/>
      <point x="159" y="1218"/>
      <point x="149" y="1191" type="curve"/>
      <point x="175" y="1157" type="line"/>
      <point x="934" y="1157" type="line"/>
      <point x="947" y="1179"/>
      <point x="995" y="1259"/>
    </contour>
  </outline>
</glyph>
<glyph name="DegreeSgn" format="2">
  <advance width="682"/>
  <unicode hex="00B0"/>
  <outline>
    <contour>
      <point x="684" y="1073" type="curve" smooth="yes"/>
      <point x="684" y="1173"/>
      <point x="624" y="1265"/>
      <point x="509" y="1265" type="curve" smooth="yes"/>
      <point x="363" y="1265"/>
      <point x="188" y="1103"/>
      <point x="188" y="918" type="curve" smooth="yes"/>
      <point x="188" y="829"/>
      <point x="234" y="729"/>
      <point x="363" y="729" type="curve" smooth="yes"/>
      <point x="503" y="729"/>
      <point x="684" y="875"/>
    </contour>
    <contour>
      <point x="422" y="881" type="curve" smooth="yes"/>
      <point x="381" y="881"/>
      <point x="344" y="914"/>
      <point x="344" y="976" type="curve" smooth="yes"/>
      <point x="344" y="1052"/>
      <point x="402" y="1112"/>
      <point x="453" y="1112" type="curve" smooth="yes"/>
      <point x="504" y="1112"/>
      <point x="529" y="1062"/>
      <point x="529" y="1018" type="curve" smooth="yes"/>
      <point x="529" y="953"/>
      <point x="485" y="881"/>
    </contour>
  </outline>
</glyph>
<glyph name="SupThree" format="2">
  <advance width="689"/>
  <unicode hex="00B3"/>
  <anchor x="340" y="550" name="L"/>
  <anchor x="460" y="1400" name="U"/>
  <outline>
    <contour>
      <point x="681" y="1219" type="curve" smooth="yes"/>
      <point x="681" y="1281"/>
      <point x="641" y="1361"/>
      <point x="473" y="1361" type="curve" smooth="yes"/>
      <point x="305" y="1361"/>
      <point x="178" y="1244"/>
      <point x="169" y="1177" type="curve"/>
      <point x="187" y="1134" type="line"/>
      <point x="240" y="1139"/>
      <point x="315" y="1161"/>
      <point x="355" y="1182" type="curve"/>
      <point x="344" y="1237"/>
      <point x="386" y="1277"/>
      <point x="424" y="1277" type="curve" smooth="yes"/>
      <point x="469" y="1277"/>
      <point x="475" y="1240"/>
      <point x="475" y="1205" type="curve" smooth="yes"/>
      <point x="475" y="1139"/>
      <point x="454" y="1067"/>
      <point x="304" y="1032" type="curve"/>
      <point x="306" y="962" type="line"/>
      <point x="334" y="966"/>
      <point x="341" y="966"/>
      <point x="365" y="966" type="curve" smooth="yes"/>
      <point x="416" y="966"/>
      <point x="462" y="945"/>
      <point x="464" y="860" type="curve" smooth="yes"/>
      <point x="466" y="760"/>
      <point x="394" y="707"/>
      <point x="324" y="707" type="curve" smooth="yes"/>
      <point x="259" y="707"/>
      <point x="198" y="734"/>
      <point x="126" y="788" type="curve"/>
      <point x="87" y="703" type="line"/>
      <point x="155" y="634"/>
      <point x="264" y="602"/>
      <point x="332" y="602" type="curve" smooth="yes"/>
      <point x="510" y="602"/>
      <point x="673" y="728"/>
      <point x="673" y="882" type="curve" smooth="yes"/>
      <point x="673" y="950"/>
      <point x="637" y="1029"/>
      <point x="530" y="1039" type="curve"/>
      <point x="615" y="1062"/>
      <point x="681" y="1137"/>
    </contour>
  </outline>
</glyph>
<glyph name="MascOrdIndicator" format="2">
  <advance width="508"/>
  <unicode hex="00BA"/>
  <outline>
    <contour>
      <point x="558" y="1054" type="curve" smooth="yes"/>
      <point x="558" y="1173"/>
      <point x="497" y="1257"/>
      <point x="362" y="1257" type="curve" smooth="yes"/>
      <point x="309" y="1257"/>
      <point x="253" y="1233"/>
      <point x="206" y="1196" type="curve" smooth="yes"/>
      <point x="111" y="1121"/>
      <point x="71" y="1042"/>
      <point x="71" y="940" type="curve" smooth="yes"/>
      <point x="71" y="821"/>
      <point x="148" y="733"/>
      <point x="268" y="733" type="curve" smooth="yes"/>
      <point x="331" y="733"/>
      <point x="380" y="761"/>
      <point x="425" y="798" type="curve" smooth="yes"/>
      <point x="505" y="863"/>
      <point x="558" y="958"/>
    </contour>
    <contour>
      <point x="524" y="645" type="curve"/>
      <point x="496" y="679" type="line"/>
      <point x="37" y="679" type="line"/>
      <point x="29" y="659"/>
      <point x="16" y="637"/>
      <point x="9" y="616" type="curve"/>
      <point x="36" y="586" type="line"/>
      <point x="496" y="586" type="line"/>
      <point x="503" y="604"/>
      <point x="518" y="624"/>
    </contour>
    <contour>
      <point x="400" y="1016" type="curve" smooth="yes"/>
      <point x="400" y="928"/>
      <point x="383" y="822"/>
      <point x="313" y="822" type="curve" smooth="yes"/>
      <point x="268" y="822"/>
      <point x="226" y="894"/>
      <point x="226" y="978" type="curve" smooth="yes"/>
      <point x="226" y="1070"/>
      <point x="241" y="1166"/>
      <point x="316" y="1166" type="curve" smooth="yes"/>
      <point x="357" y="1166"/>
      <point x="400" y="1114"/>
    </contour>
  </outline>
</glyph>
<glyph name="VulgFracOneHalf" format="2">
  <advance width="1209"/>
  <unicode hex="00BD"/>
  <outline>
    <contour>
      <point x="1233" y="1207" type="line"/>
      <point x="1213" y="1235" type="line"/>
      <point x="1185" y="1229"/>
      <point x="1105" y="1214"/>
      <point x="1079" y="1203" type="curve"/>
      <point x="48" y="0" type="line"/>
      <point x="67" y="-30" type="line"/>
      <point x="102" y="-21"/>
      <point x="174" y="-12"/>
      <point x="205" y="3" type="curve"/>
    </contour>
    <contour>
      <point x="544" y="637" type="line"/>
      <point x="551" y="682" type="line"/>
      <point x="447" y="694"/>
      <point x="424" y="712"/>
      <point x="426" y="725" type="curve" smooth="yes"/>
      <point x="506" y="1213" type="line"/>
      <point x="484" y="1235" type="line"/>
      <point x="428" y="1215"/>
      <point x="256" y="1164"/>
      <point x="193" y="1153" type="curve"/>
      <point x="202" y="1109" type="line"/>
      <point x="298" y="1127"/>
      <point x="330" y="1124"/>
      <point x="337" y="1116" type="curve" smooth="yes"/>
      <point x="344" y="1107"/>
      <point x="343" y="1094"/>
      <point x="339" y="1069" type="curve" smooth="yes"/>
      <point x="283" y="725" type="line" smooth="yes"/>
      <point x="281" y="711"/>
      <point x="246" y="694"/>
      <point x="132" y="682" type="curve"/>
      <point x="125" y="637" type="line"/>
    </contour>
    <contour>
      <point x="1139" y="181" type="line"/>
      <point x="1091" y="192" type="line"/>
      <point x="1091" y="192"/>
      <point x="1072" y="91"/>
      <point x="1021" y="91" type="curve" smooth="yes"/>
      <point x="819" y="91" type="line"/>
      <point x="1116" y="335"/>
      <point x="1181" y="413"/>
      <point x="1181" y="492" type="curve" smooth="yes"/>
      <point x="1181" y="569"/>
      <point x="1098" y="593"/>
      <point x="1011" y="593" type="curve" smooth="yes"/>
      <point x="871" y="593"/>
      <point x="752" y="510"/>
      <point x="741" y="444" type="curve"/>
      <point x="756" y="406" type="line"/>
      <point x="787" y="408"/>
      <point x="867" y="427"/>
      <point x="891" y="439" type="curve"/>
      <point x="888" y="484"/>
      <point x="907" y="533"/>
      <point x="963" y="533" type="curve" smooth="yes"/>
      <point x="1004" y="533"/>
      <point x="1025" y="515"/>
      <point x="1025" y="469" type="curve" smooth="yes"/>
      <point x="1025" y="388"/>
      <point x="921" y="267"/>
      <point x="650" y="36" type="curve"/>
      <point x="659" y="0" type="line"/>
      <point x="1101" y="0" type="line"/>
    </contour>
  </outline>
</glyph>
<glyph name="InvQstnMrk" format="2">
  <advance width="900"/>
  <unicode hex="00BF"/>
  <outline>
    <contour>
      <point x="741" y="-161" type="curve"/>
      <point x="711" y="-120" type="line"/>
      <point x="653" y="-126"/>
      <point x="513" y="-162"/>
      <point x="455" y="-189" type="curve"/>
      <point x="480" y="-316"/>
      <point x="438" y="-416"/>
      <point x="358" y="-416" type="curve" smooth="yes"/>
      <point x="283" y="-416"/>
      <point x="244" y="-331"/>
      <point x="244" y="-229" type="curve" smooth="yes"/>
      <point x="244" y="0"/>
      <point x="526" y="135"/>
      <point x="537" y="384" type="curve" smooth="yes"/>
      <point x="542" y="510" type="line"/>
      <point x="519" y="531" type="line"/>
      <point x="486" y="521"/>
      <point x="429" y="498"/>
      <point x="404" y="480" type="curve"/>
      <point x="393" y="394" type="line" smooth="yes"/>
      <point x="361" y="141"/>
      <point x="-36" y="45"/>
      <point x="-36" y="-287" type="curve" smooth="yes"/>
      <point x="-36" y="-422"/>
      <point x="72" y="-531"/>
      <point x="262" y="-531" type="curve" smooth="yes"/>
      <point x="546" y="-531"/>
      <point x="741" y="-331"/>
    </contour>
    <contour>
      <point x="340" y="727" type="curve" smooth="yes"/>
      <point x="340" y="662"/>
      <point x="383" y="613"/>
      <point x="472" y="613" type="curve" smooth="yes"/>
      <point x="596" y="613"/>
      <point x="672" y="724"/>
      <point x="672" y="811" type="curve" smooth="yes"/>
      <point x="672" y="881"/>
      <point x="631" y="930"/>
      <point x="538" y="930" type="curve" smooth="yes"/>
      <point x="408" y="930"/>
      <point x="340" y="819"/>
    </contour>
  </outline>
</glyph>
<glyph name="LtnCapAe" format="2">
  <advance width="1558"/>
  <unicode hex="00C6"/>
  <anchor x="784" y="-100" name="L"/>
  <anchor x="1039" y="1320" name="U"/>
  <outline>
    <contour>
      <point x="1523" y="324" type="curve"/>
      <point x="1450" y="352" type="line"/>
      <point x="1375" y="196"/>
      <point x="1324" y="130"/>
      <point x="1209" y="130" type="curve" smooth="yes"/>
      <point x="1131" y="130" type="line" smooth="yes"/>
      <point x="967" y="130"/>
      <point x="943" y="155"/>
      <point x="948" y="194" type="curve" smooth="yes"/>
      <point x="1006" y="615" type="line"/>
      <point x="1180" y="615" type="line" smooth="yes"/>
      <point x="1231" y="615"/>
      <point x="1284" y="599"/>
      <point x="1314" y="560" type="curve"/>
      <point x="1340" y="584"/>
      <point x="1392" y="660"/>
      <point x="1418" y="697" type="curve"/>
      <point x="1389" y="735" type="line"/>
      <point x="1022" y="735" type="line"/>
      <point x="1076" y="1129" type="line"/>
      <point x="1379" y="1129" type="line" smooth="yes"/>
      <point x="1427" y="1129"/>
      <point x="1439" y="1053"/>
      <point x="1428" y="930" type="curve"/>
      <point x="1507" y="930" type="line"/>
      <point x="1532" y="981"/>
      <point x="1573" y="1157"/>
      <point x="1585" y="1225" type="curve"/>
      <point x="1553" y="1260" type="line"/>
      <point x="486" y="1260" type="line"/>
      <point x="475" y="1177" type="line"/>
      <point x="593" y="1152"/>
      <point x="617" y="1138"/>
      <point x="594" y="1093" type="curve" smooth="yes"/>
      <point x="111" y="151" type="line"/>
      <point x="90" y="112"/>
      <point x="45" y="94"/>
      <point x="-29" y="83" type="curve"/>
      <point x="-40" y="0" type="line"/>
      <point x="347" y="0" type="line"/>
      <point x="358" y="83" type="line"/>
      <point x="272" y="95"/>
      <point x="252" y="112"/>
      <point x="273" y="151" type="curve"/>
      <point x="512" y="615" type="line"/>
      <point x="745" y="615" type="line"/>
      <point x="680" y="144" type="line" smooth="yes"/>
      <point x="678" y="126"/>
      <point x="634" y="101"/>
      <point x="549" y="83" type="curve"/>
      <point x="538" y="0" type="line"/>
      <point x="1441" y="0" type="line"/>
      <point x="1456" y="39"/>
      <point x="1496" y="209"/>
    </contour>
    <contour>
      <point x="761" y="735" type="line"/>
      <point x="571" y="735" type="line"/>
      <point x="756" y="1090" type="line" smooth="yes"/>
      <point x="780" y="1136"/>
      <point x="816" y="1136"/>
      <point x="812" y="1107" type="curve" smooth="yes"/>
    </contour>
  </outline>
</glyph>
<glyph name="LtnCapCCedilla" format="1">
  <advance width="1055"/>
  <unicode hex="00C7"/>
  <outline>
    <component base="LtnCapC"/>
    <component base="CombCedilla" xOffset="1013"/>
    <contour>
      <point x="413" y="-600" type="move" name="L"/>
    </contour>
    <contour>
      <point x="706" y="1320" type="move" name="U"/>
    </contour>
  </outline>
</glyph>
<glyph name="LtnCapEth" format="2">
  <advance width="1238"/>
  <unicode hex="00D0"/>
  <anchor x="464" y="-100" name="L"/>
  <anchor x="659" y="1320" name="U"/>
  <outline>
    <contour>
      <point x="742" y="690" type="line"/>
      <point x="713" y="725" type="line"/>
      <point x="109" y="725" type="line"/>
      <point x="97" y="704"/>
      <point x="62" y="648"/>
      <point x="53" y="627" type="curve"/>
      <point x="82" y="595" type="line"/>
      <point x="686" y="595" type="line"/>
    </contour>
    <contour>
      <point x="1217" y="755" type="curve" smooth="yes"/>
      <point x="1217" y="1085"/>
      <point x="1039" y="1290"/>
      <point x="626" y="1290" type="curve" smooth="yes"/>
      <point x="489" y="1290"/>
      <point x="285" y="1266"/>
      <point x="133" y="1229" type="curve"/>
      <point x="133" y="1126" type="line"/>
      <point x="270" y="1148" type="line"/>
      <point x="131" y="144" type="line" smooth="yes"/>
      <point x="129" y="126"/>
      <point x="84" y="101"/>
      <point x="0" y="83" type="curve"/>
      <point x="-10" y="0" type="line"/>
      <point x="521" y="0" type="line" smooth="yes"/>
      <point x="944" y="0"/>
      <point x="1217" y="403"/>
    </contour>
    <contour>
      <point x="594" y="1176" type="curve" smooth="yes"/>
      <point x="845" y="1176"/>
      <point x="935" y="1012"/>
      <point x="935" y="727" type="curve" smooth="yes"/>
      <point x="935" y="446"/>
      <point x="785" y="114"/>
      <point x="515" y="114" type="curve" smooth="yes"/>
      <point x="424" y="114"/>
      <point x="394" y="130"/>
      <point x="399" y="169" type="curve" smooth="yes"/>
      <point x="534" y="1171" type="line"/>
      <point x="554" y="1172"/>
      <point x="574" y="1176"/>
    </contour>
  </outline>
</glyph>
<glyph name="MultSgn" format="2">
  <advance width="770"/>
  <unicode hex="00D7"/>
  <outline>
    <contour>
      <point x="666" y="266" type="curve"/>
      <point x="673" y="318" type="line"/>
      <point x="231" y="900" type="line"/>
      <point x="204" y="893"/>
      <point x="135" y="869"/>
      <point x="111" y="857" type="curve"/>
      <point x="107" y="811" type="line"/>
      <point x="554" y="225" type="line"/>
      <point x="576" y="231"/>
      <point x="641" y="255"/>
    </contour>
    <contour>
      <point x="27" y="267" type="line"/>
      <point x="53" y="251"/>
      <point x="128" y="226"/>
      <point x="149" y="220" type="curve"/>
      <point x="752" y="804" type="line"/>
      <point x="757" y="855" type="line"/>
      <point x="728" y="868"/>
      <point x="657" y="893"/>
      <point x="632" y="900" type="curve"/>
      <point x="33" y="319" type="line"/>
    </contour>
  </outline>
</glyph>
<glyph name="LtnCapOStrk" format="2">
  <advance width="1189"/>
  <unicode hex="00D8"/>
  <anchor x="552" y="-100" name="L"/>
  <anchor x="736" y="1320" name="U"/>
  <outline>
    <contour>
      <point x="1260" y="1275" type="line"/>
      <point x="1234" y="1313" type="line"/>
      <point x="1196" y="1309"/>
      <point x="1101" y="1286"/>
      <point x="1063" y="1264" type="curve"/>
      <point x="10" y="-15" type="line"/>
      <point x="36" y="-53" type="line"/>
      <point x="68" y="-49"/>
      <point x="184" y="-23"/>
      <point x="210" y="-2" type="curve"/>
    </contour>
    <contour>
      <point x="1180" y="774" type="curve" smooth="yes"/>
      <point x="1180" y="1055"/>
      <point x="1037" y="1290"/>
      <point x="745" y="1290" type="curve" smooth="yes"/>
      <point x="526" y="1290"/>
      <point x="359" y="1167"/>
      <point x="248" y="1018" type="curve"/>
      <point x="142" y="872"/>
      <point x="70" y="693"/>
      <point x="70" y="485" type="curve" smooth="yes"/>
      <point x="70" y="205"/>
      <point x="235" y="-31"/>
      <point x="511" y="-31" type="curve" smooth="yes"/>
      <point x="689" y="-31"/>
      <point x="868" y="82"/>
      <point x="981" y="225" type="curve" smooth="yes"/>
      <point x="1102" y="377"/>
      <point x="1180" y="586"/>
    </contour>
    <contour>
      <point x="911" y="756" type="curve" smooth="yes"/>
      <point x="911" y="502"/>
      <point x="813" y="110"/>
      <point x="576" y="110" type="curve" smooth="yes"/>
      <point x="422" y="110"/>
      <point x="342" y="283"/>
      <point x="342" y="532" type="curve" smooth="yes"/>
      <point x="342" y="784"/>
      <point x="448" y="1155"/>
      <point x="672" y="1155" type="curve" smooth="yes"/>
      <point x="828" y="1155"/>
      <point x="911" y="981"/>
    </contour>
  </outline>
</glyph>
<glyph name="LtnCapUCircum" format="1">
  <advance width="1282"/>
  <unicode hex="00DB"/>
  <outline>
    <component base="LtnCapU"/>
    <component base="CombCircum.LP" xOffset="1159" yOffset="320"/>
    <contour>
      <point x="620" y="0" type="move" name="H"/>
    </contour>
    <contour>
      <point x="590" y="-100" type="move" name="L"/>
    </contour>
    <contour>
      <point x="688" y="0" type="move" name="O"/>
    </contour>
    <contour>
      <point x="1296" y="1072" type="move" name="R"/>
    </contour>
    <contour>
      <point x="833" y="1735" type="move" name="U"/>
    </contour>
  </outline>
</glyph>
<glyph name="LtnCapThorn" format="2">
  <advance width="1101"/>
  <unicode hex="00DE"/>
  <anchor x="478" y="-100" name="L"/>
  <anchor x="662" y="1320" name="U"/>
  <outline>
    <contour>
      <point x="1084" y="690" type="curve" smooth="yes"/>
      <point x="1084" y="891"/>
      <point x="916" y="1030"/>
      <point x="653" y="1030" type="curve" smooth="yes"/>
      <point x="549" y="1030"/>
      <point x="461" y="1014"/>
      <point x="403" y="987" type="curve"/>
      <point x="401" y="875" type="line"/>
      <point x="463" y="890"/>
      <point x="528" y="908"/>
      <point x="592" y="908" type="curve" smooth="yes"/>
      <point x="709" y="908"/>
      <point x="813" y="836"/>
      <point x="813" y="651" type="curve" smooth="yes"/>
      <point x="813" y="477"/>
      <point x="711" y="372"/>
      <point x="592" y="372" type="curve" smooth="yes"/>
      <point x="549" y="372"/>
      <point x="504" y="376"/>
      <point x="456" y="401" type="curve"/>
      <point x="467" y="287" type="line"/>
      <point x="504" y="264"/>
      <point x="553" y="254"/>
      <point x="608" y="254" type="curve" smooth="yes"/>
      <point x="892" y="254"/>
      <point x="1084" y="457"/>
    </contour>
    <contour>
      <point x="703" y="1260" type="line"/>
      <point x="161" y="1260" type="line"/>
      <point x="150" y="1177" type="line"/>
      <point x="234" y="1158"/>
      <point x="265" y="1131"/>
      <point x="263" y="1115" type="curve" smooth="yes"/>
      <point x="130" y="144" type="line" smooth="yes"/>
      <point x="127" y="126"/>
      <point x="84" y="101"/>
      <point x="0" y="83" type="curve"/>
      <point x="-10" y="0" type="line"/>
      <point x="532" y="0" type="line"/>
      <point x="542" y="83" type="line"/>
      <point x="422" y="106"/>
      <point x="391" y="128"/>
      <point x="395" y="144" type="curve"/>
      <point x="526" y="1115" type="line" smooth="yes"/>
      <point x="528" y="1134"/>
      <point x="567" y="1154"/>
      <point x="692" y="1177" type="curve"/>
    </contour>
  </outline>
</glyph>
<glyph name="LtnSmAe" format="2">
  <advance width="1325"/>
  <unicode hex="00E6"/>
  <anchor x="620" y="0" name="H"/>
  <anchor x="599" y="-100" name="L"/>
  <anchor x="930" y="0" name="O"/>
  <anchor x="1462" y="870" name="R"/>
  <anchor x="750" y="1000" name="U"/>
  <outline>
    <contour>
      <point x="1330" y="760" type="curve" smooth="yes"/>
      <point x="1330" y="846"/>
      <point x="1247" y="936"/>
      <point x="1102" y="936" type="curve" smooth="yes"/>
      <point x="1020" y="936"/>
      <point x="904" y="895"/>
      <point x="840" y="846" type="curve" smooth="yes"/>
      <point x="664" y="709"/>
      <point x="544" y="512"/>
      <point x="544" y="303" type="curve" smooth="yes"/>
      <point x="544" y="51"/>
      <point x="727" y="-41"/>
      <point x="825" y="-41" type="curve" smooth="yes"/>
      <point x="934" y="-41"/>
      <point x="1086" y="40"/>
      <point x="1307" y="230" type="curve"/>
      <point x="1301" y="240"/>
      <point x="1271" y="303"/>
      <point x="1257" y="311" type="curve"/>
      <point x="1095" y="182"/>
      <point x="984" y="126"/>
      <point x="927" y="126" type="curve" smooth="yes"/>
      <point x="869" y="126"/>
      <point x="785" y="203"/>
      <point x="785" y="377" type="curve" smooth="yes"/>
      <point x="785" y="524"/>
      <point x="805" y="628"/>
      <point x="886" y="722" type="curve" smooth="yes"/>
      <point x="920" y="762"/>
      <point x="967" y="791"/>
      <point x="993" y="791" type="curve" smooth="yes"/>
      <point x="1028" y="791"/>
      <point x="1060" y="759"/>
      <point x="1060" y="715" type="curve" smooth="yes"/>
      <point x="1060" y="616"/>
      <point x="1020" y="543"/>
      <point x="734" y="421" type="curve"/>
      <point x="709" y="392"/>
      <point x="740" y="297"/>
      <point x="740" y="297" type="curve"/>
      <point x="1276" y="486"/>
      <point x="1330" y="643"/>
    </contour>
    <contour>
      <point x="872" y="891" type="curve"/>
      <point x="822" y="936" type="line"/>
      <point x="657" y="884"/>
      <point x="622" y="821"/>
      <point x="609" y="760" type="curve"/>
      <point x="595" y="682"/>
      <point x="535" y="281"/>
      <point x="535" y="281" type="curve"/>
      <point x="535" y="281"/>
      <point x="748" y="569"/>
      <point x="786" y="760" type="curve"/>
      <point x="807" y="850"/>
      <point x="827" y="854"/>
    </contour>
    <contour>
      <point x="811" y="842" type="curve"/>
      <point x="764" y="848"/>
      <point x="702" y="936"/>
      <point x="592" y="936" type="curve" smooth="yes"/>
      <point x="470" y="936"/>
      <point x="365" y="891"/>
      <point x="293" y="842" type="curve" smooth="yes"/>
      <point x="102" y="713"/>
      <point x="-7" y="516"/>
      <point x="-7" y="305" type="curve" smooth="yes"/>
      <point x="-7" y="55"/>
      <point x="132" y="-41"/>
      <point x="222" y="-41" type="curve" smooth="yes"/>
      <point x="333" y="-41"/>
      <point x="463" y="63"/>
      <point x="570" y="219" type="curve"/>
      <point x="576" y="397" type="line"/>
      <point x="450" y="232"/>
      <point x="368" y="176"/>
      <point x="331" y="176" type="curve" smooth="yes"/>
      <point x="293" y="176"/>
      <point x="240" y="227"/>
      <point x="240" y="379" type="curve" smooth="yes"/>
      <point x="240" y="537"/>
      <point x="317" y="781"/>
      <point x="479" y="781" type="curve" smooth="yes"/>
      <point x="560" y="781"/>
      <point x="670" y="611"/>
      <point x="707" y="611" type="curve" smooth="yes"/>
      <point x="740" y="611"/>
      <point x="754" y="803"/>
    </contour>
  </outline>
</glyph>
<glyph name="LtnSmIAcute" format="1">
  <advance width="589"/>
  <unicode hex="00ED"/>
  <outline>
    <component base="LtnSmDotlessI"/>
    <component base="CombAcute" xOffset="785"/>
    <contour>
      <point x="248" y="0" type="move" name="H"/>
    </contour>
    <contour>
      <point x="248" y="-100" type="move" name="L"/>
    </contour>
    <contour>
      <point x="288" y="0" type="move" name="O"/>
    </contour>
    <contour>
      <point x="616" y="870" type="move" name="R"/>
    </contour>
    <contour>
      <point x="450" y="1370" type="move" name="U"/>
    </contour>
  </outline>
</glyph>
<glyph name="LtnSmEth" format="2">
  <advance width="985"/>
  <unicode hex="00F0"/>
  <anchor x="392" y="-100" name="L"/>
  <anchor x="660" y="1580" name="U"/>
  <outline>
    <contour>
      <point x="1033" y="1290" type="line"/>
      <point x="1031" y="1335" type="line"/>
      <point x="1003" y="1347"/>
      <point x="958" y="1359"/>
      <point x="904" y="1367" type="curve"/>
      <point x="226" y="1055" type="line"/>
      <point x="231" y="1010" type="line"/>
      <point x="267" y="996"/>
      <point x="315" y="984"/>
      <point x="358" y="980" type="curve"/>
    </contour>
    <contour>
      <point x="924" y="707" type="curve" smooth="yes"/>
      <point x="924" y="936"/>
      <point x="859" y="1200"/>
      <point x="541" y="1409" type="curve"/>
      <point x="243" y="1287" type="line"/>
      <point x="243" y="1196" type="line"/>
      <point x="374" y="1217"/>
      <point x="446" y="1205"/>
      <point x="535" y="1117" type="curve" smooth="yes"/>
      <point x="640" y="1013"/>
      <point x="691" y="819"/>
      <point x="691" y="637" type="curve" smooth="yes"/>
      <point x="691" y="457"/>
      <point x="639" y="98"/>
      <point x="455" y="98" type="curve" smooth="yes"/>
      <point x="377" y="98"/>
      <point x="293" y="225"/>
      <point x="293" y="407" type="curve" smooth="yes"/>
      <point x="293" y="579"/>
      <point x="335" y="795"/>
      <point x="483" y="795" type="curve" smooth="yes"/>
      <point x="580" y="795"/>
      <point x="711" y="642"/>
      <point x="685" y="437" type="curve"/>
      <point x="730" y="669" type="line"/>
      <point x="736" y="790"/>
      <point x="645" y="936"/>
      <point x="524" y="936" type="curve" smooth="yes"/>
      <point x="252" y="936"/>
      <point x="33" y="675"/>
      <point x="33" y="334" type="curve" smooth="yes"/>
      <point x="33" y="123"/>
      <point x="144" y="-41"/>
      <point x="372" y="-41" type="curve" smooth="yes"/>
      <point x="674" y="-41"/>
      <point x="924" y="285"/>
    </contour>
  </outline>
</glyph>
<glyph name="LtnSmNTilde" format="1">
  <advance width="1103"/>
  <unicode hex="00F1"/>
  <outline>
    <component base="LtnSmN"/>
    <component base="CombTilde" xOffset="1017"/>
    <contour>
      <point x="760" y="0" type="move" name="H"/>
    </contour>
    <contour>
      <point x="478" y="-100" type="move" name="L"/>
    </contour>
    <contour>
      <point x="678" y="1353" type="move" name="U"/>
    </contour>
  </outline>
</glyph>
<glyph name="LtnSmOStrk" format="2">
  <advance width="924"/>
  <unicode hex="00F8"/>
  <anchor x="390" y="0" name="H"/>
  <anchor x="386" y="-100" name="L"/>
  <anchor x="460" y="0" name="O"/>
  <anchor x="1091" y="870" name="R"/>
  <anchor x="537" y="1000" name="U"/>
  <outline>
    <contour>
      <point x="937" y="916" type="line"/>
      <point x="904" y="958" type="line"/>
      <point x="871" y="948"/>
      <point x="777" y="913"/>
      <point x="745" y="899" type="curve"/>
      <point x="-14" y="-21" type="line"/>
      <point x="16" y="-61" type="line"/>
      <point x="47" y="-53"/>
      <point x="152" y="-15"/>
      <point x="177" y="-2" type="curve"/>
    </contour>
    <contour>
      <point x="891" y="559" type="curve" smooth="yes"/>
      <point x="891" y="780"/>
      <point x="766" y="936"/>
      <point x="557" y="936" type="curve" smooth="yes"/>
      <point x="465" y="936"/>
      <point x="357" y="893"/>
      <point x="287" y="840" type="curve" smooth="yes"/>
      <point x="108" y="704"/>
      <point x="33" y="535"/>
      <point x="33" y="344" type="curve" smooth="yes"/>
      <point x="33" y="125"/>
      <point x="165" y="-41"/>
      <point x="381" y="-41" type="curve" smooth="yes"/>
      <point x="461" y="-41"/>
      <point x="572" y="6"/>
      <point x="642" y="63" type="curve" smooth="yes"/>
      <point x="791" y="186"/>
      <point x="891" y="381"/>
    </contour>
    <contour>
      <point x="628" y="473" type="curve" smooth="yes"/>
      <point x="628" y="309"/>
      <point x="583" y="102"/>
      <point x="449" y="102" type="curve" smooth="yes"/>
      <point x="376" y="102"/>
      <point x="297" y="250"/>
      <point x="297" y="428" type="curve" smooth="yes"/>
      <point x="297" y="598"/>
      <point x="345" y="789"/>
      <point x="488" y="789" type="curve" smooth="yes"/>
      <point x="555" y="789"/>
      <point x="628" y="676"/>
    </contour>
  </outline>
</glyph>
<glyph name="LtnSmThorn" format="2">
  <advance width="1050"/>
  <unicode hex="00FE"/>
  <anchor x="613" y="-100" name="L"/>
  <anchor x="725" y="1640" name="U"/>
  <outline>
    <contour>
      <point x="990" y="627" type="curve" smooth="yes"/>
      <point x="990" y="827"/>
      <point x="884" y="936"/>
      <point x="761" y="936" type="curve" smooth="yes"/>
      <point x="667" y="936"/>
      <point x="560" y="913"/>
      <point x="388" y="694" type="curve"/>
      <point x="394" y="505" type="line"/>
      <point x="491" y="678"/>
      <point x="594" y="745"/>
      <point x="635" y="745" type="curve" smooth="yes"/>
      <point x="667" y="745"/>
      <point x="724" y="679"/>
      <point x="724" y="522" type="curve" smooth="yes"/>
      <point x="724" y="441"/>
      <point x="716" y="342"/>
      <point x="681" y="259" type="curve" smooth="yes"/>
      <point x="654" y="195"/>
      <point x="599" y="176"/>
      <point x="563" y="176" type="curve" smooth="yes"/>
      <point x="501" y="176"/>
      <point x="390" y="236"/>
      <point x="357" y="294" type="curve"/>
      <point x="330" y="147" type="line"/>
      <point x="404" y="22"/>
      <point x="526" y="-41"/>
      <point x="586" y="-41" type="curve" smooth="yes"/>
      <point x="691" y="-41"/>
      <point x="787" y="54"/>
      <point x="851" y="158" type="curve" smooth="yes"/>
      <point x="945" y="310"/>
      <point x="990" y="494"/>
    </contour>
    <contour>
      <point x="537" y="1427" type="curve" smooth="yes"/>
      <point x="537" y="1493"/>
      <point x="531" y="1520"/>
      <point x="478" y="1520" type="curve" smooth="yes"/>
      <point x="423" y="1520"/>
      <point x="200" y="1435"/>
      <point x="87" y="1385" type="curve"/>
      <point x="106" y="1306" type="line"/>
      <point x="106" y="1306"/>
      <point x="172" y="1333"/>
      <point x="196" y="1333" type="curve" smooth="yes"/>
      <point x="225" y="1333"/>
      <point x="249" y="1327"/>
      <point x="249" y="1266" type="curve" smooth="yes"/>
      <point x="249" y="1079"/>
      <point x="66" y="16"/>
      <point x="-23" y="-461" type="curve"/>
      <point x="19" y="-500" type="line"/>
      <point x="54" y="-484"/>
      <point x="242" y="-407"/>
      <point x="281" y="-397" type="curve"/>
      <point x="267" y="-360"/>
      <point x="276" y="-269"/>
      <point x="323" y="6" type="curve"/>
      <point x="462" y="796"/>
      <point x="537" y="1346"/>
    </contour>
  </outline>
</glyph>
<glyph name="LtnSmDBarredStem" format="2">
  <advance width="1034"/>
  <unicode hex="0111"/>
  <anchor x="374" y="-100" name="L"/>
  <anchor x="612" y="1640" name="U"/>
  <outline>
    <contour>
      <point x="1127" y="1165" type="line"/>
      <point x="1098" y="1200" type="line"/>
      <point x="444" y="1200" type="line"/>
      <point x="432" y="1179"/>
      <point x="399" y="1123"/>
      <point x="390" y="1102" type="curve"/>
      <point x="419" y="1070" type="line"/>
      <point x="1073" y="1070" type="line"/>
    </contour>
    <contour>
      <point x="1009" y="116" type="curve"/>
      <point x="991" y="194" type="line"/>
      <point x="944" y="174"/>
      <point x="919" y="168"/>
      <point x="885" y="168" type="curve" smooth="yes"/>
      <point x="854" y="168"/>
      <point x="830" y="219"/>
      <point x="830" y="319" type="curve" smooth="yes"/>
      <point x="830" y="499"/>
      <point x="993" y="1231"/>
      <point x="993" y="1438" type="curve" smooth="yes"/>
      <point x="993" y="1499"/>
      <point x="965" y="1520"/>
      <point x="918" y="1520" type="curve" smooth="yes"/>
      <point x="865" y="1520"/>
      <point x="687" y="1455"/>
      <point x="545" y="1385" type="curve"/>
      <point x="562" y="1306" type="line"/>
      <point x="562" y="1306"/>
      <point x="636" y="1333"/>
      <point x="659" y="1333" type="curve" smooth="yes"/>
      <point x="683" y="1333"/>
      <point x="704" y="1327"/>
      <point x="704" y="1266" type="curve" smooth="yes"/>
      <point x="704" y="1079"/>
      <point x="567" y="372"/>
      <point x="567" y="249" type="curve" smooth="yes"/>
      <point x="567" y="29"/>
      <point x="665" y="-41"/>
      <point x="716" y="-41" type="curve" smooth="yes"/>
      <point x="771" y="-41"/>
      <point x="896" y="40"/>
    </contour>
    <contour>
      <point x="883" y="791" type="curve"/>
      <point x="826" y="783"/>
      <point x="698" y="936"/>
      <point x="622" y="936" type="curve" smooth="yes"/>
      <point x="520" y="936"/>
      <point x="406" y="889"/>
      <point x="332" y="842" type="curve"/>
      <point x="143" y="717"/>
      <point x="33" y="526"/>
      <point x="33" y="315" type="curve" smooth="yes"/>
      <point x="33" y="66"/>
      <point x="156" y="-41"/>
      <point x="266" y="-41" type="curve" smooth="yes"/>
      <point x="353" y="-41"/>
      <point x="462" y="27"/>
      <point x="576" y="185" type="curve"/>
      <point x="597" y="393" type="line"/>
      <point x="475" y="210"/>
      <point x="404" y="176"/>
      <point x="376" y="176" type="curve" smooth="yes"/>
      <point x="328" y="176"/>
      <point x="290" y="237"/>
      <point x="290" y="379" type="curve" smooth="yes"/>
      <point x="290" y="537"/>
      <point x="357" y="781"/>
      <point x="519" y="781" type="curve" smooth="yes"/>
      <point x="616" y="781"/>
      <point x="696" y="609"/>
      <point x="745" y="609" type="curve" smooth="yes"/>
      <point x="780" y="609"/>
      <point x="826" y="752"/>
    </contour>
  </outline>
</glyph>
<glyph name="LtnSmECaron" format="1">
  <advance width="885"/>
  <unicode hex="011B"/>
  <outline>
    <component base="LtnSmE"/>
    <component base="CombCaron" xOffset="940"/>
    <contour>
      <point x="398" y="0" type="move" name="H"/>
    </contour>
    <contour>
      <point x="384" y="-100" type="move" name="L"/>
    </contour>
    <contour>
      <point x="448" y="0" type="move" name="O"/>
    </contour>
    <contour>
      <point x="1062" y="870" type="move" name="R"/>
    </contour>
    <contour>
      <point x="610" y="1422" type="move" name="U"/>
    </contour>
  </outline>
</glyph>
<glyph name="LtnCapGBreve" format="1">
  <advance width="1136"/>
  <unicode hex="011E"/>
  <outline>
    <component base="LtnCapG"/>
    <component base="CombBreve" xOffset="1129" yOffset="320"/>
    <contour>
      <point x="550" y="0" type="move" name="H"/>
    </contour>
    <contour>
      <point x="557" y="-100" type="move" name="L"/>
    </contour>
    <contour>
      <point x="786" y="1640" type="move" name="U"/>
    </contour>
  </outline>
</glyph>
<glyph name="LtnCapHStrk" format="2">
  <advance width="1340"/>
  <unicode hex="0126"/>
  <anchor x="574" y="-100" name="L"/>
  <anchor x="761" y="1320" name="U"/>
  <outline>
    <contour>
      <point x="1370" y="1260" type="line"/>
      <point x="858" y="1260" type="line"/>
      <point x="847" y="1177" type="line"/>
      <point x="934" y="1158"/>
      <point x="966" y="1131"/>
      <point x="964" y="1115" type="curve" smooth="yes"/>
      <point x="831" y="144" type="line" smooth="yes"/>
      <point x="829" y="126"/>
      <point x="783" y="101"/>
      <point x="697" y="83" type="curve"/>
      <point x="686" y="0" type="line"/>
      <point x="1198" y="0" type="line"/>
      <point x="1209" y="83" type="line"/>
      <point x="1122" y="101"/>
      <point x="1089" y="128"/>
      <point x="1091" y="144" type="curve" smooth="yes"/>
      <point x="1224" y="1115" type="line" smooth="yes"/>
      <point x="1227" y="1134"/>
      <point x="1272" y="1158"/>
      <point x="1359" y="1177" type="curve"/>
    </contour>
    <contour>
      <point x="929" y="725" type="line"/>
      <point x="429" y="725" type="line"/>
      <point x="411" y="595" type="line"/>
      <point x="911" y="595" type="line"/>
    </contour>
    <contour>
      <point x="654" y="1260" type="line"/>
      <point x="142" y="1260" type="line"/>
      <point x="131" y="1177" type="line"/>
      <point x="217" y="1158"/>
      <point x="250" y="1131"/>
      <point x="248" y="1115" type="curve" smooth="yes"/>
      <point x="115" y="144" type="line" smooth="yes"/>
      <point x="113" y="126"/>
      <point x="67" y="101"/>
      <point x="-19" y="83" type="curve"/>
      <point x="-30" y="0" type="line"/>
      <point x="482" y="0" type="line"/>
      <point x="493" y="83" type="line"/>
      <point x="404" y="101"/>
      <point x="373" y="128"/>
      <point x="375" y="144" type="curve" smooth="yes"/>
      <point x="508" y="1115" type="line" smooth="yes"/>
      <point x="511" y="1134"/>
      <point x="556" y="1158"/>
      <point x="643" y="1177" type="curve"/>
    </contour>
    <contour>
      <point x="1364" y="979" type="line"/>
      <point x="1342" y="1004" type="line"/>
      <point x="115" y="1004" type="line"/>
      <point x="104" y="983"/>
      <point x="81" y="917"/>
      <point x="75" y="896" type="curve"/>
      <point x="98" y="874" type="line"/>
      <point x="1325" y="874" type="line"/>
    </contour>
  </outline>
</glyph>
<glyph name="LtnCapIOgonek" format="1">
  <advance width="652"/>
  <unicode hex="012E"/>
  <outline>
    <component base="LtnCapI"/>
    <component base="CombOgonek" xOffset="813"/>
    <contour>
      <point x="269" y="0" type="move" name="H"/>
    </contour>
    <contour>
      <point x="192" y="-600" type="move" name="L"/>
    </contour>
    <contour>
      <point x="648" y="1072" type="move" name="R"/>
    </contour>
    <contour>
      <point x="435" y="1320" type="move" name="U"/>
    </contour>
  </outline>
</glyph>
<glyph name="LtnSmDotlessI" format="2">
  <advance width="589"/>
  <unicode hex="0131"/>
  <anchor x="248" y="0" name="H"/>
  <anchor x="248" y="-100" name="L"/>
  <anchor x="288" y="0" name="O"/>
  <anchor x="616" y="870" name="R"/>
  <anchor x="399" y="1000" name="U"/>
  <outline>
    <contour>
      <point x="565" y="122" type="curve"/>
      <point x="545" y="199" type="line"/>
      <point x="491" y="176"/>
      <point x="467" y="166"/>
      <point x="426" y="166" type="curve" smooth="yes"/>
      <point x="404" y="166"/>
      <point x="396" y="184"/>
      <point x="396" y="225" type="curve" smooth="yes"/>
      <point x="396" y="342"/>
      <point x="490" y="735"/>
      <point x="490" y="852" type="curve" smooth="yes"/>
      <point x="490" y="913"/>
      <point x="466" y="936"/>
      <point x="429" y="936" type="curve" smooth="yes"/>
      <point x="374" y="936"/>
      <point x="162" y="851"/>
      <point x="50" y="800" type="curve"/>
      <point x="69" y="723" type="line"/>
      <point x="98" y="733"/>
      <point x="143" y="747"/>
      <point x="159" y="747" type="curve" smooth="yes"/>
      <point x="184" y="747"/>
      <point x="200" y="741"/>
      <point x="200" y="680" type="curve" smooth="yes"/>
      <point x="200" y="582"/>
      <point x="110" y="195"/>
      <point x="110" y="76" type="curve" smooth="yes"/>
      <point x="110" y="4"/>
      <point x="149" y="-41"/>
      <point x="194" y="-41" type="curve" smooth="yes"/>
      <point x="273" y="-41"/>
      <point x="440" y="48"/>
    </contour>
  </outline>
</glyph>
<glyph name="LtnSmLCaron" format="1">
  <advance width="737"/>
  <unicode hex="013E"/>
  <outline>
    <component base="LtnSmL"/>
    <component base="CombCommaAbvRt" xOffset="478"/>
    <contour>
      <point x="180" y="0" type="move" name="H"/>
    </contour>
    <contour>
      <point x="158" y="-100" type="move" name="L"/>
    </contour>
    <contour>
      <point x="397" y="1640" type="move" name="U"/>
    </contour>
  </outline>
</glyph>
<glyph name="LtnSmLStrk" format="2">
  <advance width="609"/>
  <unicode hex="0142"/>
  <anchor x="216" y="-100" name="L"/>
  <anchor x="455" y="1640" name="U"/>
  <outline>
    <contour>
      <point x="677" y="994" type="curve"/>
      <point x="644" y="1026" type="line"/>
      <point x="45" y="652" type="line"/>
      <point x="18" y="594"/>
      <point x="2" y="550"/>
      <point x="-6" y="515" type="curve"/>
      <point x="22" y="485" type="line"/>
      <point x="624" y="862" type="line"/>
      <point x="647" y="907"/>
      <point x="663" y="949"/>
    </contour>
    <contour>
      <point x="564" y="122" type="curve"/>
      <point x="547" y="199" type="line"/>
      <point x="488" y="176"/>
      <point x="459" y="166"/>
      <point x="428" y="166" type="curve" smooth="yes"/>
      <point x="407" y="166"/>
      <point x="393" y="180"/>
      <point x="393" y="225" type="curve" smooth="yes"/>
      <point x="393" y="407"/>
      <point x="557" y="1231"/>
      <point x="557" y="1438" type="curve" smooth="yes"/>
      <point x="557" y="1499"/>
      <point x="533" y="1520"/>
      <point x="496" y="1520" type="curve" smooth="yes"/>
      <point x="441" y="1520"/>
      <point x="215" y="1435"/>
      <point x="102" y="1385" type="curve"/>
      <point x="122" y="1306" type="line"/>
      <point x="122" y="1306"/>
      <point x="194" y="1333"/>
      <point x="216" y="1333" type="curve" smooth="yes"/>
      <point x="241" y="1333"/>
      <point x="267" y="1327"/>
      <point x="267" y="1266" type="curve" smooth="yes"/>
      <point x="267" y="1079"/>
      <point x="105" y="211"/>
      <point x="105" y="78" type="curve" smooth="yes"/>
      <point x="105" y="0"/>
      <point x="140" y="-41"/>
      <point x="177" y="-41" type="curve" smooth="yes"/>
      <point x="265" y="-41"/>
      <point x="433" y="40"/>
    </contour>
  </outline>
</glyph>
<glyph name="LtnCapNCedilla" format="1">
  <advance width="1273"/>
  <unicode hex="0145"/>
  <outline>
    <component base="LtnCapN"/>
    <component base="CombCommaBlw" xOffset="1118"/>
    <contour>
      <point x="965" y="0" type="move" name="H"/>
    </contour>
    <contour>
      <point x="510" y="-600" type="move" name="L"/>
    </contour>
    <contour>
      <point x="763" y="1320" type="move" name="U"/>
    </contour>
  </outline>
</glyph>
<glyph name="LtnSmEng" format="2">
  <advance width="1074"/>
  <unicode hex="014B"/>
  <anchor x="392" y="-600" name="L"/>
  <anchor x="611" y="1000" name="U"/>
  <outline>
    <contour>
      <point x="986" y="781" type="curve" smooth="yes"/>
      <point x="986" y="910"/>
      <point x="936" y="936"/>
      <point x="852" y="936" type="curve" smooth="yes"/>
      <point x="743" y="936"/>
      <point x="592" y="874"/>
      <point x="443" y="738" type="curve"/>
      <point x="447" y="771"/>
      <point x="448" y="795"/>
      <point x="448" y="823" type="curve" smooth="yes"/>
      <point x="448" y="918"/>
      <point x="436" y="936"/>
      <point x="399" y="936" type="curve" smooth="yes"/>
      <point x="356" y="936"/>
      <point x="148" y="861"/>
      <point x="15" y="802" type="curve"/>
      <point x="35" y="723" type="line"/>
      <point x="35" y="723"/>
      <point x="110" y="749"/>
      <point x="133" y="749" type="curve" smooth="yes"/>
      <point x="157" y="749"/>
      <point x="170" y="743"/>
      <point x="170" y="682" type="curve" smooth="yes"/>
      <point x="170" y="588"/>
      <point x="121" y="266"/>
      <point x="66" y="0" type="curve"/>
      <point x="109" y="-41" type="line"/>
      <point x="142" y="-23"/>
      <point x="327" y="56"/>
      <point x="362" y="75" type="curve"/>
      <point x="359" y="125"/>
      <point x="364" y="182"/>
      <point x="385" y="301" type="curve" smooth="yes"/>
      <point x="407" y="430"/>
      <point x="426" y="517"/>
      <point x="465" y="580" type="curve" smooth="yes"/>
      <point x="537" y="694"/>
      <point x="616" y="716"/>
      <point x="651" y="716" type="curve" smooth="yes"/>
      <point x="689" y="716"/>
      <point x="697" y="691"/>
      <point x="697" y="620" type="curve" smooth="yes"/>
      <point x="697" y="565"/>
      <point x="666" y="323"/>
      <point x="600" y="-11" type="curve"/>
      <point x="550" y="-277"/>
      <point x="510" y="-311"/>
      <point x="425" y="-311" type="curve" smooth="yes"/>
      <point x="346" y="-311"/>
      <point x="258" y="-207"/>
      <point x="225" y="-207" type="curve" smooth="yes"/>
      <point x="196" y="-207"/>
      <point x="75" y="-355"/>
      <point x="75" y="-390" type="curve" smooth="yes"/>
      <point x="75" y="-424"/>
      <point x="217" y="-501"/>
      <point x="331" y="-501" type="curve" smooth="yes"/>
      <point x="438" y="-501"/>
      <point x="524" y="-455"/>
      <point x="596" y="-395" type="curve" smooth="yes"/>
      <point x="717" y="-293"/>
      <point x="839" y="-158"/>
      <point x="876" y="44" type="curve" smooth="yes"/>
      <point x="925" y="312"/>
      <point x="986" y="687"/>
    </contour>
  </outline>
</glyph>
<glyph name="LtnCapLigOe" format="2">
  <advance width="1640"/>
  <unicode hex="0152"/>
  <anchor x="755" y="-100" name="L"/>
  <anchor x="939" y="1320" name="U"/>
  <outline>
    <contour>
      <point x="1650" y="1225" type="curve"/>
      <point x="1615" y="1260" type="line"/>
      <point x="1137" y="1260" type="line"/>
      <point x="1092" y="1130" type="line"/>
      <point x="1443" y="1130" type="line" smooth="yes"/>
      <point x="1489" y="1130"/>
      <point x="1504" y="1053"/>
      <point x="1492" y="930" type="curve"/>
      <point x="1571" y="930" type="line"/>
      <point x="1593" y="981"/>
      <point x="1637" y="1157"/>
    </contour>
    <contour>
      <point x="1482" y="697" type="curve"/>
      <point x="1453" y="735" type="line"/>
      <point x="1045" y="735" type="line"/>
      <point x="1009" y="615" type="line"/>
      <point x="1201" y="615" type="line" smooth="yes"/>
      <point x="1305" y="615"/>
      <point x="1345" y="599"/>
      <point x="1377" y="560" type="curve"/>
      <point x="1407" y="581"/>
      <point x="1456" y="660"/>
    </contour>
    <contour>
      <point x="1587" y="324" type="curve"/>
      <point x="1514" y="352" type="line"/>
      <point x="1439" y="196"/>
      <point x="1390" y="130"/>
      <point x="1275" y="130" type="curve" smooth="yes"/>
      <point x="1193" y="130" type="line" smooth="yes"/>
      <point x="1029" y="130"/>
      <point x="1007" y="155"/>
      <point x="1012" y="194" type="curve" smooth="yes"/>
      <point x="1141" y="1137" type="line" smooth="yes"/>
      <point x="1144" y="1155"/>
      <point x="1195" y="1158"/>
      <point x="1282" y="1177" type="curve"/>
      <point x="1293" y="1260" type="line"/>
      <point x="1137" y="1260" type="line"/>
      <point x="772" y="1260" type="line"/>
      <point x="761" y="1177" type="line"/>
      <point x="847" y="1158"/>
      <point x="880" y="1131"/>
      <point x="878" y="1115" type="curve" smooth="yes"/>
      <point x="745" y="144" type="line" smooth="yes"/>
      <point x="743" y="126"/>
      <point x="697" y="101"/>
      <point x="611" y="83" type="curve"/>
      <point x="600" y="0" type="line"/>
      <point x="1505" y="0" type="line"/>
      <point x="1520" y="39"/>
      <point x="1562" y="209"/>
    </contour>
    <contour>
      <point x="961" y="1260" type="curve"/>
      <point x="877" y="1260"/>
      <point x="846" y="1290"/>
      <point x="742" y="1290" type="curve" smooth="yes"/>
      <point x="411" y="1290"/>
      <point x="128" y="975"/>
      <point x="78" y="612" type="curve" smooth="yes"/>
      <point x="32" y="276"/>
      <point x="193" y="-30"/>
      <point x="507" y="-30" type="curve" smooth="yes"/>
      <point x="621" y="-30"/>
      <point x="640" y="0"/>
      <point x="789" y="0" type="curve" smooth="yes"/>
      <point x="789" y="0"/>
      <point x="836" y="128"/>
      <point x="782" y="190" type="curve"/>
      <point x="710" y="136"/>
      <point x="679" y="110"/>
      <point x="572" y="110" type="curve" smooth="yes"/>
      <point x="405" y="110"/>
      <point x="307" y="342"/>
      <point x="348" y="641" type="curve" smooth="yes"/>
      <point x="393" y="967"/>
      <point x="506" y="1156"/>
      <point x="669" y="1156" type="curve" smooth="yes"/>
      <point x="766" y="1156"/>
      <point x="864" y="1104"/>
      <point x="897" y="1000" type="curve"/>
      <point x="897" y="1000"/>
      <point x="942" y="1219"/>
    </contour>
  </outline>
</glyph>
<glyph name="LtnSmRCaron" format="1">
  <advance width="872"/>
  <unicode hex="0159"/>
  <outline>
    <component base="LtnSmR"/>
    <component base="CombCaron" xOffset="923"/>
    <contour>
      <point x="195" y="0" type="move" name="H"/>
    </contour>
    <contour>
      <point x="237" y="-100" type="move" name="L"/>
    </contour>
    <contour>
      <point x="593" y="1422" type="move" name="U"/>
    </contour>
  </outline>
</glyph>
<glyph name="LtnCapSAcute" format="1">
  <advance width="1000"/>
  <unicode hex="015A"/>
  <outline>
    <component base="LtnCapS"/>
    <component base="CombAcute.LP" xOffset="994" yOffset="320"/>
    <contour>
      <point x="438" y="0" type="move" name="H"/>
    </contour>
    <contour>
      <point x="424" y="-100" type="move" name="L"/>
    </contour>
    <contour>
      <point x="652" y="1640" type="move" name="U"/>
    </contour>
  </outline>
</glyph>
<glyph name="LtnCapSCedilla" format="1">
  <advance width="1000"/>
  <unicode hex="015E"/>
  <outline>
    <component base="LtnCapS"/>
    <component base="CombCedilla" xOffset="956"/>
    <contour>
      <point x="356" y="-600" type="move" name="L"/>
    </contour>
    <contour>
      <point x="608" y="1320" type="move" name="U"/>
    </contour>
  </outline>
</glyph>
<glyph name="LtnCapTCaron" format="1">
  <advance width="1123"/>
  <unicode hex="0164"/>
  <outline>
    <component base="LtnCapT"/>
    <component base="CombCaron.LP" xOffset="1070" yOffset="320"/>
    <contour>
      <point x="499" y="0" type="move" name="H"/>
    </contour>
    <contour>
      <point x="485" y="-100" type="move" name="L"/>
    </contour>
    <contour>
      <point x="729" y="1668" type="move" name="U"/>
    </contour>
  </outline>
</glyph>
<glyph name="LtnSmYCircum" format="1">
  <advance width="996"/>
  <unicode hex="0177"/>
  <outline>
    <component base="LtnSmY"/>
    <component base="CombCircum" xOffset="985"/>
    <contour>
      <point x="680" y="-100" type="move" name="L"/>
    </contour>
    <contour>
      <point x="1173" y="870" type="move" name="R"/>
    </contour>
    <contour>
      <point x="673" y="1490" type="move" name="U"/>
    </contour>
  </outline>
</glyph>
<glyph name="LtnCapZDotAbv" format="1">
  <advance width="1078"/>
  <unicode hex="017B"/>
  <outline>
    <component base="LtnCapZ"/>
    <component base="CombDotAbv.LP" xOffset="1046" yOffset="320"/>
    <contour>
      <point x="493" y="-100" type="move" name="L"/>
    </contour>
    <contour>
      <point x="701" y="1640" type="move" name="U"/>
    </contour>
  </outline>
</glyph>
<glyph name="LtnSmBTopbar" format="2">
  <advance width="1049"/>
  <unicode hex="0183"/>
  <anchor x="416" y="-100" name="L"/>
  <anchor x="655" y="1640" name="U"/>
  <outline>
    <contour>
      <point x="991" y="610" type="curve"/>
      <point x="993" y="821"/>
      <point x="912" y="936"/>
      <point x="777" y="936" type="curve" smooth="yes"/>
      <point x="621" y="936"/>
      <point x="449" y="791"/>
      <point x="320" y="563" type="curve"/>
      <point x="350" y="404" type="line"/>
      <point x="447" y="625"/>
      <point x="579" y="743"/>
      <point x="634" y="743" type="curve" smooth="yes"/>
      <point x="698" y="743"/>
      <point x="726" y="635"/>
      <point x="726" y="530" type="curve" smooth="yes"/>
      <point x="726" y="440"/>
      <point x="714" y="336"/>
      <point x="653" y="239" type="curve" smooth="yes"/>
      <point x="610" y="172"/>
      <point x="560" y="166"/>
      <point x="524" y="166" type="curve" smooth="yes"/>
      <point x="472" y="166"/>
      <point x="386" y="246"/>
      <point x="386" y="316" type="curve" smooth="yes"/>
      <point x="386" y="492"/>
      <point x="532" y="1249"/>
      <point x="532" y="1438" type="curve"/>
      <point x="505" y="1454"/>
      <point x="359" y="1475"/>
      <point x="236" y="1427" type="curve"/>
      <point x="250" y="1409"/>
      <point x="255" y="1344"/>
      <point x="255" y="1316" type="curve" smooth="yes"/>
      <point x="255" y="1152"/>
      <point x="110" y="388"/>
      <point x="110" y="247" type="curve" smooth="yes"/>
      <point x="110" y="126"/>
      <point x="284" y="-41"/>
      <point x="407" y="-41" type="curve" smooth="yes"/>
      <point x="575" y="-41"/>
      <point x="729" y="68"/>
      <point x="819" y="188" type="curve" smooth="yes"/>
      <point x="915" y="322"/>
      <point x="989" y="469"/>
    </contour>
    <contour>
      <point x="999" y="1448" type="curve"/>
      <point x="962" y="1490" type="line"/>
      <point x="403" y="1490" type="line"/>
      <point x="236" y="1427" type="line"/>
      <point x="300" y="1360" type="line"/>
      <point x="786" y="1360" type="line" smooth="yes"/>
      <point x="832" y="1360"/>
      <point x="832" y="1290"/>
      <point x="816" y="1120" type="curve"/>
      <point x="899" y="1120" type="line"/>
      <point x="927" y="1196"/>
      <point x="987" y="1380"/>
    </contour>
  </outline>
</glyph>
<glyph name="LtnCapTnSix" format="2">
  <advance width="1142"/>
  <unicode hex="0184"/>
  <anchor x="357" y="-100" name="L"/>
  <anchor x="536" y="1320" name="U"/>
  <outline>
    <contour>
      <point x="521" y="-14" type="curve" smooth="yes"/>
      <point x="818" y="-14"/>
      <point x="1081" y="129"/>
      <point x="1081" y="414" type="curve" smooth="yes"/>
      <point x="1081" y="600"/>
      <point x="940" y="740"/>
      <point x="646" y="740" type="curve" smooth="yes"/>
      <point x="553" y="740"/>
      <point x="414" y="715"/>
      <point x="346" y="695" type="curve"/>
      <point x="337" y="567" type="line"/>
      <point x="388" y="580"/>
      <point x="467" y="600"/>
      <point x="590" y="600" type="curve" smooth="yes"/>
      <point x="760" y="600"/>
      <point x="822" y="492"/>
      <point x="822" y="374" type="curve" smooth="yes"/>
      <point x="822" y="217"/>
      <point x="700" y="100"/>
      <point x="536" y="100" type="curve" smooth="yes"/>
      <point x="462" y="100"/>
      <point x="416" y="109"/>
      <point x="381" y="131" type="curve"/>
      <point x="67" y="0" type="line"/>
      <point x="216" y="-7"/>
      <point x="370" y="-14"/>
    </contour>
    <contour>
      <point x="515" y="0" type="line"/>
      <point x="525" y="73" type="line"/>
      <point x="439" y="91"/>
      <point x="398" y="118"/>
      <point x="400" y="134" type="curve" smooth="yes"/>
      <point x="450" y="485" type="line"/>
      <point x="201" y="485" type="line"/>
      <point x="153" y="144" type="line" smooth="yes"/>
      <point x="150" y="126"/>
      <point x="97" y="101"/>
      <point x="11" y="83" type="curve"/>
      <point x="0" y="0" type="line"/>
    </contour>
    <contour>
      <point x="557" y="1246" type="line"/>
      <point x="551" y="1259"/>
      <point x="532" y="1285"/>
      <point x="522" y="1290" type="curve"/>
      <point x="457" y="1281"/>
      <point x="346" y="1249"/>
      <point x="317" y="1220" type="curve"/>
      <point x="25" y="859" type="line"/>
      <point x="32" y="847"/>
      <point x="50" y="826"/>
      <point x="59" y="820" type="curve"/>
      <point x="93" y="826"/>
      <point x="177" y="852"/>
      <point x="198" y="872" type="curve"/>
      <point x="267" y="960" type="line"/>
      <point x="182" y="354" type="line"/>
      <point x="431" y="354" type="line"/>
    </contour>
  </outline>
</glyph>
<glyph name="LtnSmTnSix" format="2">
  <advance width="1085"/>
  <unicode hex="0185"/>
  <anchor x="479" y="-100" name="L"/>
  <anchor x="714" y="1640" name="U"/>
  <outline>
    <contour>
      <point x="278" y="1125" type="line"/>
      <point x="227" y="798"/>
      <point x="152" y="313"/>
      <point x="152" y="217" type="curve" smooth="yes"/>
      <point x="152" y="96"/>
      <point x="368" y="-41"/>
      <point x="451" y="-41" type="curve" smooth="yes"/>
      <point x="619" y="-41"/>
      <point x="772" y="67"/>
      <point x="861" y="188" type="curve" smooth="yes"/>
      <point x="958" y="321"/>
      <point x="1034" y="457"/>
      <point x="1034" y="610" type="curve" smooth="yes"/>
      <point x="1034" y="834"/>
      <point x="911" y="936"/>
      <point x="806" y="936" type="curve" smooth="yes"/>
      <point x="715" y="936"/>
      <point x="601" y="903"/>
      <point x="483" y="735" type="curve"/>
      <point x="483" y="737" type="line"/>
      <point x="595" y="1471" type="line"/>
      <point x="584" y="1488"/>
      <point x="563" y="1507"/>
      <point x="546" y="1517" type="curve"/>
      <point x="512" y="1508"/>
      <point x="386" y="1459"/>
      <point x="356" y="1430" type="curve"/>
      <point x="18" y="1002" type="line"/>
      <point x="24" y="990"/>
      <point x="40" y="970"/>
      <point x="52" y="963" type="curve"/>
      <point x="86" y="966"/>
      <point x="175" y="996"/>
      <point x="193" y="1018" type="curve" smooth="yes"/>
    </contour>
    <contour>
      <point x="673" y="743" type="curve" smooth="yes"/>
      <point x="727" y="743"/>
      <point x="770" y="675"/>
      <point x="770" y="530" type="curve" smooth="yes"/>
      <point x="770" y="440"/>
      <point x="751" y="326"/>
      <point x="697" y="239" type="curve" smooth="yes"/>
      <point x="655" y="171"/>
      <point x="604" y="166"/>
      <point x="568" y="166" type="curve" smooth="yes"/>
      <point x="526" y="166"/>
      <point x="426" y="246"/>
      <point x="426" y="316" type="curve" smooth="yes"/>
      <point x="426" y="355"/>
      <point x="435" y="422"/>
      <point x="450" y="516" type="curve"/>
      <point x="547" y="674"/>
      <point x="632" y="743"/>
    </contour>
  </outline>
</glyph>
<glyph name="LtnCapOpnO" format="2">
  <advance width="1102"/>
  <unicode hex="0186"/>
  <anchor x="487" y="-100" name="L"/>
  <anchor x="672" y="1320" name="U"/>
  <outline>
    <contour>
      <point x="1091" y="784" type="curve" smooth="yes"/>
      <point x="1091" y="1104"/>
      <point x="914" y="1290"/>
      <point x="648" y="1290" type="curve" smooth="yes"/>
      <point x="535" y="1290"/>
      <point x="355" y="1250"/>
      <point x="150" y="1071" type="curve"/>
      <point x="154" y="1063"/>
      <point x="185" y="1002"/>
      <point x="197" y="996" type="curve"/>
      <point x="357" y="1109"/>
      <point x="465" y="1124"/>
      <point x="528" y="1124" type="curve" smooth="yes"/>
      <point x="680" y="1124"/>
      <point x="820" y="1030"/>
      <point x="820" y="753" type="curve" smooth="yes"/>
      <point x="820" y="514"/>
      <point x="732" y="120"/>
      <point x="476" y="120" type="curve" smooth="yes"/>
      <point x="386" y="120"/>
      <point x="299" y="182"/>
      <point x="299" y="296" type="curve" smooth="yes"/>
      <point x="299" y="346"/>
      <point x="323" y="454"/>
      <point x="417" y="497" type="curve"/>
      <point x="395" y="587" type="line"/>
      <point x="350" y="570"/>
      <point x="170" y="503"/>
      <point x="111" y="474" type="curve"/>
      <point x="67" y="415"/>
      <point x="50" y="335"/>
      <point x="50" y="270" type="curve" smooth="yes"/>
      <point x="50" y="97"/>
      <point x="164" y="-31"/>
      <point x="421" y="-31" type="curve" smooth="yes"/>
      <point x="851" y="-31"/>
      <point x="1091" y="436"/>
    </contour>
  </outline>
</glyph>
<glyph name="LtnCapDTopbar" format="2">
  <advance width="1223"/>
  <unicode hex="018B"/>
  <anchor x="379" y="-100" name="L"/>
  <anchor x="573" y="1320" name="U"/>
  <outline>
    <contour>
      <point x="48" y="346" type="curve" smooth="yes"/>
      <point x="13" y="99"/>
      <point x="185" y="-14"/>
      <point x="495" y="-14" type="curve" smooth="yes"/>
      <point x="612" y="-14"/>
      <point x="1063" y="0"/>
      <point x="1063" y="0" type="curve"/>
      <point x="710" y="138" type="line"/>
      <point x="666" y="116"/>
      <point x="604" y="110"/>
      <point x="544" y="110" type="curve" smooth="yes"/>
      <point x="372" y="110"/>
      <point x="296" y="232"/>
      <point x="316" y="372" type="curve" smooth="yes"/>
      <point x="331" y="479"/>
      <point x="431" y="620"/>
      <point x="663" y="620" type="curve" smooth="yes"/>
      <point x="751" y="620"/>
      <point x="816" y="607"/>
      <point x="878" y="597" type="curve"/>
      <point x="904" y="705" type="line"/>
      <point x="836" y="725"/>
      <point x="742" y="740"/>
      <point x="641" y="740" type="curve" smooth="yes"/>
      <point x="269" y="740"/>
      <point x="77" y="551"/>
    </contour>
    <contour>
      <point x="1107" y="0" type="line"/>
      <point x="1118" y="83" type="line"/>
      <point x="1031" y="101"/>
      <point x="978" y="126"/>
      <point x="981" y="144" type="curve" smooth="yes"/>
      <point x="1117" y="1115" type="line" smooth="yes"/>
      <point x="1119" y="1131"/>
      <point x="1173" y="1158"/>
      <point x="1272" y="1177" type="curve"/>
      <point x="1284" y="1260" type="line"/>
      <point x="881" y="1260" type="line"/>
      <point x="713" y="1260" type="line"/>
      <point x="707" y="1217" type="line"/>
      <point x="794" y="1198"/>
      <point x="843" y="1155"/>
      <point x="840" y="1137" type="curve" smooth="yes"/>
      <point x="701" y="144" type="line" smooth="yes"/>
      <point x="698" y="126"/>
      <point x="660" y="110"/>
      <point x="496" y="83" type="curve"/>
      <point x="515" y="0" type="line"/>
    </contour>
    <contour>
      <point x="1018" y="1130" type="line"/>
      <point x="1009" y="1260" type="line"/>
      <point x="332" y="1260" type="line"/>
      <point x="308" y="1190"/>
      <point x="259" y="982"/>
      <point x="249" y="904" type="curve"/>
      <point x="329" y="885" type="line"/>
      <point x="411" y="1041"/>
      <point x="451" y="1130"/>
      <point x="492" y="1130" type="curve" smooth="yes"/>
    </contour>
  </outline>
</glyph>
<glyph name="LtnSmDTopbar" format="2">
  <advance width="1034"/>
  <unicode hex="018C"/>
  <anchor x="360" y="-100" name="L"/>
  <anchor x="600" y="1640" name="U"/>
  <outline>
    <contour>
      <point x="1009" y="116" type="curve"/>
      <point x="992" y="194" type="line"/>
      <point x="945" y="174"/>
      <point x="919" y="168"/>
      <point x="885" y="168" type="curve" smooth="yes"/>
      <point x="854" y="168"/>
      <point x="830" y="215"/>
      <point x="830" y="339" type="curve" smooth="yes"/>
      <point x="830" y="469"/>
      <point x="985" y="1213"/>
      <point x="985" y="1360" type="curve" smooth="yes"/>
      <point x="985" y="1404"/>
      <point x="986" y="1490"/>
      <point x="962" y="1490" type="curve" smooth="yes"/>
      <point x="911" y="1490"/>
      <point x="680" y="1388"/>
      <point x="652" y="1360" type="curve"/>
      <point x="676" y="1360"/>
      <point x="704" y="1347"/>
      <point x="704" y="1286" type="curve" smooth="yes"/>
      <point x="704" y="1099"/>
      <point x="567" y="372"/>
      <point x="567" y="249" type="curve" smooth="yes"/>
      <point x="567" y="-11"/>
      <point x="695" y="-41"/>
      <point x="716" y="-41" type="curve" smooth="yes"/>
      <point x="761" y="-41"/>
      <point x="896" y="40"/>
    </contour>
    <contour>
      <point x="863" y="811" type="curve"/>
      <point x="806" y="803"/>
      <point x="698" y="936"/>
      <point x="622" y="936" type="curve" smooth="yes"/>
      <point x="520" y="936"/>
      <point x="406" y="889"/>
      <point x="332" y="842" type="curve" smooth="yes"/>
      <point x="143" y="717"/>
      <point x="33" y="526"/>
      <point x="33" y="315" type="curve" smooth="yes"/>
      <point x="33" y="66"/>
      <point x="156" y="-41"/>
      <point x="266" y="-41" type="curve" smooth="yes"/>
      <point x="383" y="-41"/>
      <point x="520" y="86"/>
      <point x="610" y="245" type="curve"/>
      <point x="597" y="393" type="line"/>
      <point x="514" y="262"/>
      <point x="424" y="176"/>
      <point x="376" y="176" type="curve" smooth="yes"/>
      <point x="345" y="176"/>
      <point x="290" y="207"/>
      <point x="290" y="379" type="curve" smooth="yes"/>
      <point x="290" y="537"/>
      <point x="357" y="781"/>
      <point x="519" y="781" type="curve" smooth="yes"/>
      <point x="616" y="781"/>
      <point x="696" y="609"/>
      <point x="745" y="609" type="curve" smooth="yes"/>
      <point x="780" y="609"/>
      <point x="806" y="772"/>
    </contour>
    <contour>
      <point x="984" y="1360" type="line"/>
      <point x="957" y="1490" type="line"/>
      <point x="310" y="1490" type="line"/>
      <point x="288" y="1420"/>
      <point x="240" y="1212"/>
      <point x="231" y="1134" type="curve"/>
      <point x="311" y="1115" type="line"/>
      <point x="386" y="1271"/>
      <point x="424" y="1360"/>
      <point x="461" y="1360" type="curve" smooth="yes"/>
    </contour>
  </outline>
</glyph>
<glyph name="LtnSmTrndDelta" format="2">
  <advance width="938"/>
  <unicode hex="018D"/>
  <anchor x="291" y="-600" name="L"/>
  <anchor x="511" y="1000" name="U"/>
  <outline>
    <contour>
      <point x="-86" y="-342" type="curve"/>
      <point x="-76" y="-361"/>
      <point x="-55" y="-402"/>
      <point x="-48" y="-408" type="curve"/>
      <point x="-20" y="-388"/>
      <point x="29" y="-370"/>
      <point x="80" y="-370" type="curve" smooth="yes"/>
      <point x="183" y="-370"/>
      <point x="284" y="-503"/>
      <point x="444" y="-503" type="curve" smooth="yes"/>
      <point x="620" y="-503"/>
      <point x="738" y="-381"/>
      <point x="755" y="-260" type="curve" smooth="yes"/>
      <point x="806" y="112"/>
      <point x="219" y="54"/>
      <point x="282" y="525" type="curve" smooth="yes"/>
      <point x="305" y="695"/>
      <point x="404" y="788"/>
      <point x="467" y="788" type="curve" smooth="yes"/>
      <point x="585" y="788"/>
      <point x="661" y="623"/>
      <point x="635" y="426" type="curve"/>
      <point x="609" y="240"/>
      <point x="534" y="119"/>
      <point x="361" y="46" type="curve"/>
      <point x="359" y="42"/>
      <point x="359" y="36"/>
      <point x="358" y="30" type="curve" smooth="yes"/>
      <point x="355" y="11"/>
      <point x="391" y="-38"/>
      <point x="398" y="-55" type="curve"/>
      <point x="622" y="29"/>
      <point x="862" y="214"/>
      <point x="899" y="481" type="curve"/>
      <point x="930" y="715"/>
      <point x="843" y="936"/>
      <point x="532" y="936" type="curve" smooth="yes"/>
      <point x="270" y="936"/>
      <point x="68" y="699"/>
      <point x="36" y="457" type="curve"/>
      <point x="-34" y="-54"/>
      <point x="602" y="-68"/>
      <point x="561" y="-310" type="curve" smooth="yes"/>
      <point x="550" y="-374"/>
      <point x="511" y="-384"/>
      <point x="479" y="-384" type="curve" smooth="yes"/>
      <point x="394" y="-384"/>
      <point x="199" y="-155"/>
      <point x="157" y="-155" type="curve" smooth="yes"/>
      <point x="134" y="-155"/>
      <point x="4" y="-253"/>
    </contour>
  </outline>
</glyph>
<glyph name="LtnCapOpnE" format="2">
  <advance width="1018"/>
  <unicode hex="0190"/>
  <anchor x="437" y="-100" name="L"/>
  <anchor x="622" y="1320" name="U"/>
  <outline>
    <contour>
      <point x="1046" y="1186" type="curve"/>
      <point x="939" y="1262"/>
      <point x="809" y="1290"/>
      <point x="701" y="1290" type="curve" smooth="yes"/>
      <point x="562" y="1290"/>
      <point x="450" y="1254"/>
      <point x="361" y="1202" type="curve" smooth="yes"/>
      <point x="236" y="1129"/>
      <point x="148" y="1019"/>
      <point x="148" y="876" type="curve" smooth="yes"/>
      <point x="148" y="770"/>
      <point x="224" y="684"/>
      <point x="318" y="645" type="curve"/>
      <point x="183" y="583"/>
      <point x="33" y="444"/>
      <point x="33" y="290" type="curve" smooth="yes"/>
      <point x="33" y="61"/>
      <point x="207" y="-31"/>
      <point x="410" y="-31" type="curve" smooth="yes"/>
      <point x="562" y="-31"/>
      <point x="710" y="9"/>
      <point x="925" y="213" type="curve"/>
      <point x="879" y="298" type="line"/>
      <point x="721" y="186"/>
      <point x="640" y="160"/>
      <point x="526" y="160" type="curve" smooth="yes"/>
      <point x="389" y="160"/>
      <point x="303" y="222"/>
      <point x="303" y="351" type="curve" smooth="yes"/>
      <point x="303" y="523"/>
      <point x="517" y="606"/>
      <point x="704" y="611" type="curve"/>
      <point x="719" y="722" type="line"/>
      <point x="471" y="733"/>
      <point x="397" y="827"/>
      <point x="397" y="927" type="curve" smooth="yes"/>
      <point x="397" y="1069"/>
      <point x="488" y="1151"/>
      <point x="628" y="1151" type="curve" smooth="yes"/>
      <point x="734" y="1151"/>
      <point x="802" y="1069"/>
      <point x="836" y="963" type="curve"/>
      <point x="908" y="945" type="line"/>
      <point x="945" y="984"/>
      <point x="1025" y="1141"/>
    </contour>
  </outline>
</glyph>
<glyph name="LtnCapFHook" format="2">
  <advance width="974"/>
  <unicode hex="0191"/>
  <anchor x="547" y="-100" name="L"/>
  <anchor x="651" y="1320" name="U"/>
  <outline>
    <contour>
      <point x="410" y="259" type="curve" smooth="yes"/>
      <point x="459" y="615" type="line"/>
      <point x="564" y="615" type="line" smooth="yes"/>
      <point x="664" y="615"/>
      <point x="710" y="599"/>
      <point x="741" y="560" type="curve"/>
      <point x="769" y="581"/>
      <point x="824" y="660"/>
      <point x="846" y="697" type="curve"/>
      <point x="814" y="735" type="line"/>
      <point x="476" y="735" type="line"/>
      <point x="530" y="1130" type="line"/>
      <point x="841" y="1130" type="line" smooth="yes"/>
      <point x="888" y="1130"/>
      <point x="902" y="1053"/>
      <point x="890" y="930" type="curve"/>
      <point x="971" y="930" type="line"/>
      <point x="992" y="981"/>
      <point x="1036" y="1157"/>
      <point x="1047" y="1225" type="curve"/>
      <point x="1015" y="1260" type="line"/>
      <point x="162" y="1260" type="line"/>
      <point x="151" y="1177" type="line"/>
      <point x="234" y="1158"/>
      <point x="270" y="1131"/>
      <point x="268" y="1115" type="curve" smooth="yes"/>
      <point x="133" y="129" type="line" smooth="yes"/>
      <point x="94" y="-159"/>
      <point x="12" y="-210"/>
      <point x="-64" y="-210" type="curve" smooth="yes"/>
      <point x="-151" y="-210"/>
      <point x="-250" y="-100"/>
      <point x="-274" y="-106" type="curve"/>
      <point x="-308" y="-113"/>
      <point x="-420" y="-248"/>
      <point x="-424" y="-289" type="curve" smooth="yes"/>
      <point x="-427" y="-323"/>
      <point x="-264" y="-400"/>
      <point x="-168" y="-400" type="curve" smooth="yes"/>
      <point x="-67" y="-400"/>
      <point x="45" y="-347"/>
      <point x="116" y="-290" type="curve"/>
      <point x="219" y="-206"/>
      <point x="362" y="-87"/>
    </contour>
  </outline>
</glyph>
<glyph name="LtnCapIStrk" format="2">
  <advance width="652"/>
  <unicode hex="0197"/>
  <anchor x="251" y="-100" name="L"/>
  <anchor x="436" y="1320" name="U"/>
  <outline>
    <contour>
      <point x="693" y="1260" type="line"/>
      <point x="182" y="1260" type="line"/>
      <point x="171" y="1177" type="line"/>
      <point x="257" y="1158"/>
      <point x="289" y="1131"/>
      <point x="287" y="1115" type="curve" smooth="yes"/>
      <point x="154" y="144" type="line" smooth="yes"/>
      <point x="152" y="126"/>
      <point x="106" y="101"/>
      <point x="21" y="83" type="curve"/>
      <point x="10" y="0" type="line"/>
      <point x="521" y="0" type="line"/>
      <point x="532" y="83" type="line"/>
      <point x="445" y="101"/>
      <point x="413" y="128"/>
      <point x="415" y="144" type="curve" smooth="yes"/>
      <point x="548" y="1115" type="line" smooth="yes"/>
      <point x="551" y="1134"/>
      <point x="596" y="1158"/>
      <point x="682" y="1177" type="curve"/>
    </contour>
    <contour>
      <point x="672" y="690" type="line"/>
      <point x="643" y="725" type="line"/>
      <point x="89" y="725" type="line"/>
      <point x="79" y="704"/>
      <point x="44" y="650"/>
      <point x="36" y="630" type="curve"/>
      <point x="62" y="595" type="line"/>
      <point x="618" y="595" type="line"/>
    </contour>
  </outline>
</glyph>
<glyph name="LtnSmKHook" format="2">
  <advance width="1039"/>
  <unicode hex="0199"/>
  <anchor x="543" y="-100" name="L"/>
  <anchor x="782" y="1640" name="U"/>
  <outline>
    <contour>
      <point x="1125" y="1393" type="curve"/>
      <point x="1074" y="1407"/>
      <point x="932" y="1520"/>
      <point x="796" y="1520" type="curve" smooth="yes"/>
      <point x="702" y="1520"/>
      <point x="590" y="1479"/>
      <point x="520" y="1427" type="curve" smooth="yes"/>
      <point x="357" y="1305"/>
      <point x="239" y="1107"/>
      <point x="209" y="901" type="curve" smooth="yes"/>
      <point x="179" y="690"/>
      <point x="86" y="155"/>
      <point x="66" y="0" type="curve"/>
      <point x="111" y="-41" type="line"/>
      <point x="144" y="-23"/>
      <point x="333" y="58"/>
      <point x="370" y="77" type="curve"/>
      <point x="346" y="212"/>
      <point x="428" y="620"/>
      <point x="479" y="952" type="curve" smooth="yes"/>
      <point x="527" y="1263"/>
      <point x="612" y="1337"/>
      <point x="703" y="1337" type="curve" smooth="yes"/>
      <point x="776" y="1337"/>
      <point x="827" y="1215"/>
      <point x="872" y="1215" type="curve" smooth="yes"/>
      <point x="907" y="1215"/>
      <point x="1068" y="1352"/>
    </contour>
    <contour>
      <point x="1039" y="128" type="curve"/>
      <point x="1002" y="202" type="line"/>
      <point x="951" y="174"/>
      <point x="898" y="166"/>
      <point x="868" y="166" type="curve" smooth="yes"/>
      <point x="778" y="166"/>
      <point x="687" y="486"/>
      <point x="568" y="555" type="curve"/>
      <point x="369" y="504" type="line"/>
      <point x="478" y="426"/>
      <point x="601" y="-39"/>
      <point x="746" y="-39" type="curve" smooth="yes"/>
      <point x="797" y="-39"/>
      <point x="951" y="54"/>
    </contour>
    <contour>
      <point x="1059" y="858" type="curve" smooth="yes"/>
      <point x="1059" y="903"/>
      <point x="1037" y="930"/>
      <point x="953" y="930" type="curve" smooth="yes"/>
      <point x="869" y="930"/>
      <point x="705" y="909"/>
      <point x="627" y="897" type="curve"/>
      <point x="636" y="818" type="line"/>
      <point x="784" y="824"/>
      <point x="751" y="789"/>
      <point x="568" y="650" type="curve"/>
      <point x="369" y="504" type="line"/>
      <point x="533" y="469" type="line"/>
      <point x="740" y="594" type="line"/>
      <point x="940" y="717"/>
      <point x="1059" y="819"/>
    </contour>
  </outline>
</glyph>
<glyph name="LtnSmLBar" format="2">
  <advance width="714"/>
  <unicode hex="019A"/>
  <anchor x="256" y="-100" name="L"/>
  <anchor x="494" y="1640" name="U"/>
  <outline>
    <contour>
      <point x="606" y="122" type="curve"/>
      <point x="589" y="199" type="line"/>
      <point x="530" y="176"/>
      <point x="501" y="166"/>
      <point x="470" y="166" type="curve" smooth="yes"/>
      <point x="449" y="166"/>
      <point x="435" y="180"/>
      <point x="435" y="225" type="curve" smooth="yes"/>
      <point x="435" y="407"/>
      <point x="599" y="1231"/>
      <point x="599" y="1438" type="curve" smooth="yes"/>
      <point x="599" y="1499"/>
      <point x="575" y="1520"/>
      <point x="538" y="1520" type="curve" smooth="yes"/>
      <point x="483" y="1520"/>
      <point x="257" y="1435"/>
      <point x="144" y="1385" type="curve"/>
      <point x="164" y="1306" type="line"/>
      <point x="164" y="1306"/>
      <point x="236" y="1333"/>
      <point x="258" y="1333" type="curve" smooth="yes"/>
      <point x="283" y="1333"/>
      <point x="309" y="1327"/>
      <point x="309" y="1266" type="curve" smooth="yes"/>
      <point x="309" y="1079"/>
      <point x="147" y="211"/>
      <point x="147" y="78" type="curve" smooth="yes"/>
      <point x="147" y="0"/>
      <point x="182" y="-41"/>
      <point x="219" y="-41" type="curve" smooth="yes"/>
      <point x="307" y="-41"/>
      <point x="475" y="40"/>
    </contour>
    <contour>
      <point x="731" y="810" type="line"/>
      <point x="702" y="845" type="line"/>
      <point x="78" y="845" type="line"/>
      <point x="66" y="824"/>
      <point x="32" y="768"/>
      <point x="23" y="747" type="curve"/>
      <point x="52" y="715" type="line"/>
      <point x="676" y="715" type="line"/>
    </contour>
  </outline>
</glyph>
<glyph name="LtnSmLambdaStrk" format="2">
  <advance width="1057"/>
  <unicode hex="019B"/>
  <anchor x="426" y="-100" name="L"/>
  <anchor x="664" y="1640" name="U"/>
  <outline>
    <contour>
      <point x="1042" y="298" type="curve"/>
      <point x="989" y="346" type="line"/>
      <point x="950" y="284"/>
      <point x="895" y="221"/>
      <point x="865" y="221" type="curve" smooth="yes"/>
      <point x="795" y="221"/>
      <point x="765" y="493"/>
      <point x="735" y="776" type="curve" smooth="yes"/>
      <point x="668" y="1405"/>
      <point x="603" y="1520"/>
      <point x="451" y="1520" type="curve" smooth="yes"/>
      <point x="298" y="1520"/>
      <point x="214" y="1352"/>
      <point x="128" y="1177" type="curve"/>
      <point x="194" y="1125" type="line"/>
      <point x="226" y="1201"/>
      <point x="291" y="1283"/>
      <point x="337" y="1283" type="curve" smooth="yes"/>
      <point x="421" y="1283"/>
      <point x="460" y="1140"/>
      <point x="501" y="785" type="curve" smooth="yes"/>
      <point x="589" y="21"/>
      <point x="605" y="-41"/>
      <point x="747" y="-41" type="curve" smooth="yes"/>
      <point x="840" y="-41"/>
      <point x="964" y="124"/>
    </contour>
    <contour>
      <point x="587" y="851" type="curve"/>
      <point x="585" y="871"/>
      <point x="537" y="1032"/>
      <point x="514" y="1057" type="curve"/>
      <point x="408" y="773"/>
      <point x="212" y="322"/>
      <point x="-60" y="2" type="curve"/>
      <point x="-27" y="-41" type="line"/>
      <point x="20" y="-26"/>
      <point x="180" y="-16"/>
      <point x="229" y="-10" type="curve"/>
      <point x="367" y="320"/>
      <point x="429" y="596"/>
    </contour>
    <contour>
      <point x="821" y="1466" type="curve"/>
      <point x="789" y="1484" type="line"/>
      <point x="238" y="1036" type="line"/>
      <point x="228" y="1001"/>
      <point x="221" y="942"/>
      <point x="221" y="915" type="curve"/>
      <point x="251" y="898" type="line"/>
      <point x="805" y="1350" type="line"/>
      <point x="813" y="1378"/>
      <point x="820" y="1435"/>
    </contour>
  </outline>
</glyph>
<glyph name="LtnCapNLftHook" format="2">
  <advance width="1273"/>
  <unicode hex="019D"/>
  <anchor x="513" y="-600" name="L"/>
  <anchor x="763" y="1320" name="U"/>
  <outline>
    <contour>
      <point x="284" y="1175" type="line"/>
      <point x="147" y="175" type="line" smooth="yes"/>
      <point x="99" y="-178"/>
      <point x="29" y="-217"/>
      <point x="-33" y="-217" type="curve" smooth="yes"/>
      <point x="-121" y="-217"/>
      <point x="-163" y="-120"/>
      <point x="-178" y="-120" type="curve" smooth="yes"/>
      <point x="-223" y="-120"/>
      <point x="-366" y="-269"/>
      <point x="-366" y="-300" type="curve" smooth="yes"/>
      <point x="-366" y="-344"/>
      <point x="-273" y="-401"/>
      <point x="-188" y="-401" type="curve" smooth="yes"/>
      <point x="-102" y="-401"/>
      <point x="-15" y="-371"/>
      <point x="64" y="-308" type="curve" smooth="yes"/>
      <point x="171" y="-223"/>
      <point x="257" y="-109"/>
      <point x="305" y="247" type="curve" smooth="yes"/>
      <point x="428" y="1155" type="line"/>
    </contour>
    <contour>
      <point x="1369" y="1260" type="line"/>
      <point x="969" y="1260" type="line"/>
      <point x="958" y="1177" type="line"/>
      <point x="1056" y="1162"/>
      <point x="1077" y="1131"/>
      <point x="1075" y="1115" type="curve" smooth="yes"/>
      <point x="970" y="353" type="line"/>
      <point x="528" y="1182" type="line" smooth="yes"/>
      <point x="492" y="1251"/>
      <point x="486" y="1260"/>
      <point x="450" y="1260" type="curve" smooth="yes"/>
      <point x="169" y="1260" type="line"/>
      <point x="158" y="1177" type="line"/>
      <point x="199" y="1170"/>
      <point x="247" y="1148"/>
      <point x="273" y="1102" type="curve" smooth="yes"/>
      <point x="479" y="735"/>
      <point x="613" y="485"/>
      <point x="824" y="91" type="curve" smooth="yes"/>
      <point x="855" y="33"/>
      <point x="932" y="-19"/>
      <point x="1066" y="-30" type="curve"/>
      <point x="1223" y="1115" type="line" smooth="yes"/>
      <point x="1226" y="1134"/>
      <point x="1267" y="1164"/>
      <point x="1358" y="1177" type="curve"/>
    </contour>
  </outline>
</glyph>
<glyph name="LtnSmNLngRtLeg" format="2">
  <advance width="1086"/>
  <unicode hex="019E"/>
  <anchor x="358" y="-600" name="L"/>
  <anchor x="577" y="1000" name="U"/>
  <outline>
    <contour>
      <point x="1011" y="-338" type="curve"/>
      <point x="981" y="-261" type="line"/>
      <point x="926" y="-284"/>
      <point x="908" y="-294"/>
      <point x="877" y="-294" type="curve" smooth="yes"/>
      <point x="853" y="-294"/>
      <point x="841" y="-280"/>
      <point x="841" y="-235" type="curve" smooth="yes"/>
      <point x="841" y="-124"/>
      <point x="998" y="643"/>
      <point x="998" y="782" type="curve" smooth="yes"/>
      <point x="998" y="911"/>
      <point x="948" y="936"/>
      <point x="864" y="936" type="curve" smooth="yes"/>
      <point x="745" y="936"/>
      <point x="600" y="870"/>
      <point x="455" y="738" type="curve"/>
      <point x="459" y="771"/>
      <point x="460" y="795"/>
      <point x="460" y="823" type="curve" smooth="yes"/>
      <point x="460" y="918"/>
      <point x="448" y="936"/>
      <point x="411" y="936" type="curve" smooth="yes"/>
      <point x="368" y="936"/>
      <point x="140" y="851"/>
      <point x="27" y="802" type="curve"/>
      <point x="47" y="723" type="line"/>
      <point x="47" y="723"/>
      <point x="121" y="749"/>
      <point x="144" y="749" type="curve" smooth="yes"/>
      <point x="168" y="749"/>
      <point x="182" y="743"/>
      <point x="182" y="682" type="curve" smooth="yes"/>
      <point x="182" y="588"/>
      <point x="133" y="266"/>
      <point x="78" y="0" type="curve"/>
      <point x="121" y="-41" type="line"/>
      <point x="154" y="-23"/>
      <point x="339" y="56"/>
      <point x="374" y="75" type="curve"/>
      <point x="372" y="134"/>
      <point x="376" y="182"/>
      <point x="397" y="301" type="curve" smooth="yes"/>
      <point x="419" y="430"/>
      <point x="437" y="517"/>
      <point x="477" y="580" type="curve" smooth="yes"/>
      <point x="547" y="690"/>
      <point x="628" y="716"/>
      <point x="663" y="716" type="curve" smooth="yes"/>
      <point x="701" y="716"/>
      <point x="709" y="691"/>
      <point x="709" y="620" type="curve" smooth="yes"/>
      <point x="709" y="412"/>
      <point x="562" y="-154"/>
      <point x="562" y="-364" type="curve" smooth="yes"/>
      <point x="562" y="-436"/>
      <point x="593" y="-501"/>
      <point x="650" y="-501" type="curve" smooth="yes"/>
      <point x="722" y="-501"/>
      <point x="890" y="-410"/>
    </contour>
  </outline>
</glyph>
<glyph name="LtnSmOi" format="2">
  <advance width="1426"/>
  <unicode hex="01A3"/>
  <anchor x="473" y="-100" name="L"/>
  <anchor x="880" y="1000" name="U"/>
  <outline>
    <contour>
      <point x="891" y="559" type="curve" smooth="yes"/>
      <point x="891" y="780"/>
      <point x="766" y="936"/>
      <point x="557" y="936" type="curve" smooth="yes"/>
      <point x="465" y="936"/>
      <point x="357" y="893"/>
      <point x="287" y="840" type="curve" smooth="yes"/>
      <point x="108" y="704"/>
      <point x="33" y="535"/>
      <point x="33" y="344" type="curve" smooth="yes"/>
      <point x="33" y="125"/>
      <point x="165" y="-41"/>
      <point x="381" y="-41" type="curve" smooth="yes"/>
      <point x="461" y="-41"/>
      <point x="572" y="6"/>
      <point x="642" y="63" type="curve" smooth="yes"/>
      <point x="791" y="186"/>
      <point x="891" y="381"/>
    </contour>
    <contour>
      <point x="628" y="473" type="curve" smooth="yes"/>
      <point x="628" y="309"/>
      <point x="583" y="102"/>
      <point x="449" y="102" type="curve" smooth="yes"/>
      <point x="376" y="102"/>
      <point x="297" y="250"/>
      <point x="297" y="428" type="curve" smooth="yes"/>
      <point x="297" y="598"/>
      <point x="345" y="789"/>
      <point x="488" y="789" type="curve" smooth="yes"/>
      <point x="555" y="789"/>
      <point x="628" y="676"/>
    </contour>
    <contour>
      <point x="1351" y="-338" type="curve"/>
      <point x="1321" y="-261" type="line"/>
      <point x="1266" y="-284"/>
      <point x="1248" y="-294"/>
      <point x="1217" y="-294" type="curve" smooth="yes"/>
      <point x="1193" y="-294"/>
      <point x="1181" y="-280"/>
      <point x="1181" y="-235" type="curve" smooth="yes"/>
      <point x="1181" y="-124"/>
      <point x="1338" y="643"/>
      <point x="1338" y="782" type="curve" smooth="yes"/>
      <point x="1338" y="911"/>
      <point x="1288" y="936"/>
      <point x="1204" y="936" type="curve" smooth="yes"/>
      <point x="1065" y="936"/>
      <point x="940" y="870"/>
      <point x="795" y="738" type="curve"/>
      <point x="802" y="685"/>
      <point x="810" y="633"/>
      <point x="817" y="580" type="curve"/>
      <point x="877" y="660"/>
      <point x="968" y="716"/>
      <point x="1003" y="716" type="curve" smooth="yes"/>
      <point x="1047" y="716"/>
      <point x="1049" y="691"/>
      <point x="1049" y="620" type="curve" smooth="yes"/>
      <point x="1049" y="412"/>
      <point x="902" y="-154"/>
      <point x="902" y="-364" type="curve" smooth="yes"/>
      <point x="902" y="-436"/>
      <point x="933" y="-501"/>
      <point x="990" y="-501" type="curve" smooth="yes"/>
      <point x="1062" y="-501"/>
      <point x="1230" y="-410"/>
    </contour>
  </outline>
</glyph>
<glyph name="LtnCapPHook" format="2">
  <advance width="1366"/>
  <unicode hex="01A4"/>
  <anchor x="685" y="-100" name="L"/>
  <anchor x="880" y="1320" name="U"/>
  <outline>
    <contour>
      <point x="103" y="953" type="curve" smooth="yes"/>
      <point x="93" y="880"/>
      <point x="118" y="787"/>
      <point x="159" y="766" type="curve"/>
      <point x="210" y="777"/>
      <point x="404" y="864"/>
      <point x="413" y="880" type="curve"/>
      <point x="378" y="899"/>
      <point x="359" y="938"/>
      <point x="365" y="986" type="curve" smooth="yes"/>
      <point x="380" y="1095"/>
      <point x="483" y="1165"/>
      <point x="756" y="1176" type="curve" smooth="yes"/>
      <point x="842" y="1180"/>
      <point x="913" y="1177"/>
      <point x="969" y="1158" type="curve" smooth="yes"/>
      <point x="1070" y="1124"/>
      <point x="1122" y="1044"/>
      <point x="1122" y="905" type="curve" smooth="yes"/>
      <point x="1122" y="696"/>
      <point x="1003" y="630"/>
      <point x="883" y="630" type="curve" smooth="yes"/>
      <point x="840" y="630"/>
      <point x="809" y="642"/>
      <point x="762" y="663" type="curve"/>
      <point x="781" y="549" type="line"/>
      <point x="818" y="529"/>
      <point x="869" y="515"/>
      <point x="924" y="515" type="curve" smooth="yes"/>
      <point x="1146" y="515"/>
      <point x="1396" y="689"/>
      <point x="1396" y="942" type="curve" smooth="yes"/>
      <point x="1396" y="1124"/>
      <point x="1292" y="1212"/>
      <point x="1155" y="1253" type="curve" smooth="yes"/>
      <point x="1042" y="1287"/>
      <point x="906" y="1290"/>
      <point x="788" y="1290" type="curve" smooth="yes"/>
      <point x="303" y="1290"/>
      <point x="127" y="1125"/>
    </contour>
    <contour>
      <point x="822" y="1260" type="line"/>
      <point x="562" y="1260" type="line"/>
      <point x="409" y="144" type="line" smooth="yes"/>
      <point x="407" y="126"/>
      <point x="362" y="101"/>
      <point x="278" y="83" type="curve"/>
      <point x="265" y="0" type="line"/>
      <point x="799" y="0" type="line"/>
      <point x="810" y="83" type="line"/>
      <point x="685" y="106"/>
      <point x="665" y="128"/>
      <point x="669" y="144" type="curve"/>
    </contour>
  </outline>
</glyph>
<glyph name="LtnCapTnTwo" format="2">
  <advance width="1000"/>
  <unicode hex="01A7"/>
  <anchor x="295" y="-100" name="L"/>
  <anchor x="490" y="1320" name="U"/>
  <outline>
    <contour>
      <point x="14" y="347" type="curve" smooth="yes"/>
      <point x="-11" y="169"/>
      <point x="86" y="-30"/>
      <point x="417" y="-30" type="curve" smooth="yes"/>
      <point x="625" y="-30"/>
      <point x="755" y="18"/>
      <point x="857" y="78" type="curve"/>
      <point x="877" y="88"/>
      <point x="897" y="332"/>
      <point x="887" y="404" type="curve"/>
      <point x="803" y="399" type="line"/>
      <point x="740" y="242"/>
      <point x="588" y="120"/>
      <point x="452" y="120" type="curve" smooth="yes"/>
      <point x="342" y="120"/>
      <point x="246" y="197"/>
      <point x="265" y="334" type="curve" smooth="yes"/>
      <point x="308" y="639"/>
      <point x="945" y="560"/>
      <point x="1005" y="987" type="curve" smooth="yes"/>
      <point x="1022" y="1112"/>
      <point x="950" y="1290"/>
      <point x="617" y="1290" type="curve" smooth="yes"/>
      <point x="416" y="1290"/>
      <point x="272" y="1241"/>
      <point x="184" y="1178" type="curve" smooth="yes"/>
      <point x="163" y="1162"/>
      <point x="202" y="984"/>
      <point x="231" y="955" type="curve"/>
      <point x="313" y="961" type="line"/>
      <point x="359" y="1049"/>
      <point x="441" y="1156"/>
      <point x="607" y="1156" type="curve" smooth="yes"/>
      <point x="715" y="1156"/>
      <point x="771" y="1080"/>
      <point x="760" y="1004" type="curve" smooth="yes"/>
      <point x="733" y="812"/>
      <point x="78" y="802"/>
    </contour>
  </outline>
</glyph>
<glyph name="LtnRevEshLoop" format="2">
  <advance width="737"/>
  <unicode hex="01AA"/>
  <anchor x="457" y="-600" name="L"/>
  <anchor x="584" y="1640" name="U"/>
  <outline>
    <contour>
      <point x="148" y="1257" type="curve" smooth="yes"/>
      <point x="134" y="1153"/>
      <point x="199" y="1041"/>
      <point x="330" y="1041" type="curve"/>
      <point x="412" y="1042"/>
      <point x="521" y="1112"/>
      <point x="601" y="1239" type="curve"/>
      <point x="571" y="1329" type="line"/>
      <point x="562" y="1321"/>
      <point x="513" y="1210"/>
      <point x="424" y="1210" type="curve" smooth="yes"/>
      <point x="385" y="1210"/>
      <point x="353" y="1249"/>
      <point x="361" y="1308" type="curve" smooth="yes"/>
      <point x="367" y="1349"/>
      <point x="401" y="1397"/>
      <point x="452" y="1397" type="curve" smooth="yes"/>
      <point x="519" y="1397"/>
      <point x="514" y="1293"/>
      <point x="487" y="1094" type="curve" smooth="yes"/>
      <point x="440" y="748"/>
      <point x="353" y="389"/>
      <point x="300" y="1" type="curve" smooth="yes"/>
      <point x="256" y="-321"/>
      <point x="335" y="-500"/>
      <point x="534" y="-500" type="curve" smooth="yes"/>
      <point x="724" y="-500"/>
      <point x="949" y="-274"/>
      <point x="947" y="-148" type="curve"/>
      <point x="919" y="-78" type="line"/>
      <point x="834" y="-95"/>
      <point x="659" y="-166"/>
      <point x="665" y="-178" type="curve" smooth="yes"/>
      <point x="709" y="-268"/>
      <point x="687" y="-337"/>
      <point x="618" y="-337" type="curve" smooth="yes"/>
      <point x="566" y="-337"/>
      <point x="524" y="-251"/>
      <point x="569" y="61" type="curve" smooth="yes"/>
      <point x="616" y="388"/>
      <point x="705" y="787"/>
      <point x="759" y="1184" type="curve"/>
      <point x="783" y="1354"/>
      <point x="732" y="1520"/>
      <point x="540" y="1520" type="curve" smooth="yes"/>
      <point x="295" y="1520"/>
      <point x="163" y="1372"/>
    </contour>
  </outline>
</glyph>
<glyph name="LtnSmTHook" format="2">
  <advance width="714"/>
  <unicode hex="01AD"/>
  <anchor x="334" y="-100" name="L"/>
  <anchor x="618" y="1640" name="U"/>
  <outline>
    <contour>
      <point x="1053" y="1393" type="curve"/>
      <point x="1012" y="1407"/>
      <point x="871" y="1520"/>
      <point x="734" y="1520" type="curve" smooth="yes"/>
      <point x="652" y="1520"/>
      <point x="570" y="1479"/>
      <point x="499" y="1427" type="curve" smooth="yes"/>
      <point x="329" y="1300"/>
      <point x="256" y="1116"/>
      <point x="229" y="899" type="curve"/>
      <point x="148" y="338" type="line" smooth="yes"/>
      <point x="137" y="264"/>
      <point x="133" y="211"/>
      <point x="133" y="160" type="curve" smooth="yes"/>
      <point x="133" y="43"/>
      <point x="232" y="-41"/>
      <point x="318" y="-41" type="curve" smooth="yes"/>
      <point x="397" y="-41"/>
      <point x="560" y="46"/>
      <point x="711" y="167" type="curve"/>
      <point x="681" y="254" type="line"/>
      <point x="581" y="209"/>
      <point x="526" y="190"/>
      <point x="479" y="190" type="curve" smooth="yes"/>
      <point x="442" y="190"/>
      <point x="415" y="218"/>
      <point x="415" y="300" type="curve" smooth="yes"/>
      <point x="415" y="327"/>
      <point x="417" y="361"/>
      <point x="422" y="392" type="curve" smooth="yes"/>
      <point x="503" y="952" type="line"/>
      <point x="521" y="1122"/>
      <point x="556" y="1337"/>
      <point x="656" y="1337" type="curve" smooth="yes"/>
      <point x="722" y="1337"/>
      <point x="762" y="1215"/>
      <point x="807" y="1215" type="curve" smooth="yes"/>
      <point x="840" y="1215"/>
      <point x="996" y="1352"/>
    </contour>
    <contour>
      <point x="773" y="867" type="curve"/>
      <point x="743" y="905" type="line"/>
      <point x="194" y="905" type="line"/>
      <point x="53" y="816" type="line"/>
      <point x="78" y="775" type="line"/>
      <point x="493" y="775" type="line" smooth="yes"/>
      <point x="573" y="775"/>
      <point x="612" y="767"/>
      <point x="626" y="730" type="curve"/>
      <point x="653" y="744"/>
      <point x="747" y="830"/>
    </contour>
  </outline>
</glyph>
<glyph name="LtnCapUHorn" format="1">
  <advance width="1478"/>
  <unicode hex="01AF"/>
  <outline>
    <component base="LtnCapU"/>
    <component base="CombHorn" xOffset="1310" yOffset="380"/>
    <contour>
      <point x="590" y="-100" type="move" name="L"/>
    </contour>
    <contour>
      <point x="774" y="1320" type="move" name="U"/>
    </contour>
  </outline>
</glyph>
<glyph name="LtnCapYHook.RtHook" format="2">
  <advance width="1358"/>
  <unicode hex="01B3"/>
  <anchor x="536" y="-100" name="L"/>
  <anchor x="731" y="1320" name="U"/>
  <outline>
    <contour>
      <point x="829" y="0" type="line"/>
      <point x="840" y="83" type="line"/>
      <point x="727" y="108"/>
      <point x="702" y="138"/>
      <point x="705" y="155" type="curve"/>
      <point x="755" y="523" type="line"/>
      <point x="1077" y="1035" type="line" smooth="yes"/>
      <point x="1112" y="1092"/>
      <point x="1150" y="1141"/>
      <point x="1198" y="1141" type="curve" smooth="yes"/>
      <point x="1243" y="1141"/>
      <point x="1266" y="1107"/>
      <point x="1258" y="1047" type="curve" smooth="yes"/>
      <point x="1251" y="999"/>
      <point x="1211" y="941"/>
      <point x="1188" y="905" type="curve"/>
      <point x="1205" y="836" type="line"/>
      <point x="1244" y="847"/>
      <point x="1418" y="929"/>
      <point x="1435" y="963" type="curve" smooth="yes"/>
      <point x="1444" y="979"/>
      <point x="1469" y="1055"/>
      <point x="1475" y="1101" type="curve" smooth="yes"/>
      <point x="1491" y="1218"/>
      <point x="1427" y="1320"/>
      <point x="1280" y="1320" type="curve" smooth="yes"/>
      <point x="1133" y="1320"/>
      <point x="1036" y="1226"/>
      <point x="960" y="1100" type="curve" smooth="yes"/>
      <point x="708" y="680" type="line"/>
      <point x="648" y="872"/>
      <point x="562" y="1092"/>
      <point x="487" y="1221" type="curve" smooth="yes"/>
      <point x="471" y="1247"/>
      <point x="438" y="1270"/>
      <point x="393" y="1270" type="curve" smooth="yes"/>
      <point x="342" y="1270"/>
      <point x="204" y="1250"/>
      <point x="129" y="1239" type="curve"/>
      <point x="122" y="1156" type="line"/>
      <point x="225" y="1156"/>
      <point x="240" y="1140"/>
      <point x="259" y="1111" type="curve"/>
      <point x="329" y="982"/>
      <point x="434" y="733"/>
      <point x="493" y="518" type="curve"/>
      <point x="444" y="155" type="line" smooth="yes"/>
      <point x="441" y="136"/>
      <point x="407" y="108"/>
      <point x="291" y="83" type="curve"/>
      <point x="280" y="0" type="line"/>
    </contour>
  </outline>
</glyph>
<glyph name="LtnCapZStrk" format="2">
  <advance width="1078"/>
  <unicode hex="01B5"/>
  <anchor x="364" y="-100" name="L"/>
  <anchor x="539" y="1320" name="U"/>
  <outline>
    <contour>
      <point x="1100" y="1207" type="line"/>
      <point x="1075" y="1260" type="line"/>
      <point x="437" y="1260" type="line" smooth="yes"/>
      <point x="364" y="1260"/>
      <point x="328" y="1260"/>
      <point x="262" y="1276" type="curve"/>
      <point x="174" y="895" type="line"/>
      <point x="261" y="873" type="line"/>
      <point x="307" y="1012"/>
      <point x="388" y="1120"/>
      <point x="428" y="1120" type="curve" smooth="yes"/>
      <point x="771" y="1120" type="line"/>
      <point x="11" y="55" type="line"/>
      <point x="40" y="0" type="line"/>
      <point x="934" y="0" type="line"/>
      <point x="945" y="78"/>
      <point x="980" y="287"/>
      <point x="996" y="373" type="curve"/>
      <point x="910" y="397" type="line"/>
      <point x="840" y="233"/>
      <point x="801" y="140"/>
      <point x="748" y="140" type="curve" smooth="yes"/>
      <point x="345" y="140" type="line"/>
    </contour>
    <contour>
      <point x="967" y="685" type="line"/>
      <point x="948" y="710" type="line"/>
      <point x="230" y="710" type="line"/>
      <point x="216" y="689"/>
      <point x="184" y="623"/>
      <point x="175" y="602" type="curve"/>
      <point x="195" y="580" type="line"/>
      <point x="913" y="580" type="line"/>
    </contour>
  </outline>
</glyph>
<glyph name="LtnSmZStrk" format="2">
  <advance width="776"/>
  <unicode hex="01B6"/>
  <anchor x="347" y="-100" name="L"/>
  <anchor x="488" y="1000" name="U"/>
  <outline>
    <contour>
      <point x="787" y="870" type="curve"/>
      <point x="756" y="915" type="line"/>
      <point x="268" y="915" type="line" smooth="yes"/>
      <point x="221" y="915"/>
      <point x="165" y="930"/>
      <point x="140" y="936" type="curve"/>
      <point x="130" y="879"/>
      <point x="86" y="703"/>
      <point x="61" y="584" type="curve"/>
      <point x="134" y="566" type="line"/>
      <point x="173" y="678"/>
      <point x="205" y="705"/>
      <point x="268" y="705" type="curve" smooth="yes"/>
      <point x="475" y="705" type="line"/>
      <point x="359" y="567"/>
      <point x="177" y="265"/>
      <point x="-22" y="25" type="curve"/>
      <point x="18" y="-31" type="line"/>
      <point x="119" y="20"/>
      <point x="182" y="47"/>
      <point x="225" y="47" type="curve" smooth="yes"/>
      <point x="289" y="47"/>
      <point x="411" y="-20"/>
      <point x="522" y="-20" type="curve" smooth="yes"/>
      <point x="653" y="-20"/>
      <point x="710" y="97"/>
      <point x="784" y="263" type="curve"/>
      <point x="718" y="303" type="line"/>
      <point x="667" y="208"/>
      <point x="632" y="194"/>
      <point x="607" y="194" type="curve" smooth="yes"/>
      <point x="549" y="194"/>
      <point x="439" y="246"/>
      <point x="385" y="246" type="curve" smooth="yes"/>
      <point x="352" y="246"/>
      <point x="303" y="230"/>
      <point x="303" y="230" type="curve"/>
      <point x="514" y="500"/>
      <point x="568" y="634"/>
    </contour>
    <contour>
      <point x="728" y="482" type="line"/>
      <point x="699" y="517" type="line"/>
      <point x="110" y="517" type="line"/>
      <point x="98" y="496"/>
      <point x="65" y="440"/>
      <point x="56" y="419" type="curve"/>
      <point x="85" y="387" type="line"/>
      <point x="674" y="387" type="line"/>
    </contour>
  </outline>
</glyph>
<glyph name="LtnCapEzh" format="2">
  <advance width="1042"/>
  <unicode hex="01B7"/>
  <anchor x="467" y="-100" name="L"/>
  <anchor x="652" y="1320" name="U"/>
  <outline>
    <contour>
      <point x="1041" y="1207" type="line"/>
      <point x="1015" y="1260" type="line"/>
      <point x="458" y="1260" type="line" smooth="yes"/>
      <point x="378" y="1260"/>
      <point x="320" y="1260"/>
      <point x="269" y="1276" type="curve"/>
      <point x="180" y="895" type="line"/>
      <point x="267" y="873" type="line"/>
      <point x="309" y="996"/>
      <point x="386" y="1120"/>
      <point x="431" y="1120" type="curve" smooth="yes"/>
      <point x="718" y="1120" type="line"/>
      <point x="310" y="654" type="line"/>
      <point x="354" y="585" type="line"/>
      <point x="664" y="775" type="line"/>
    </contour>
    <contour>
      <point x="986" y="437" type="curve" smooth="yes"/>
      <point x="1018" y="671"/>
      <point x="913" y="806"/>
      <point x="732" y="806" type="curve" smooth="yes"/>
      <point x="626" y="806"/>
      <point x="409" y="714"/>
      <point x="310" y="655" type="curve"/>
      <point x="315" y="644"/>
      <point x="347" y="593"/>
      <point x="354" y="586" type="curve"/>
      <point x="455" y="648"/>
      <point x="491" y="655"/>
      <point x="559" y="655" type="curve" smooth="yes"/>
      <point x="682" y="655"/>
      <point x="769" y="546"/>
      <point x="747" y="386" type="curve" smooth="yes"/>
      <point x="725" y="226"/>
      <point x="627" y="123"/>
      <point x="470" y="123" type="curve" smooth="yes"/>
      <point x="367" y="123"/>
      <point x="280" y="203"/>
      <point x="236" y="338" type="curve"/>
      <point x="163" y="303"/>
      <point x="64" y="161"/>
      <point x="60" y="136" type="curve" smooth="yes"/>
      <point x="52" y="80"/>
      <point x="200" y="-27"/>
      <point x="414" y="-27" type="curve" smooth="yes"/>
      <point x="650" y="-27"/>
      <point x="948" y="155"/>
    </contour>
  </outline>
</glyph>
<glyph name="LtnSmEzhRev" format="2">
  <advance width="890"/>
  <unicode hex="01B9"/>
  <anchor x="312" y="-600" name="L"/>
  <anchor x="531" y="1000" name="U"/>
  <outline>
    <contour>
      <point x="-60" y="-84" type="curve" smooth="yes"/>
      <point x="-92" y="-291"/>
      <point x="38" y="-500"/>
      <point x="335" y="-500" type="curve" smooth="yes"/>
      <point x="620" y="-500"/>
      <point x="825" y="-285"/>
      <point x="821" y="-137" type="curve"/>
      <point x="791" y="-97" type="line"/>
      <point x="749" y="-100"/>
      <point x="590" y="-134"/>
      <point x="546" y="-154" type="curve"/>
      <point x="566" y="-313"/>
      <point x="451" y="-347"/>
      <point x="386" y="-347" type="curve" smooth="yes"/>
      <point x="264" y="-347"/>
      <point x="174" y="-233"/>
      <point x="204" y="-46" type="curve" smooth="yes"/>
      <point x="234" y="140"/>
      <point x="341" y="215"/>
      <point x="451" y="215" type="curve" smooth="yes"/>
      <point x="474" y="215"/>
      <point x="505" y="208"/>
      <point x="522" y="198" type="curve"/>
      <point x="555" y="215"/>
      <point x="624" y="262"/>
      <point x="653" y="295" type="curve"/>
      <point x="434" y="706" type="line"/>
      <point x="692" y="706" type="line" smooth="yes"/>
      <point x="731" y="706"/>
      <point x="762" y="694"/>
      <point x="769" y="573" type="curve"/>
      <point x="855" y="585" type="line"/>
      <point x="883" y="931" type="line"/>
      <point x="831" y="915"/>
      <point x="791" y="915"/>
      <point x="716" y="915" type="curve" smooth="yes"/>
      <point x="159" y="915" type="line"/>
      <point x="130" y="870" type="line"/>
      <point x="402" y="371" type="line"/>
      <point x="146" y="316"/>
      <point x="-24" y="149"/>
    </contour>
  </outline>
</glyph>
<glyph name="LtnSmEzhTail" format="2">
  <advance width="819"/>
  <unicode hex="01BA"/>
  <anchor x="273" y="-600" name="L"/>
  <anchor x="493" y="1000" name="U"/>
  <outline>
    <contour>
      <point x="819" y="870" type="line"/>
      <point x="785" y="915" type="line"/>
      <point x="344" y="915" type="line" smooth="yes"/>
      <point x="268" y="915"/>
      <point x="188" y="918"/>
      <point x="149" y="939" type="curve"/>
      <point x="72" y="584" type="line"/>
      <point x="146" y="566" type="line"/>
      <point x="188" y="681"/>
      <point x="217" y="705"/>
      <point x="281" y="705" type="curve" smooth="yes"/>
      <point x="466" y="705" type="line"/>
      <point x="127" y="305" type="line"/>
      <point x="162" y="242" type="line"/>
      <point x="465" y="443" type="line"/>
    </contour>
    <contour>
      <point x="752" y="254" type="curve" smooth="yes"/>
      <point x="771" y="404"/>
      <point x="669" y="472"/>
      <point x="519" y="472" type="curve"/>
      <point x="400" y="472"/>
      <point x="223" y="373"/>
      <point x="127" y="305" type="curve"/>
      <point x="131" y="294"/>
      <point x="156" y="249"/>
      <point x="162" y="242" type="curve"/>
      <point x="242" y="291"/>
      <point x="331" y="333"/>
      <point x="414" y="333" type="curve" smooth="yes"/>
      <point x="507" y="333"/>
      <point x="542" y="272"/>
      <point x="534" y="214" type="curve" smooth="yes"/>
      <point x="527" y="163"/>
      <point x="491" y="124"/>
      <point x="344" y="84" type="curve" smooth="yes"/>
      <point x="70" y="9"/>
      <point x="-38" y="-86"/>
      <point x="-53" y="-219" type="curve" smooth="yes"/>
      <point x="-70" y="-371"/>
      <point x="56" y="-503"/>
      <point x="277" y="-500" type="curve" smooth="yes"/>
      <point x="577" y="-496"/>
      <point x="768" y="-274"/>
      <point x="763" y="-137" type="curve"/>
      <point x="733" y="-97" type="line"/>
      <point x="685" y="-105"/>
      <point x="542" y="-129"/>
      <point x="487" y="-154" type="curve"/>
      <point x="506" y="-254"/>
      <point x="450" y="-347"/>
      <point x="328" y="-347" type="curve" smooth="yes"/>
      <point x="229" y="-347"/>
      <point x="152" y="-285"/>
      <point x="167" y="-199" type="curve" smooth="yes"/>
      <point x="179" y="-130"/>
      <point x="227" y="-80"/>
      <point x="404" y="-31" type="curve" smooth="yes"/>
      <point x="608" y="25"/>
      <point x="733" y="124"/>
    </contour>
  </outline>
</glyph>
<glyph name="LtnSmTnFive" format="2">
  <advance width="940"/>
  <unicode hex="01BD"/>
  <anchor x="348" y="-100" name="L"/>
  <anchor x="499" y="1000" name="U"/>
  <outline>
    <contour>
      <point x="843" y="267" type="curve"/>
      <point x="869" y="449"/>
      <point x="707" y="549"/>
      <point x="489" y="549" type="curve" smooth="yes"/>
      <point x="445" y="549"/>
      <point x="433" y="547"/>
      <point x="407" y="543" type="curve"/>
      <point x="444" y="773" type="line"/>
      <point x="682" y="773" type="line" smooth="yes"/>
      <point x="725" y="773"/>
      <point x="735" y="722"/>
      <point x="725" y="599" type="curve"/>
      <point x="808" y="599" type="line"/>
      <point x="833" y="654"/>
      <point x="885" y="820"/>
      <point x="895" y="870" type="curve"/>
      <point x="864" y="901" type="line"/>
      <point x="111" y="901" type="line"/>
      <point x="98" y="819" type="line"/>
      <point x="175" y="806"/>
      <point x="216" y="786"/>
      <point x="215" y="774" type="curve"/>
      <point x="161" y="442" type="line"/>
      <point x="167" y="434"/>
      <point x="201" y="395"/>
      <point x="208" y="389" type="curve"/>
      <point x="304" y="428"/>
      <point x="340" y="443"/>
      <point x="425" y="443" type="curve" smooth="yes"/>
      <point x="519" y="443"/>
      <point x="596" y="372"/>
      <point x="577" y="230" type="curve" smooth="yes"/>
      <point x="562" y="116"/>
      <point x="483" y="71"/>
      <point x="416" y="71" type="curve" smooth="yes"/>
      <point x="315" y="71"/>
      <point x="237" y="165"/>
      <point x="218" y="275" type="curve"/>
      <point x="171" y="269"/>
      <point x="31" y="163"/>
      <point x="29" y="114" type="curve"/>
      <point x="25" y="80"/>
      <point x="101" y="-39"/>
      <point x="371" y="-39" type="curve" smooth="yes"/>
      <point x="632" y="-39"/>
      <point x="820" y="95"/>
    </contour>
  </outline>
</glyph>
<glyph name="LtnInvGlottalStopStrk" format="2">
  <advance width="839"/>
  <unicode hex="01BE"/>
  <anchor x="331" y="-100" name="L"/>
  <anchor x="520" y="1232" name="U"/>
  <outline>
    <contour>
      <point x="790" y="867" type="curve"/>
      <point x="760" y="905" type="line"/>
      <point x="150" y="905" type="line"/>
      <point x="49" y="806" type="line"/>
      <point x="64" y="775" type="line"/>
      <point x="475" y="775" type="line" smooth="yes"/>
      <point x="595" y="775"/>
      <point x="629" y="768"/>
      <point x="648" y="730" type="curve"/>
      <point x="673" y="744"/>
      <point x="763" y="830"/>
    </contour>
    <contour>
      <point x="455" y="963" type="line"/>
      <point x="476" y="1098"/>
      <point x="506" y="1151"/>
      <point x="506" y="1151" type="curve"/>
      <point x="478" y="1176" type="line"/>
      <point x="287" y="1104" type="line" smooth="yes"/>
      <point x="252" y="1077"/>
      <point x="234" y="1049"/>
      <point x="218" y="940" type="curve" smooth="yes"/>
      <point x="176" y="689" type="line" smooth="yes"/>
      <point x="158" y="583"/>
      <point x="209" y="482"/>
      <point x="350" y="416" type="curve" smooth="yes"/>
      <point x="451" y="369"/>
      <point x="553" y="296"/>
      <point x="553" y="213" type="curve" smooth="yes"/>
      <point x="553" y="131"/>
      <point x="495" y="95"/>
      <point x="421" y="95" type="curve" smooth="yes"/>
      <point x="255" y="95"/>
      <point x="204" y="323"/>
      <point x="167" y="323" type="curve" smooth="yes"/>
      <point x="139" y="323"/>
      <point x="45" y="147"/>
      <point x="45" y="118" type="curve" smooth="yes"/>
      <point x="45" y="61"/>
      <point x="176" y="-41"/>
      <point x="361" y="-41" type="curve" smooth="yes"/>
      <point x="535" y="-41"/>
      <point x="804" y="104"/>
      <point x="804" y="289" type="curve" smooth="yes"/>
      <point x="804" y="430"/>
      <point x="693" y="508"/>
      <point x="585" y="559" type="curve" smooth="yes"/>
      <point x="500" y="599"/>
      <point x="406" y="658"/>
      <point x="417" y="728" type="curve" smooth="yes"/>
    </contour>
  </outline>
</glyph>
<glyph name="LtnWynn" format="2">
  <advance width="1061"/>
  <unicode hex="01BF"/>
  <anchor x="284" y="-600" name="L"/>
  <anchor x="500" y="1000" name="U"/>
  <outline>
    <contour>
      <point x="1009" y="639" type="curve" smooth="yes"/>
      <point x="1038" y="847"/>
      <point x="928" y="931"/>
      <point x="763" y="931" type="curve" smooth="yes"/>
      <point x="658" y="931"/>
      <point x="533" y="869"/>
      <point x="394" y="712" type="curve"/>
      <point x="286" y="-130" type="line"/>
      <point x="794" y="127"/>
      <point x="973" y="372"/>
    </contour>
    <contour>
      <point x="729" y="563" type="curve" smooth="yes"/>
      <point x="712" y="406"/>
      <point x="626" y="223"/>
      <point x="314" y="23" type="curve"/>
      <point x="383" y="538" type="line"/>
      <point x="511" y="706"/>
      <point x="596" y="757"/>
      <point x="657" y="757" type="curve" smooth="yes"/>
      <point x="736" y="757"/>
      <point x="740" y="663"/>
    </contour>
    <contour>
      <point x="448" y="870" type="curve" smooth="yes"/>
      <point x="448" y="922"/>
      <point x="428" y="936"/>
      <point x="391" y="936" type="curve" smooth="yes"/>
      <point x="338" y="936"/>
      <point x="124" y="857"/>
      <point x="4" y="800" type="curve"/>
      <point x="23" y="723" type="line"/>
      <point x="23" y="723"/>
      <point x="89" y="747"/>
      <point x="113" y="747" type="curve" smooth="yes"/>
      <point x="136" y="747"/>
      <point x="160" y="741"/>
      <point x="160" y="680" type="curve" smooth="yes"/>
      <point x="160" y="510"/>
      <point x="-6" y="-308"/>
      <point x="-26" y="-461" type="curve"/>
      <point x="16" y="-500" type="line"/>
      <point x="51" y="-484"/>
      <point x="237" y="-407"/>
      <point x="276" y="-397" type="curve"/>
      <point x="262" y="-360"/>
      <point x="270" y="-269"/>
      <point x="315" y="6" type="curve" smooth="yes"/>
      <point x="407" y="559"/>
      <point x="448" y="784"/>
    </contour>
  </outline>
</glyph>
<glyph name="LtnAlveolarClick" format="1">
  <advance width="748"/>
  <unicode hex="01C2"/>
  <outline>
    <contour>
      <point x="753" y="719" type="curve"/>
      <point x="718" y="753" type="line"/>
      <point x="94" y="753" type="line"/>
      <point x="82" y="727"/>
      <point x="38" y="676"/>
      <point x="31" y="647" type="curve"/>
      <point x="66" y="613" type="line"/>
      <point x="690" y="613" type="line"/>
      <point x="700" y="635"/>
      <point x="745" y="690"/>
    </contour>
    <contour>
      <point x="712" y="449" type="curve"/>
      <point x="677" y="483" type="line"/>
      <point x="53" y="483" type="line"/>
      <point x="41" y="457"/>
      <point x="-3" y="406"/>
      <point x="-10" y="377" type="curve"/>
      <point x="25" y="343" type="line"/>
      <point x="649" y="343" type="line"/>
      <point x="659" y="365"/>
      <point x="704" y="420"/>
    </contour>
    <contour>
      <point x="344" y="-439" type="curve"/>
      <point x="344" y="-203"/>
      <point x="555" y="1229"/>
      <point x="604" y="1498" type="curve"/>
      <point x="556" y="1520" type="line"/>
      <point x="520" y="1510"/>
      <point x="407" y="1481"/>
      <point x="371" y="1459" type="curve"/>
      <point x="397" y="1220"/>
      <point x="172" y="-217"/>
      <point x="122" y="-478" type="curve"/>
      <point x="170" y="-500" type="line"/>
      <point x="201" y="-489"/>
      <point x="319" y="-460"/>
    </contour>
    <contour>
      <point x="193" y="-600" type="move" name="L"/>
    </contour>
    <contour>
      <point x="519" y="1640" type="move" name="U"/>
    </contour>
  </outline>
</glyph>
<glyph name="LtnSmAeMacron" format="1">
  <advance width="1325"/>
  <unicode hex="01E3"/>
  <outline>
    <component base="LtnSmAe"/>
    <component base="CombMacron" xOffset="1115"/>
    <contour>
      <point x="828" y="0" type="move" name="H"/>
    </contour>
    <contour>
      <point x="599" y="-100" type="move" name="L"/>
    </contour>
    <contour>
      <point x="930" y="0" type="move" name="O"/>
    </contour>
    <contour>
      <point x="1462" y="870" type="move" name="R"/>
    </contour>
    <contour>
      <point x="799" y="1353" type="move" name="U"/>
    </contour>
  </outline>
</glyph>
<glyph name="LtnCapOOgonek" format="1">
  <advance width="1191"/>
  <unicode hex="01EA"/>
  <outline>
    <component base="LtnCapO"/>
    <component base="CombOgonek" xOffset="1105"/>
    <contour>
      <point x="540" y="0" type="move" name="H"/>
    </contour>
    <contour>
      <point x="484" y="-600" type="move" name="L"/>
    </contour>
    <contour>
      <point x="1248" y="1072" type="move" name="R"/>
    </contour>
    <contour>
      <point x="729" y="1320" type="move" name="U"/>
    </contour>
  </outline>
</glyph>
<glyph name="LtnSmOOgonek" format="2">
  <advance width="924"/>
  <unicode hex="01EB"/>
  <anchor x="332" y="0" name="H"/>
  <anchor x="350" y="-600" name="L"/>
  <anchor x="926" y="870" name="R"/>
  <anchor x="555" y="1000" name="U"/>
  <outline>
    <contour>
      <point x="618" y="-291" type="curve"/>
      <point x="599" y="-216" type="line"/>
      <point x="544" y="-267"/>
      <point x="487" y="-285"/>
      <point x="458" y="-285" type="curve" smooth="yes"/>
      <point x="419" y="-285"/>
      <point x="391" y="-257"/>
      <point x="391" y="-212" type="curve" smooth="yes"/>
      <point x="391" y="-147"/>
      <point x="461" y="-49"/>
      <point x="574" y="18" type="curve" smooth="yes"/>
      <point x="598" y="32"/>
      <point x="622" y="47"/>
      <point x="642" y="63" type="curve" smooth="yes"/>
      <point x="791" y="186"/>
      <point x="891" y="381"/>
      <point x="891" y="559" type="curve" smooth="yes"/>
      <point x="891" y="780"/>
      <point x="766" y="936"/>
      <point x="557" y="936" type="curve" smooth="yes"/>
      <point x="465" y="936"/>
      <point x="357" y="893"/>
      <point x="287" y="840" type="curve" smooth="yes"/>
      <point x="108" y="704"/>
      <point x="33" y="535"/>
      <point x="33" y="344" type="curve" smooth="yes"/>
      <point x="33" y="144"/>
      <point x="143" y="-12"/>
      <point x="327" y="-37" type="curve" smooth="yes"/>
      <point x="333" y="-38"/>
      <point x="340" y="-38"/>
      <point x="346" y="-39" type="curve"/>
      <point x="236" y="-114"/>
      <point x="142" y="-210"/>
      <point x="142" y="-312" type="curve" smooth="yes"/>
      <point x="142" y="-425"/>
      <point x="249" y="-446"/>
      <point x="311" y="-446" type="curve" smooth="yes"/>
      <point x="426" y="-446"/>
      <point x="556" y="-363"/>
    </contour>
    <contour>
      <point x="628" y="473" type="curve" smooth="yes"/>
      <point x="628" y="309"/>
      <point x="583" y="102"/>
      <point x="449" y="102" type="curve" smooth="yes"/>
      <point x="376" y="102"/>
      <point x="297" y="250"/>
      <point x="297" y="428" type="curve" smooth="yes"/>
      <point x="297" y="598"/>
      <point x="345" y="789"/>
      <point x="488" y="789" type="curve" smooth="yes"/>
      <point x="555" y="789"/>
      <point x="628" y="676"/>
    </contour>
  </outline>
</glyph>
<glyph name="LtnSmJCaron" format="1">
  <advance width="585"/>
  <unicode hex="01F0"/>
  <outline>
    <component base="LtnSmJ.Dotless"/>
    <component base="CombCaron" xOffset="760"/>
    <contour>
      <point x="151" y="-600" type="move" name="L"/>
    </contour>
    <contour>
      <point x="430" y="1422" type="move" name="U"/>
    </contour>
  </outline>
</glyph>
<glyph name="LtnCapGAcute" format="1">
  <advance width="1136"/>
  <unicode hex="01F4"/>
  <outline>
    <component base="LtnCapG"/>
    <component base="CombAcute.LP" xOffset="1128" yOffset="320"/>
    <contour>
      <point x="550" y="0" type="move" name="H"/>
    </contour>
    <contour>
      <point x="557" y="-100" type="move" name="L"/>
    </contour>
    <contour>
      <point x="786" y="1640" type="move" name="U"/>
    </contour>
  </outline>
</glyph>
